{
  "accessors": [
    {
      "bufferView": 0,
      "byteOffset": 0,
      "componentType": 5126,
      "normalized": false,
      "count": 2564,
      "type": "VEC3",
      "max": [
        1.1605299711227417,
        6.029560089111328,
        1.1605299711227417
      ],
      "min": [
        -1.1605299711227417,
        -6.029560089111328,
        -1.1605299711227417
      ]
    },
    {
      "bufferView": 1,
      "byteOffset": 0,
      "componentType": 5126,
      "normalized": false,
      "count": 2564,
      "type": "VEC3",
      "max": [
        1.0,
        1.0,
        1.0
      ],
      "min": [
        -1.0,
        -0.9999936596595526,
        -1.0
      ]
    },
    {
      "bufferView": 2,
      "byteOffset": 0,
      "componentType": 5126,
      "normalized": false,
      "count": 2564,
      "type": "VEC2",
      "max": [
        0.9909420013427734,
        -0.004676997661590576
      ],
      "min": [
        0.006380999926477671,
        -0.9917799830436707
      ]
    },
    {
      "bufferView": 3,
      "byteOffset": 0,
      "componentType": 5123,
      "normalized": false,
      "count": 5970,
      "type": "SCALAR",
      "max": [
        2563.0
      ],
      "min": [
        0.0
      ]
    }
  ],
  "asset": {
    "generator": "WCSaga Godot Converter",
    "version": "2.0"
  },
  "bufferViews": [
    {
      "buffer": 0,
      "byteOffset": 0,
      "byteLength": 30768,
      "target": 34962
    },
    {
      "buffer": 0,
      "byteOffset": 30768,
      "byteLength": 30768,
      "target": 34962
    },
    {
      "buffer": 0,
      "byteOffset": 61536,
      "byteLength": 20512,
      "target": 34962
    },
    {
      "buffer": 0,
      "byteOffset": 82048,
      "byteLength": 11940,
      "target": 34963
    }
  ],
  "buffers": [
    {
      "uri": "tcm_warhammer.bin",
      "byteLength": 93988
    }
  ],
  "materials": [
    {
      "pbrMetallicRoughness": {
        "baseColorFactor": [
          1.0,
          1.0,
          1.0,
          1.0
        ],
        "metallicFactor": 0.15,
        "roughnessFactor": 0.75
      },
      "emissiveFactor": [
        0.0,
        0.0,
        0.0
      ],
      "alphaMode": "OPAQUE",
      "doubleSided": false,
      "name": "standard"
    }
  ],
  "meshes": [
    {
      "primitives": [
        {
          "attributes": {
            "POSITION": 0,
            "NORMAL": 1,
            "TEXCOORD_0": 2
          },
          "indices": 3,
          "mode": 4,
          "material": 0
        }
      ],
      "name": "ExportedMesh"
    }
  ],
  "nodes": [
    {
      "mesh": 0,
      "name": "Model"
    }
  ],
  "scene": 0,
  "scenes": [
    {
      "nodes": [
        0
      ]
    }
  ]
}