{
  "accessors": [
    {
      "bufferView": 0,
      "byteOffset": 0,
      "componentType": 5126,
      "normalized": false,
      "count": 1099,
      "type": "VEC3",
      "max": [
        6.428040027618408,
        6.56056022644043,
        2.251840114593506
      ],
      "min": [
        -8.058159828186035,
        -5.045820236206055,
        -0.8131279945373535
      ]
    },
    {
      "bufferView": 1,
      "byteOffset": 0,
      "componentType": 5126,
      "normalized": false,
      "count": 1099,
      "type": "VEC3",
      "max": [
        0.9993739286451327,
        0.9586657911995853,
        0.9939803326761228
      ],
      "min": [
        -0.9955752456332908,
        -0.9592011647469937,
        -1.0
      ]
    },
    {
      "bufferView": 2,
      "byteOffset": 0,
      "componentType": 5126,
      "normalized": false,
      "count": 1099,
      "type": "VEC2",
      "max": [
        0.9800000190734863,
        -0.07881402969360352
      ],
      "min": [
        0.019999999552965164,
        -0.9985910058021545
      ]
    },
    {
      "bufferView": 3,
      "byteOffset": 0,
      "componentType": 5123,
      "normalized": false,
      "count": 2874,
      "type": "SCALAR",
      "max": [
        1098.0
      ],
      "min": [
        0.0
      ]
    }
  ],
  "asset": {
    "generator": "WCSaga Godot Converter",
    "version": "2.0"
  },
  "bufferViews": [
    {
      "buffer": 0,
      "byteOffset": 0,
      "byteLength": 13188,
      "target": 34962
    },
    {
      "buffer": 0,
      "byteOffset": 13188,
      "byteLength": 13188,
      "target": 34962
    },
    {
      "buffer": 0,
      "byteOffset": 26376,
      "byteLength": 8792,
      "target": 34962
    },
    {
      "buffer": 0,
      "byteOffset": 35168,
      "byteLength": 5748,
      "target": 34963
    }
  ],
  "buffers": [
    {
      "uri": "misc_kdebris01.bin",
      "byteLength": 40916
    }
  ],
  "materials": [
    {
      "pbrMetallicRoughness": {
        "baseColorFactor": [
          1.0,
          1.0,
          1.0,
          1.0
        ],
        "metallicFactor": 0.15,
        "roughnessFactor": 0.75
      },
      "emissiveFactor": [
        0.0,
        0.0,
        0.0
      ],
      "alphaMode": "OPAQUE",
      "doubleSided": false,
      "name": "standard"
    },
    {
      "pbrMetallicRoughness": {
        "baseColorFactor": [
          1.0,
          1.0,
          1.0,
          1.0
        ],
        "metallicFactor": 0.15,
        "roughnessFactor": 0.75
      },
      "emissiveFactor": [
        0.0,
        0.0,
        0.0
      ],
      "alphaMode": "OPAQUE",
      "doubleSided": false,
      "name": "standard"
    }
  ],
  "meshes": [
    {
      "primitives": [
        {
          "attributes": {
            "POSITION": 0,
            "NORMAL": 1,
            "TEXCOORD_0": 2
          },
          "indices": 3,
          "mode": 4,
          "material": 0
        }
      ],
      "name": "ExportedMesh"
    }
  ],
  "nodes": [
    {
      "mesh": 0,
      "name": "Model"
    }
  ],
  "scene": 0,
  "scenes": [
    {
      "nodes": [
        0
      ]
    }
  ]
}