{
  "accessors": [
    {
      "bufferView": 0,
      "byteOffset": 0,
      "componentType": 5126,
      "normalized": false,
      "count": 3432,
      "type": "VEC3",
      "max": [
        15.197199821472168,
        9.409859657287598,
        11.447400093078613
      ],
      "min": [
        -16.027299880981445,
        -8.197019577026367,
        -7.569859981536865
      ]
    },
    {
      "bufferView": 1,
      "byteOffset": 0,
      "componentType": 5126,
      "normalized": false,
      "count": 3432,
      "type": "VEC3",
      "max": [
        0.9996636929122169,
        0.9972482843536519,
        0.999467483179469
      ],
      "min": [
        -0.9987654695748658,
        -0.9983290013212149,
        -0.999331873839687
      ]
    },
    {
      "bufferView": 2,
      "byteOffset": 0,
      "componentType": 5126,
      "normalized": false,
      "count": 3432,
      "type": "VEC2",
      "max": [
        0.9997980000043754,
        -0.26080501079559326
      ],
      "min": [
        0.01463599968701601,
        -0.928210973739624
      ]
    },
    {
      "bufferView": 3,
      "byteOffset": 0,
      "componentType": 5123,
      "normalized": false,
      "count": 5148,
      "type": "SCALAR",
      "max": [
        3431.0
      ],
      "min": [
        0.0
      ]
    }
  ],
  "asset": {
    "generator": "WCSaga Godot Converter",
    "version": "2.0"
  },
  "bufferViews": [
    {
      "buffer": 0,
      "byteOffset": 0,
      "byteLength": 41184,
      "target": 34962
    },
    {
      "buffer": 0,
      "byteOffset": 41184,
      "byteLength": 41184,
      "target": 34962
    },
    {
      "buffer": 0,
      "byteOffset": 82368,
      "byteLength": 27456,
      "target": 34962
    },
    {
      "buffer": 0,
      "byteOffset": 109824,
      "byteLength": 10296,
      "target": 34963
    }
  ],
  "buffers": [
    {
      "uri": "misc_kdebris02.bin",
      "byteLength": 120120
    }
  ],
  "materials": [
    {
      "pbrMetallicRoughness": {
        "baseColorFactor": [
          1.0,
          1.0,
          1.0,
          1.0
        ],
        "metallicFactor": 0.15,
        "roughnessFactor": 0.75
      },
      "emissiveFactor": [
        0.0,
        0.0,
        0.0
      ],
      "alphaMode": "OPAQUE",
      "doubleSided": false,
      "name": "standard"
    },
    {
      "pbrMetallicRoughness": {
        "baseColorFactor": [
          1.0,
          1.0,
          1.0,
          1.0
        ],
        "metallicFactor": 0.15,
        "roughnessFactor": 0.75
      },
      "emissiveFactor": [
        0.0,
        0.0,
        0.0
      ],
      "alphaMode": "OPAQUE",
      "doubleSided": false,
      "name": "standard"
    }
  ],
  "meshes": [
    {
      "primitives": [
        {
          "attributes": {
            "POSITION": 0,
            "NORMAL": 1,
            "TEXCOORD_0": 2
          },
          "indices": 3,
          "mode": 4,
          "material": 0
        }
      ],
      "name": "ExportedMesh"
    }
  ],
  "nodes": [
    {
      "mesh": 0,
      "name": "Model"
    }
  ],
  "scene": 0,
  "scenes": [
    {
      "nodes": [
        0
      ]
    }
  ]
}