{
  "accessors": [
    {
      "bufferView": 0,
      "byteOffset": 0,
      "componentType": 5126,
      "normalized": false,
      "count": 2393,
      "type": "VEC3",
      "max": [
        55.606300354003906,
        237.46400451660156,
        49.75389862060547
      ],
      "min": [
        -55.01890182495117,
        -237.6529998779297,
        -66.38770294189453
      ]
    },
    {
      "bufferView": 1,
      "byteOffset": 0,
      "componentType": 5126,
      "normalized": false,
      "count": 2393,
      "type": "VEC3",
      "max": [
        1.0,
        1.0,
        1.0
      ],
      "min": [
        -1.0,
        -1.0,
        -1.0
      ]
    },
    {
      "bufferView": 2,
      "byteOffset": 0,
      "componentType": 5126,
      "normalized": false,
      "count": 2393,
      "type": "VEC2",
      "max": [
        0.9988470077514648,
        -0.0014799833297729492
      ],
      "min": [
        0.000155999994603917,
        -0.996055006980896
      ]
    },
    {
      "bufferView": 3,
      "byteOffset": 0,
      "componentType": 5123,
      "normalized": false,
      "count": 4563,
      "type": "SCALAR",
      "max": [
        2392.0
      ],
      "min": [
        0.0
      ]
    },
    {
      "bufferView": 4,
      "byteOffset": 0,
      "componentType": 5126,
      "normalized": false,
      "count": 2399,
      "type": "VEC3",
      "max": [
        55.312599182128906,
        237.5590057373047,
        49.75389862060547
      ],
      "min": [
        -55.312599182128906,
        -237.55799865722656,
        -66.38770294189453
      ]
    },
    {
      "bufferView": 5,
      "byteOffset": 0,
      "componentType": 5126,
      "normalized": false,
      "count": 2399,
      "type": "VEC3",
      "max": [
        1.0,
        1.0,
        1.0
      ],
      "min": [
        -1.0,
        -1.0,
        -1.0
      ]
    },
    {
      "bufferView": 6,
      "byteOffset": 0,
      "componentType": 5126,
      "normalized": false,
      "count": 2399,
      "type": "VEC2",
      "max": [
        0.9988470077514648,
        -0.0014799833297729492
      ],
      "min": [
        0.000155999994603917,
        -0.996055006980896
      ]
    },
    {
      "bufferView": 7,
      "byteOffset": 0,
      "componentType": 5123,
      "normalized": false,
      "count": 4575,
      "type": "SCALAR",
      "max": [
        2398.0
      ],
      "min": [
        0.0
      ]
    },
    {
      "bufferView": 8,
      "byteOffset": 0,
      "componentType": 5126,
      "normalized": false,
      "count": 2053,
      "type": "VEC3",
      "max": [
        53.515201568603516,
        237.5590057373047,
        49.75389862060547
      ],
      "min": [
        -53.515201568603516,
        -237.55799865722656,
        -66.38770294189453
      ]
    },
    {
      "bufferView": 9,
      "byteOffset": 0,
      "componentType": 5126,
      "normalized": false,
      "count": 2053,
      "type": "VEC3",
      "max": [
        1.0,
        1.0,
        1.0
      ],
      "min": [
        -1.0,
        -1.0,
        -1.0
      ]
    },
    {
      "bufferView": 10,
      "byteOffset": 0,
      "componentType": 5126,
      "normalized": false,
      "count": 2053,
      "type": "VEC2",
      "max": [
        0.9988470077514648,
        -0.0014799833297729492
      ],
      "min": [
        0.000155999994603917,
        -0.996055006980896
      ]
    },
    {
      "bufferView": 11,
      "byteOffset": 0,
      "componentType": 5123,
      "normalized": false,
      "count": 4035,
      "type": "SCALAR",
      "max": [
        2052.0
      ],
      "min": [
        0.0
      ]
    }
  ],
  "asset": {
    "generator": "WCSaga Godot Converter",
    "version": "2.0"
  },
  "bufferViews": [
    {
      "buffer": 0,
      "byteOffset": 0,
      "byteLength": 28716,
      "target": 34962
    },
    {
      "buffer": 0,
      "byteOffset": 28716,
      "byteLength": 28716,
      "target": 34962
    },
    {
      "buffer": 0,
      "byteOffset": 57432,
      "byteLength": 19144,
      "target": 34962
    },
    {
      "buffer": 0,
      "byteOffset": 76576,
      "byteLength": 9126,
      "target": 34963
    },
    {
      "buffer": 0,
      "byteOffset": 85704,
      "byteLength": 28788,
      "target": 34962
    },
    {
      "buffer": 0,
      "byteOffset": 114492,
      "byteLength": 28788,
      "target": 34962
    },
    {
      "buffer": 0,
      "byteOffset": 143280,
      "byteLength": 19192,
      "target": 34962
    },
    {
      "buffer": 0,
      "byteOffset": 162472,
      "byteLength": 9150,
      "target": 34963
    },
    {
      "buffer": 0,
      "byteOffset": 171624,
      "byteLength": 24636,
      "target": 34962
    },
    {
      "buffer": 0,
      "byteOffset": 196260,
      "byteLength": 24636,
      "target": 34962
    },
    {
      "buffer": 0,
      "byteOffset": 220896,
      "byteLength": 16424,
      "target": 34962
    },
    {
      "buffer": 0,
      "byteOffset": 237320,
      "byteLength": 8070,
      "target": 34963
    }
  ],
  "buffers": [
    {
      "uri": "tcs_savannah-lod2.bin",
      "byteLength": 245392
    }
  ],
  "materials": [
    {
      "pbrMetallicRoughness": {
        "baseColorFactor": [
          1.0,
          1.0,
          1.0,
          1.0
        ],
        "metallicFactor": 0.15,
        "roughnessFactor": 0.75
      },
      "emissiveFactor": [
        0.0,
        0.0,
        0.0
      ],
      "alphaMode": "OPAQUE",
      "doubleSided": false,
      "name": "standard"
    },
    {
      "pbrMetallicRoughness": {
        "baseColorFactor": [
          1.0,
          1.0,
          1.0,
          1.0
        ],
        "metallicFactor": 0.15,
        "roughnessFactor": 0.75
      },
      "emissiveFactor": [
        0.0,
        0.0,
        0.0
      ],
      "alphaMode": "OPAQUE",
      "doubleSided": false,
      "name": "standard"
    },
    {
      "pbrMetallicRoughness": {
        "baseColorFactor": [
          1.0,
          1.0,
          1.0,
          1.0
        ],
        "metallicFactor": 0.15,
        "roughnessFactor": 0.75
      },
      "emissiveFactor": [
        0.0,
        0.0,
        0.0
      ],
      "alphaMode": "OPAQUE",
      "doubleSided": false,
      "name": "standard"
    },
    {
      "pbrMetallicRoughness": {
        "baseColorFactor": [
          1.0,
          1.0,
          1.0,
          1.0
        ],
        "metallicFactor": 0.15,
        "roughnessFactor": 0.75
      },
      "emissiveFactor": [
        0.0,
        0.0,
        0.0
      ],
      "alphaMode": "OPAQUE",
      "doubleSided": false,
      "name": "standard"
    },
    {
      "pbrMetallicRoughness": {
        "baseColorFactor": [
          1.0,
          1.0,
          1.0,
          1.0
        ],
        "metallicFactor": 0.15,
        "roughnessFactor": 0.75
      },
      "emissiveFactor": [
        0.0,
        0.0,
        0.0
      ],
      "alphaMode": "OPAQUE",
      "doubleSided": false,
      "name": "standard"
    },
    {
      "pbrMetallicRoughness": {
        "baseColorFactor": [
          1.0,
          1.0,
          1.0,
          1.0
        ],
        "metallicFactor": 0.15,
        "roughnessFactor": 0.75
      },
      "emissiveFactor": [
        0.0,
        0.0,
        0.0
      ],
      "alphaMode": "OPAQUE",
      "doubleSided": false,
      "name": "standard"
    },
    {
      "pbrMetallicRoughness": {
        "baseColorFactor": [
          1.0,
          1.0,
          1.0,
          1.0
        ],
        "metallicFactor": 0.15,
        "roughnessFactor": 0.75
      },
      "emissiveFactor": [
        0.0,
        0.0,
        0.0
      ],
      "alphaMode": "OPAQUE",
      "doubleSided": false,
      "name": "standard"
    }
  ],
  "meshes": [
    {
      "primitives": [
        {
          "attributes": {
            "POSITION": 8,
            "NORMAL": 9,
            "TEXCOORD_0": 10
          },
          "indices": 11,
          "mode": 4,
          "material": 0
        }
      ],
      "name": "ExportedMesh"
    }
  ],
  "nodes": [
    {
      "mesh": 0,
      "name": "Model"
    }
  ],
  "scene": 0,
  "scenes": [
    {
      "nodes": [
        0
      ]
    }
  ]
}