{
  "accessors": [
    {
      "bufferView": 0,
      "byteOffset": 0,
      "componentType": 5126,
      "normalized": false,
      "count": 6282,
      "type": "VEC3",
      "max": [
        31.479400634765625,
        173.94700622558594,
        43.195701599121094
      ],
      "min": [
        -33.50740051269531,
        -146.08700561523438,
        -37.65520095825195
      ]
    },
    {
      "bufferView": 1,
      "byteOffset": 0,
      "componentType": 5126,
      "normalized": false,
      "count": 6282,
      "type": "VEC3",
      "max": [
        1.0,
        1.0,
        1.0
      ],
      "min": [
        -1.0,
        -1.0,
        -1.0
      ]
    },
    {
      "bufferView": 2,
      "byteOffset": 0,
      "componentType": 5126,
      "normalized": false,
      "count": 6282,
      "type": "VEC2",
      "max": [
        0.9978820085525513,
        0.0
      ],
      "min": [
        0.0013419999741017818,
        -0.9986709952354431
      ]
    },
    {
      "bufferView": 3,
      "byteOffset": 0,
      "componentType": 5123,
      "normalized": false,
      "count": 12387,
      "type": "SCALAR",
      "max": [
        6281.0
      ],
      "min": [
        0.0
      ]
    },
    {
      "bufferView": 4,
      "byteOffset": 0,
      "componentType": 5126,
      "normalized": false,
      "count": 9418,
      "type": "VEC3",
      "max": [
        31.479999542236328,
        181.1479949951172,
        43.195701599121094
      ],
      "min": [
        -33.50740051269531,
        -146.08700561523438,
        -37.65520095825195
      ]
    },
    {
      "bufferView": 5,
      "byteOffset": 0,
      "componentType": 5126,
      "normalized": false,
      "count": 9418,
      "type": "VEC3",
      "max": [
        1.0,
        1.0,
        1.0
      ],
      "min": [
        -1.0,
        -1.0,
        -1.0
      ]
    },
    {
      "bufferView": 6,
      "byteOffset": 0,
      "componentType": 5126,
      "normalized": false,
      "count": 9418,
      "type": "VEC2",
      "max": [
        0.9978820085525513,
        0.0
      ],
      "min": [
        0.0,
        -1.0
      ]
    },
    {
      "bufferView": 7,
      "byteOffset": 0,
      "componentType": 5123,
      "normalized": false,
      "count": 18057,
      "type": "SCALAR",
      "max": [
        9417.0
      ],
      "min": [
        0.0
      ]
    }
  ],
  "asset": {
    "generator": "WCSaga Godot Converter",
    "version": "2.0"
  },
  "bufferViews": [
    {
      "buffer": 0,
      "byteOffset": 0,
      "byteLength": 75384,
      "target": 34962
    },
    {
      "buffer": 0,
      "byteOffset": 75384,
      "byteLength": 75384,
      "target": 34962
    },
    {
      "buffer": 0,
      "byteOffset": 150768,
      "byteLength": 50256,
      "target": 34962
    },
    {
      "buffer": 0,
      "byteOffset": 201024,
      "byteLength": 24774,
      "target": 34963
    },
    {
      "buffer": 0,
      "byteOffset": 225800,
      "byteLength": 113016,
      "target": 34962
    },
    {
      "buffer": 0,
      "byteOffset": 338816,
      "byteLength": 113016,
      "target": 34962
    },
    {
      "buffer": 0,
      "byteOffset": 451832,
      "byteLength": 75344,
      "target": 34962
    },
    {
      "buffer": 0,
      "byteOffset": 527176,
      "byteLength": 36114,
      "target": 34963
    }
  ],
  "buffers": [
    {
      "uri": "prs_caernaven-lod1.bin",
      "byteLength": 563292
    }
  ],
  "materials": [
    {
      "pbrMetallicRoughness": {
        "baseColorFactor": [
          1.0,
          1.0,
          1.0,
          1.0
        ],
        "metallicFactor": 0.15,
        "roughnessFactor": 0.75
      },
      "emissiveFactor": [
        0.0,
        0.0,
        0.0
      ],
      "alphaMode": "OPAQUE",
      "doubleSided": false,
      "name": "standard"
    },
    {
      "pbrMetallicRoughness": {
        "baseColorFactor": [
          1.0,
          1.0,
          1.0,
          1.0
        ],
        "metallicFactor": 0.15,
        "roughnessFactor": 0.75
      },
      "emissiveFactor": [
        0.0,
        0.0,
        0.0
      ],
      "alphaMode": "OPAQUE",
      "doubleSided": false,
      "name": "standard"
    },
    {
      "pbrMetallicRoughness": {
        "baseColorFactor": [
          1.0,
          1.0,
          1.0,
          1.0
        ],
        "metallicFactor": 0.15,
        "roughnessFactor": 0.75
      },
      "emissiveFactor": [
        0.0,
        0.0,
        0.0
      ],
      "alphaMode": "OPAQUE",
      "doubleSided": false,
      "name": "standard"
    },
    {
      "pbrMetallicRoughness": {
        "baseColorFactor": [
          1.0,
          1.0,
          1.0,
          1.0
        ],
        "metallicFactor": 0.15,
        "roughnessFactor": 0.75
      },
      "emissiveFactor": [
        0.0,
        0.0,
        0.0
      ],
      "alphaMode": "OPAQUE",
      "doubleSided": false,
      "name": "standard"
    }
  ],
  "meshes": [
    {
      "primitives": [
        {
          "attributes": {
            "POSITION": 4,
            "NORMAL": 5,
            "TEXCOORD_0": 6
          },
          "indices": 7,
          "mode": 4,
          "material": 0
        }
      ],
      "name": "ExportedMesh"
    }
  ],
  "nodes": [
    {
      "mesh": 0,
      "name": "Model"
    }
  ],
  "scene": 0,
  "scenes": [
    {
      "nodes": [
        0
      ]
    }
  ]
}