{
  "accessors": [
    {
      "bufferView": 0,
      "byteOffset": 0,
      "componentType": 5126,
      "normalized": false,
      "count": 1640,
      "type": "VEC3",
      "max": [
        72.60540008544922,
        71.33916473388672,
        51.462799072265625
      ],
      "min": [
        -50.38532638549805,
        -50.76618576049805,
        -79.49059295654297
      ]
    },
    {
      "bufferView": 1,
      "byteOffset": 0,
      "componentType": 5126,
      "normalized": false,
      "count": 1640,
      "type": "VEC3",
      "max": [
        0.9992245155909458,
        0.9999252187689146,
        0.998151176176657
      ],
      "min": [
        -0.9996106498641356,
        -0.999785895712731,
        -0.9989493252528553
      ]
    },
    {
      "bufferView": 2,
      "byteOffset": 0,
      "componentType": 5126,
      "normalized": false,
      "count": 1640,
      "type": "VEC2",
      "max": [
        0.9968799948692322,
        -0.00464099645614624
      ],
      "min": [
        0.0013879999751225114,
        -0.9987649917602539
      ]
    },
    {
      "bufferView": 3,
      "byteOffset": 0,
      "componentType": 5123,
      "normalized": false,
      "count": 9222,
      "type": "SCALAR",
      "max": [
        1639.0
      ],
      "min": [
        0.0
      ]
    },
    {
      "bufferView": 4,
      "byteOffset": 0,
      "componentType": 5126,
      "normalized": false,
      "count": 858,
      "type": "VEC3",
      "max": [
        72.60540008544922,
        71.33916473388672,
        51.462799072265625
      ],
      "min": [
        -49.643348693847656,
        -50.76618576049805,
        -79.49059295654297
      ]
    },
    {
      "bufferView": 5,
      "byteOffset": 0,
      "componentType": 5126,
      "normalized": false,
      "count": 858,
      "type": "VEC3",
      "max": [
        0.9870149530454454,
        0.9999223582204544,
        0.9971570925965939
      ],
      "min": [
        -0.9980085737757439,
        -0.9979758648112842,
        -0.9882558325697095
      ]
    },
    {
      "bufferView": 6,
      "byteOffset": 0,
      "componentType": 5126,
      "normalized": false,
      "count": 858,
      "type": "VEC2",
      "max": [
        0.9968799948692322,
        -0.00464099645614624
      ],
      "min": [
        0.0013879999751225114,
        -0.9987649917602539
      ]
    },
    {
      "bufferView": 7,
      "byteOffset": 0,
      "componentType": 5123,
      "normalized": false,
      "count": 4602,
      "type": "SCALAR",
      "max": [
        857.0
      ],
      "min": [
        0.0
      ]
    },
    {
      "bufferView": 8,
      "byteOffset": 0,
      "componentType": 5126,
      "normalized": false,
      "count": 43,
      "type": "VEC3",
      "max": [
        72.40186309814453,
        71.33916473388672,
        51.462799072265625
      ],
      "min": [
        -47.42045593261719,
        -48.188011169433594,
        -79.49059295654297
      ]
    },
    {
      "bufferView": 9,
      "byteOffset": 0,
      "componentType": 5126,
      "normalized": false,
      "count": 43,
      "type": "VEC3",
      "max": [
        0.95197442564275,
        0.9343350799879082,
        0.9492761109761466
      ],
      "min": [
        -0.9231423221571277,
        -0.9243832992927524,
        -0.9281355830673043
      ]
    },
    {
      "bufferView": 10,
      "byteOffset": 0,
      "componentType": 5126,
      "normalized": false,
      "count": 43,
      "type": "VEC2",
      "max": [
        0.9877910017967224,
        -0.00464099645614624
      ],
      "min": [
        0.0013879999751225114,
        -0.9970750212669373
      ]
    },
    {
      "bufferView": 11,
      "byteOffset": 0,
      "componentType": 5123,
      "normalized": false,
      "count": 174,
      "type": "SCALAR",
      "max": [
        42.0
      ],
      "min": [
        0.0
      ]
    }
  ],
  "asset": {
    "generator": "WCSaga Godot Converter",
    "version": "2.0"
  },
  "bufferViews": [
    {
      "buffer": 0,
      "byteOffset": 0,
      "byteLength": 19680,
      "target": 34962
    },
    {
      "buffer": 0,
      "byteOffset": 19680,
      "byteLength": 19680,
      "target": 34962
    },
    {
      "buffer": 0,
      "byteOffset": 39360,
      "byteLength": 13120,
      "target": 34962
    },
    {
      "buffer": 0,
      "byteOffset": 52480,
      "byteLength": 18444,
      "target": 34963
    },
    {
      "buffer": 0,
      "byteOffset": 70924,
      "byteLength": 10296,
      "target": 34962
    },
    {
      "buffer": 0,
      "byteOffset": 81220,
      "byteLength": 10296,
      "target": 34962
    },
    {
      "buffer": 0,
      "byteOffset": 91516,
      "byteLength": 6864,
      "target": 34962
    },
    {
      "buffer": 0,
      "byteOffset": 98380,
      "byteLength": 9204,
      "target": 34963
    },
    {
      "buffer": 0,
      "byteOffset": 107584,
      "byteLength": 516,
      "target": 34962
    },
    {
      "buffer": 0,
      "byteOffset": 108100,
      "byteLength": 516,
      "target": 34962
    },
    {
      "buffer": 0,
      "byteOffset": 108616,
      "byteLength": 344,
      "target": 34962
    },
    {
      "buffer": 0,
      "byteOffset": 108960,
      "byteLength": 348,
      "target": 34963
    }
  ],
  "buffers": [
    {
      "uri": "asta01-lod2.bin",
      "byteLength": 109308
    }
  ],
  "materials": [
    {
      "pbrMetallicRoughness": {
        "baseColorFactor": [
          1.0,
          1.0,
          1.0,
          1.0
        ],
        "metallicFactor": 0.15,
        "roughnessFactor": 0.75
      },
      "emissiveFactor": [
        0.0,
        0.0,
        0.0
      ],
      "alphaMode": "OPAQUE",
      "doubleSided": false,
      "name": "standard"
    }
  ],
  "meshes": [
    {
      "primitives": [
        {
          "attributes": {
            "POSITION": 8,
            "NORMAL": 9,
            "TEXCOORD_0": 10
          },
          "indices": 11,
          "mode": 4,
          "material": 0
        }
      ],
      "name": "ExportedMesh"
    }
  ],
  "nodes": [
    {
      "mesh": 0,
      "name": "Model"
    }
  ],
  "scene": 0,
  "scenes": [
    {
      "nodes": [
        0
      ]
    }
  ]
}