{
  "accessors": [
    {
      "bufferView": 0,
      "byteOffset": 0,
      "componentType": 5126,
      "normalized": false,
      "count": 6226,
      "type": "VEC3",
      "max": [
        62.314979553222656,
        76.65953826904297,
        62.662261962890625
      ],
      "min": [
        -73.91162872314453,
        -61.4605712890625,
        -79.64466094970703
      ]
    },
    {
      "bufferView": 1,
      "byteOffset": 0,
      "componentType": 5126,
      "normalized": false,
      "count": 6226,
      "type": "VEC3",
      "max": [
        0.9998636089537459,
        0.9994697455831372,
        0.9997882476727679
      ],
      "min": [
        -0.9994790938431949,
        -0.9998832361699704,
        -0.9991751591724107
      ]
    },
    {
      "bufferView": 2,
      "byteOffset": 0,
      "componentType": 5126,
      "normalized": false,
      "count": 6226,
      "type": "VEC2",
      "max": [
        0.9998891949653625,
        -9.776414663065225e-05
      ],
      "min": [
        5.9485435485839844e-05,
        -0.9996542882581707
      ]
    },
    {
      "bufferView": 3,
      "byteOffset": 0,
      "componentType": 5123,
      "normalized": false,
      "count": 23040,
      "type": "SCALAR",
      "max": [
        6225.0
      ],
      "min": [
        0.0
      ]
    },
    {
      "bufferView": 4,
      "byteOffset": 0,
      "componentType": 5126,
      "normalized": false,
      "count": 1472,
      "type": "VEC3",
      "max": [
        61.05928039550781,
        75.50296020507812,
        61.62675857543945
      ],
      "min": [
        -72.26597595214844,
        -60.06904602050781,
        -77.26164245605469
      ]
    },
    {
      "bufferView": 5,
      "byteOffset": 0,
      "componentType": 5126,
      "normalized": false,
      "count": 1472,
      "type": "VEC3",
      "max": [
        0.9997834348336301,
        0.9997708783489746,
        0.9988409192412808
      ],
      "min": [
        -0.998547921854765,
        -0.9964836232031571,
        -0.999519980653696
      ]
    },
    {
      "bufferView": 6,
      "byteOffset": 0,
      "componentType": 5126,
      "normalized": false,
      "count": 1472,
      "type": "VEC2",
      "max": [
        0.9975581169128418,
        -0.001417398452758789
      ],
      "min": [
        0.0012758970260620117,
        -0.9988006353378296
      ]
    },
    {
      "bufferView": 7,
      "byteOffset": 0,
      "componentType": 5123,
      "normalized": false,
      "count": 5760,
      "type": "SCALAR",
      "max": [
        1471.0
      ],
      "min": [
        0.0
      ]
    },
    {
      "bufferView": 8,
      "byteOffset": 0,
      "componentType": 5126,
      "normalized": false,
      "count": 360,
      "type": "VEC3",
      "max": [
        58.05436325073242,
        69.2851333618164,
        58.49394989013672
      ],
      "min": [
        -69.27835845947266,
        -57.49901580810547,
        -74.11942291259766
      ]
    },
    {
      "bufferView": 9,
      "byteOffset": 0,
      "componentType": 5126,
      "normalized": false,
      "count": 360,
      "type": "VEC3",
      "max": [
        0.9950798036555241,
        0.9920680350954469,
        0.9999832511593946
      ],
      "min": [
        -0.9943329211963491,
        -0.9989025996850849,
        -0.9776793873979948
      ]
    },
    {
      "bufferView": 10,
      "byteOffset": 0,
      "componentType": 5126,
      "normalized": false,
      "count": 360,
      "type": "VEC2",
      "max": [
        0.9993369579315186,
        -9.1552734375e-05
      ],
      "min": [
        0.004004478454589844,
        -0.9991883635520935
      ]
    },
    {
      "bufferView": 11,
      "byteOffset": 0,
      "componentType": 5123,
      "normalized": false,
      "count": 1440,
      "type": "SCALAR",
      "max": [
        359.0
      ],
      "min": [
        0.0
      ]
    },
    {
      "bufferView": 12,
      "byteOffset": 0,
      "componentType": 5126,
      "normalized": false,
      "count": 108,
      "type": "VEC3",
      "max": [
        52.18744659423828,
        66.03955078125,
        51.94154357910156
      ],
      "min": [
        -62.43919372558594,
        -52.293540954589844,
        -65.40851593017578
      ]
    },
    {
      "bufferView": 13,
      "byteOffset": 0,
      "componentType": 5126,
      "normalized": false,
      "count": 108,
      "type": "VEC3",
      "max": [
        0.9932680395532186,
        0.9813306468049429,
        0.9802378294347482
      ],
      "min": [
        -0.9947527239003285,
        -0.9964066440640259,
        -0.9923194608048688
      ]
    },
    {
      "bufferView": 14,
      "byteOffset": 0,
      "componentType": 5126,
      "normalized": false,
      "count": 108,
      "type": "VEC2",
      "max": [
        0.993102490901947,
        -0.023450493812561035
      ],
      "min": [
        0.011463284492492676,
        -0.9929061532020569
      ]
    },
    {
      "bufferView": 15,
      "byteOffset": 0,
      "componentType": 5123,
      "normalized": false,
      "count": 360,
      "type": "SCALAR",
      "max": [
        107.0
      ],
      "min": [
        0.0
      ]
    }
  ],
  "asset": {
    "generator": "WCSaga POF Converter",
    "version": "2.0"
  },
  "bufferViews": [
    {
      "buffer": 0,
      "byteOffset": 0,
      "byteLength": 74712,
      "target": 34962
    },
    {
      "buffer": 0,
      "byteOffset": 74712,
      "byteLength": 74712,
      "target": 34962
    },
    {
      "buffer": 0,
      "byteOffset": 149424,
      "byteLength": 49808,
      "target": 34962
    },
    {
      "buffer": 0,
      "byteOffset": 199232,
      "byteLength": 46080,
      "target": 34963
    },
    {
      "buffer": 0,
      "byteOffset": 245312,
      "byteLength": 17664,
      "target": 34962
    },
    {
      "buffer": 0,
      "byteOffset": 262976,
      "byteLength": 17664,
      "target": 34962
    },
    {
      "buffer": 0,
      "byteOffset": 280640,
      "byteLength": 11776,
      "target": 34962
    },
    {
      "buffer": 0,
      "byteOffset": 292416,
      "byteLength": 11520,
      "target": 34963
    },
    {
      "buffer": 0,
      "byteOffset": 303936,
      "byteLength": 4320,
      "target": 34962
    },
    {
      "buffer": 0,
      "byteOffset": 308256,
      "byteLength": 4320,
      "target": 34962
    },
    {
      "buffer": 0,
      "byteOffset": 312576,
      "byteLength": 2880,
      "target": 34962
    },
    {
      "buffer": 0,
      "byteOffset": 315456,
      "byteLength": 2880,
      "target": 34963
    },
    {
      "buffer": 0,
      "byteOffset": 318336,
      "byteLength": 1296,
      "target": 34962
    },
    {
      "buffer": 0,
      "byteOffset": 319632,
      "byteLength": 1296,
      "target": 34962
    },
    {
      "buffer": 0,
      "byteOffset": 320928,
      "byteLength": 864,
      "target": 34962
    },
    {
      "buffer": 0,
      "byteOffset": 321792,
      "byteLength": 720,
      "target": 34963
    }
  ],
  "buffers": [
    {
      "uri": "astb01.bin",
      "byteLength": 322512
    }
  ],
  "materials": [
    {
      "pbrMetallicRoughness": {
        "baseColorFactor": [
          1.0,
          1.0,
          1.0,
          1.0
        ],
        "metallicFactor": 0.15,
        "roughnessFactor": 0.75
      },
      "emissiveFactor": [
        0.0,
        0.0,
        0.0
      ],
      "alphaMode": "OPAQUE",
      "doubleSided": false,
      "name": "standard"
    }
  ],
  "meshes": [
    {
      "primitives": [
        {
          "attributes": {
            "POSITION": 0,
            "NORMAL": 1,
            "TEXCOORD_0": 2
          },
          "indices": 3,
          "mode": 4,
          "material": 0
        }
      ],
      "name": "ExportedMesh"
    },
    {
      "primitives": [
        {
          "attributes": {
            "POSITION": 4,
            "NORMAL": 5,
            "TEXCOORD_0": 6
          },
          "indices": 7,
          "mode": 4,
          "material": 0
        }
      ],
      "name": "ExportedMesh"
    },
    {
      "primitives": [
        {
          "attributes": {
            "POSITION": 8,
            "NORMAL": 9,
            "TEXCOORD_0": 10
          },
          "indices": 11,
          "mode": 4,
          "material": 0
        }
      ],
      "name": "ExportedMesh"
    },
    {
      "primitives": [
        {
          "attributes": {
            "POSITION": 12,
            "NORMAL": 13,
            "TEXCOORD_0": 14
          },
          "indices": 15,
          "mode": 4,
          "material": 0
        }
      ],
      "name": "ExportedMesh"
    }
  ],
  "nodes": [
    {
      "mesh": 0,
      "name": "detail-0"
    },
    {
      "mesh": 1,
      "name": "detail-1"
    },
    {
      "mesh": 2,
      "name": "detail-2"
    },
    {
      "mesh": 3,
      "name": "detail-3"
    }
  ],
  "scene": 0,
  "scenes": [
    {
      "nodes": [
        0,
        1,
        2,
        3
      ]
    }
  ]
}