{
  "accessors": [
    {
      "bufferView": 0,
      "byteOffset": 0,
      "componentType": 5126,
      "normalized": false,
      "count": 598,
      "type": "VEC3",
      "max": [
        21.28887939453125,
        17.26283836364746,
        19.906370162963867
      ],
      "min": [
        -21.28887939453125,
        -17.26283836364746,
        -19.906370162963867
      ]
    },
    {
      "bufferView": 1,
      "byteOffset": 0,
      "componentType": 5126,
      "normalized": false,
      "count": 598,
      "type": "VEC3",
      "max": [
        0.9996832157070361,
        0.9968316118905942,
        0.9678427021320564
      ],
      "min": [
        -0.9897196364367529,
        -0.9896744466494679,
        -0.9981400769398898
      ]
    },
    {
      "bufferView": 2,
      "byteOffset": 0,
      "componentType": 5126,
      "normalized": false,
      "count": 598,
      "type": "VEC2",
      "max": [
        0.9949835538864136,
        -0.02051788568496704
      ],
      "min": [
        0.021122649312019348,
        -0.9853349328041077
      ]
    },
    {
      "bufferView": 3,
      "byteOffset": 0,
      "componentType": 5123,
      "normalized": false,
      "count": 3264,
      "type": "SCALAR",
      "max": [
        597.0
      ],
      "min": [
        0.0
      ]
    },
    {
      "bufferView": 4,
      "byteOffset": 0,
      "componentType": 5126,
      "normalized": false,
      "count": 314,
      "type": "VEC3",
      "max": [
        21.40384864807129,
        17.60050392150879,
        19.906370162963867
      ],
      "min": [
        -21.371105194091797,
        -17.369426727294922,
        -19.906370162963867
      ]
    },
    {
      "bufferView": 5,
      "byteOffset": 0,
      "componentType": 5126,
      "normalized": false,
      "count": 314,
      "type": "VEC3",
      "max": [
        0.9996985743453362,
        0.9999638481630845,
        0.9678430524462571
      ],
      "min": [
        -0.9812742319572555,
        -0.9819275429526783,
        -0.9909333837417288
      ]
    },
    {
      "bufferView": 6,
      "byteOffset": 0,
      "componentType": 5126,
      "normalized": false,
      "count": 314,
      "type": "VEC2",
      "max": [
        0.9949835538864136,
        -0.02051788568496704
      ],
      "min": [
        0.02846248634159565,
        -0.9853349328041077
      ]
    },
    {
      "bufferView": 7,
      "byteOffset": 0,
      "componentType": 5123,
      "normalized": false,
      "count": 1632,
      "type": "SCALAR",
      "max": [
        313.0
      ],
      "min": [
        0.0
      ]
    },
    {
      "bufferView": 8,
      "byteOffset": 0,
      "componentType": 5126,
      "normalized": false,
      "count": 46,
      "type": "VEC3",
      "max": [
        21.4038143157959,
        18.108230590820312,
        20.979705810546875
      ],
      "min": [
        -23.095876693725586,
        -17.6146183013916,
        -20.759014129638672
      ]
    },
    {
      "bufferView": 9,
      "byteOffset": 0,
      "componentType": 5126,
      "normalized": false,
      "count": 46,
      "type": "VEC3",
      "max": [
        0.9680120344695164,
        0.9243618160270299,
        0.9400665381956106
      ],
      "min": [
        -0.93925364290055,
        -0.99544511924044,
        -0.9605306803706651
      ]
    },
    {
      "bufferView": 10,
      "byteOffset": 0,
      "componentType": 5126,
      "normalized": false,
      "count": 46,
      "type": "VEC2",
      "max": [
        0.9664695858955383,
        -0.08301067352294922
      ],
      "min": [
        0.030650338158011436,
        -0.9735722541809082
      ]
    },
    {
      "bufferView": 11,
      "byteOffset": 0,
      "componentType": 5123,
      "normalized": false,
      "count": 204,
      "type": "SCALAR",
      "max": [
        45.0
      ],
      "min": [
        0.0
      ]
    }
  ],
  "asset": {
    "generator": "WCSaga Godot Converter",
    "version": "2.0"
  },
  "bufferViews": [
    {
      "buffer": 0,
      "byteOffset": 0,
      "byteLength": 7176,
      "target": 34962
    },
    {
      "buffer": 0,
      "byteOffset": 7176,
      "byteLength": 7176,
      "target": 34962
    },
    {
      "buffer": 0,
      "byteOffset": 14352,
      "byteLength": 4784,
      "target": 34962
    },
    {
      "buffer": 0,
      "byteOffset": 19136,
      "byteLength": 6528,
      "target": 34963
    },
    {
      "buffer": 0,
      "byteOffset": 25664,
      "byteLength": 3768,
      "target": 34962
    },
    {
      "buffer": 0,
      "byteOffset": 29432,
      "byteLength": 3768,
      "target": 34962
    },
    {
      "buffer": 0,
      "byteOffset": 33200,
      "byteLength": 2512,
      "target": 34962
    },
    {
      "buffer": 0,
      "byteOffset": 35712,
      "byteLength": 3264,
      "target": 34963
    },
    {
      "buffer": 0,
      "byteOffset": 38976,
      "byteLength": 552,
      "target": 34962
    },
    {
      "buffer": 0,
      "byteOffset": 39528,
      "byteLength": 552,
      "target": 34962
    },
    {
      "buffer": 0,
      "byteOffset": 40080,
      "byteLength": 368,
      "target": 34962
    },
    {
      "buffer": 0,
      "byteOffset": 40448,
      "byteLength": 408,
      "target": 34963
    }
  ],
  "buffers": [
    {
      "uri": "astb03-lod2.bin",
      "byteLength": 40856
    }
  ],
  "materials": [
    {
      "pbrMetallicRoughness": {
        "baseColorFactor": [
          1.0,
          1.0,
          1.0,
          1.0
        ],
        "metallicFactor": 0.15,
        "roughnessFactor": 0.75
      },
      "emissiveFactor": [
        0.0,
        0.0,
        0.0
      ],
      "alphaMode": "OPAQUE",
      "doubleSided": false,
      "name": "standard"
    }
  ],
  "meshes": [
    {
      "primitives": [
        {
          "attributes": {
            "POSITION": 8,
            "NORMAL": 9,
            "TEXCOORD_0": 10
          },
          "indices": 11,
          "mode": 4,
          "material": 0
        }
      ],
      "name": "ExportedMesh"
    }
  ],
  "nodes": [
    {
      "mesh": 0,
      "name": "Model"
    }
  ],
  "scene": 0,
  "scenes": [
    {
      "nodes": [
        0
      ]
    }
  ]
}