{
  "accessors": [
    {
      "bufferView": 0,
      "byteOffset": 0,
      "componentType": 5126,
      "normalized": false,
      "count": 673,
      "type": "VEC3",
      "max": [
        2.2906599044799805,
        2.7923500537872314,
        1.3437600135803223
      ],
      "min": [
        -2.2906599044799805,
        -2.7923500537872314,
        -1.3437600135803223
      ]
    },
    {
      "bufferView": 1,
      "byteOffset": 0,
      "componentType": 5126,
      "normalized": false,
      "count": 673,
      "type": "VEC3",
      "max": [
        1.0,
        1.0,
        1.0
      ],
      "min": [
        -1.0,
        -1.0,
        -1.0
      ]
    },
    {
      "bufferView": 2,
      "byteOffset": 0,
      "componentType": 5126,
      "normalized": false,
      "count": 673,
      "type": "VEC2",
      "max": [
        0.9810559749603271,
        -0.23153001070022583
      ],
      "min": [
        0.026072999462485313,
        -0.9895439743995667
      ]
    },
    {
      "bufferView": 3,
      "byteOffset": 0,
      "componentType": 5123,
      "normalized": false,
      "count": 1683,
      "type": "SCALAR",
      "max": [
        672.0
      ],
      "min": [
        0.0
      ]
    },
    {
      "bufferView": 4,
      "byteOffset": 0,
      "componentType": 5126,
      "normalized": false,
      "count": 14,
      "type": "VEC3",
      "max": [
        0.20539399981498718,
        2.409640073776245,
        0.8841609954833984
      ],
      "min": [
        -1.8311599493026733,
        -2.080699920654297,
        -0.8537960052490234
      ]
    },
    {
      "bufferView": 5,
      "byteOffset": 0,
      "componentType": 5126,
      "normalized": false,
      "count": 14,
      "type": "VEC3",
      "max": [
        0.7246779426020324,
        0.5990022764581892,
        0.6805738630407834
      ],
      "min": [
        -0.6848648783404286,
        -0.7164056225682844,
        -0.6320242779810914
      ]
    },
    {
      "bufferView": 6,
      "byteOffset": 0,
      "componentType": 5126,
      "normalized": false,
      "count": 14,
      "type": "VEC2",
      "max": [
        0.9092048034071922,
        -0.03357994556427002
      ],
      "min": [
        0.0009487870265729725,
        -0.9627100229263306
      ]
    },
    {
      "bufferView": 7,
      "byteOffset": 0,
      "componentType": 5123,
      "normalized": false,
      "count": 36,
      "type": "SCALAR",
      "max": [
        13.0
      ],
      "min": [
        0.0
      ]
    }
  ],
  "asset": {
    "generator": "WCSaga POF Converter",
    "version": "2.0"
  },
  "bufferViews": [
    {
      "buffer": 0,
      "byteOffset": 0,
      "byteLength": 8076,
      "target": 34962
    },
    {
      "buffer": 0,
      "byteOffset": 8076,
      "byteLength": 8076,
      "target": 34962
    },
    {
      "buffer": 0,
      "byteOffset": 16152,
      "byteLength": 5384,
      "target": 34962
    },
    {
      "buffer": 0,
      "byteOffset": 21536,
      "byteLength": 3366,
      "target": 34963
    },
    {
      "buffer": 0,
      "byteOffset": 24904,
      "byteLength": 168,
      "target": 34962
    },
    {
      "buffer": 0,
      "byteOffset": 25072,
      "byteLength": 168,
      "target": 34962
    },
    {
      "buffer": 0,
      "byteOffset": 25240,
      "byteLength": 112,
      "target": 34962
    },
    {
      "buffer": 0,
      "byteOffset": 25352,
      "byteLength": 72,
      "target": 34963
    }
  ],
  "buffers": [
    {
      "uri": "misc_pdebris03.bin",
      "byteLength": 25424
    }
  ],
  "materials": [
    {
      "pbrMetallicRoughness": {
        "baseColorFactor": [
          1.0,
          1.0,
          1.0,
          1.0
        ],
        "metallicFactor": 0.15,
        "roughnessFactor": 0.75
      },
      "emissiveFactor": [
        0.0,
        0.0,
        0.0
      ],
      "alphaMode": "OPAQUE",
      "doubleSided": false,
      "name": "standard"
    },
    {
      "pbrMetallicRoughness": {
        "baseColorFactor": [
          1.0,
          1.0,
          1.0,
          1.0
        ],
        "metallicFactor": 0.15,
        "roughnessFactor": 0.75
      },
      "emissiveFactor": [
        0.0,
        0.0,
        0.0
      ],
      "alphaMode": "OPAQUE",
      "doubleSided": false,
      "name": "standard"
    }
  ],
  "meshes": [
    {
      "primitives": [
        {
          "attributes": {
            "POSITION": 0,
            "NORMAL": 1,
            "TEXCOORD_0": 2
          },
          "indices": 3,
          "mode": 4,
          "material": 0
        }
      ],
      "name": "ExportedMesh"
    },
    {
      "primitives": [
        {
          "attributes": {
            "POSITION": 4,
            "NORMAL": 5,
            "TEXCOORD_0": 6
          },
          "indices": 7,
          "mode": 4,
          "material": 0
        }
      ],
      "name": "ExportedMesh"
    }
  ],
  "nodes": [
    {
      "mesh": 0,
      "children": [
        1
      ],
      "name": "detail0_3"
    },
    {
      "mesh": 1,
      "name": "debris3"
    }
  ],
  "scene": 0,
  "scenes": [
    {
      "nodes": [
        0
      ]
    }
  ]
}