{
  "accessors": [
    {
      "bufferView": 0,
      "byteOffset": 0,
      "componentType": 5126,
      "normalized": false,
      "count": 3682,
      "type": "VEC3",
      "max": [
        5.162365436553955,
        10.7576904296875,
        4.57621955871582
      ],
      "min": [
        -5.162365436553955,
        -10.7576904296875,
        -4.551506042480469
      ]
    },
    {
      "bufferView": 1,
      "byteOffset": 0,
      "componentType": 5126,
      "normalized": false,
      "count": 3682,
      "type": "VEC3",
      "max": [
        1.0,
        1.0,
        1.0
      ],
      "min": [
        -1.0,
        -1.0,
        -1.0
      ]
    },
    {
      "bufferView": 2,
      "byteOffset": 0,
      "componentType": 5126,
      "normalized": false,
      "count": 3682,
      "type": "VEC2",
      "max": [
        0.9975391626358032,
        -0.0005402565002441406
      ],
      "min": [
        0.0005626678466796875,
        -0.99591064453125
      ]
    },
    {
      "bufferView": 3,
      "byteOffset": 0,
      "componentType": 5123,
      "normalized": false,
      "count": 6978,
      "type": "SCALAR",
      "max": [
        3681.0
      ],
      "min": [
        0.0
      ]
    }
  ],
  "asset": {
    "generator": "WCSaga Godot Converter",
    "version": "2.0"
  },
  "bufferViews": [
    {
      "buffer": 0,
      "byteOffset": 0,
      "byteLength": 44184,
      "target": 34962
    },
    {
      "buffer": 0,
      "byteOffset": 44184,
      "byteLength": 44184,
      "target": 34962
    },
    {
      "buffer": 0,
      "byteOffset": 88368,
      "byteLength": 29456,
      "target": 34962
    },
    {
      "buffer": 0,
      "byteOffset": 117824,
      "byteLength": 13956,
      "target": 34963
    }
  ],
  "buffers": [
    {
      "uri": "kib_paktahn_a.bin",
      "byteLength": 131780
    }
  ],
  "images": [
    {
      "uri": "kib_paktahn_a_1_albedo.png",
      "mimeType": "image/png",
      "name": "kib_paktahn_a_1_albedo_image"
    },
    {
      "uri": "kib_paktahn_a_1_orm.png",
      "mimeType": "image/png",
      "name": "kib_paktahn_a_1_orm_image"
    }
  ],
  "materials": [
    {
      "pbrMetallicRoughness": {
        "baseColorFactor": [
          1.0,
          1.0,
          1.0,
          1.0
        ],
        "metallicFactor": 0.15,
        "roughnessFactor": 0.75,
        "baseColorTexture": {
          "index": 0,
          "texCoord": 0
        },
        "metallicRoughnessTexture": {
          "index": 1,
          "texCoord": 0
        }
      },
      "occlusionTexture": {
        "index": 1,
        "texCoord": 0
      },
      "emissiveFactor": [
        0.0,
        0.0,
        0.0
      ],
      "alphaMode": "OPAQUE",
      "doubleSided": false,
      "name": "standard"
    }
  ],
  "meshes": [
    {
      "primitives": [
        {
          "attributes": {
            "POSITION": 0,
            "NORMAL": 1,
            "TEXCOORD_0": 2
          },
          "indices": 3,
          "mode": 4,
          "material": 0
        }
      ],
      "name": "ExportedMesh"
    }
  ],
  "nodes": [
    {
      "mesh": 0,
      "name": "Model"
    }
  ],
  "scene": 0,
  "scenes": [
    {
      "nodes": [
        0
      ]
    }
  ],
  "textures": [
    {
      "source": 0,
      "name": "kib_paktahn_a_1_albedo_texture"
    },
    {
      "source": 1,
      "name": "kib_paktahn_a_1_orm_texture"
    }
  ]
}