{
  "accessors": [
    {
      "bufferView": 0,
      "byteOffset": 0,
      "componentType": 5126,
      "normalized": false,
      "count": 1487,
      "type": "VEC3",
      "max": [
        0.21142500638961792,
        1.1000499725341797,
        0.2114260047674179
      ],
      "min": [
        -0.21142500638961792,
        -1.1000499725341797,
        -0.21142500638961792
      ]
    },
    {
      "bufferView": 1,
      "byteOffset": 0,
      "componentType": 5126,
      "normalized": false,
      "count": 1487,
      "type": "VEC3",
      "max": [
        1.0,
        1.0,
        1.0
      ],
      "min": [
        -1.0,
        -1.0,
        -1.0
      ]
    },
    {
      "bufferView": 2,
      "byteOffset": 0,
      "componentType": 5126,
      "normalized": false,
      "count": 1487,
      "type": "VEC2",
      "max": [
        0.9903879761695862,
        -0.010187029838562012
      ],
      "min": [
        0.010005000047385693,
        -0.99126797914505
      ]
    },
    {
      "bufferView": 3,
      "byteOffset": 0,
      "componentType": 5123,
      "normalized": false,
      "count": 3510,
      "type": "SCALAR",
      "max": [
        1486.0
      ],
      "min": [
        0.0
      ]
    }
  ],
  "asset": {
    "generator": "WCSaga Godot Converter",
    "version": "2.0"
  },
  "bufferViews": [
    {
      "buffer": 0,
      "byteOffset": 0,
      "byteLength": 17844,
      "target": 34962
    },
    {
      "buffer": 0,
      "byteOffset": 17844,
      "byteLength": 17844,
      "target": 34962
    },
    {
      "buffer": 0,
      "byteOffset": 35688,
      "byteLength": 11896,
      "target": 34962
    },
    {
      "buffer": 0,
      "byteOffset": 47584,
      "byteLength": 7020,
      "target": 34963
    }
  ],
  "buffers": [
    {
      "uri": "tcm_pilum.bin",
      "byteLength": 54604
    }
  ],
  "images": [
    {
      "uri": "tcm_pilum_albedo.png",
      "mimeType": "image/png",
      "name": "tcm_pilum_albedo_image"
    },
    {
      "uri": "tcm_pilum_orm.png",
      "mimeType": "image/png",
      "name": "tcm_pilum_orm_image"
    }
  ],
  "materials": [
    {
      "pbrMetallicRoughness": {
        "baseColorFactor": [
          1.0,
          1.0,
          1.0,
          1.0
        ],
        "metallicFactor": 0.15,
        "roughnessFactor": 0.75,
        "baseColorTexture": {
          "index": 0,
          "texCoord": 0
        },
        "metallicRoughnessTexture": {
          "index": 1,
          "texCoord": 0
        }
      },
      "occlusionTexture": {
        "index": 1,
        "texCoord": 0
      },
      "emissiveFactor": [
        0.0,
        0.0,
        0.0
      ],
      "alphaMode": "OPAQUE",
      "doubleSided": false,
      "name": "standard"
    }
  ],
  "meshes": [
    {
      "primitives": [
        {
          "attributes": {
            "POSITION": 0,
            "NORMAL": 1,
            "TEXCOORD_0": 2
          },
          "indices": 3,
          "mode": 4,
          "material": 0
        }
      ],
      "name": "ExportedMesh"
    }
  ],
  "nodes": [
    {
      "mesh": 0,
      "name": "Model"
    }
  ],
  "scene": 0,
  "scenes": [
    {
      "nodes": [
        0
      ]
    }
  ],
  "textures": [
    {
      "source": 0,
      "name": "tcm_pilum_albedo_texture"
    },
    {
      "source": 1,
      "name": "tcm_pilum_orm_texture"
    }
  ]
}