{
  "accessors": [
    {
      "bufferView": 0,
      "byteOffset": 0,
      "componentType": 5126,
      "normalized": false,
      "count": 9109,
      "type": "VEC3",
      "max": [
        17.815000534057617,
        27.785600662231445,
        8.291370391845703
      ],
      "min": [
        -17.815000534057617,
        -27.785600662231445,
        -8.291379928588867
      ]
    },
    {
      "bufferView": 1,
      "byteOffset": 0,
      "componentType": 5126,
      "normalized": false,
      "count": 9109,
      "type": "VEC3",
      "max": [
        1.0,
        1.0,
        1.0
      ],
      "min": [
        -1.0,
        -1.0,
        -1.0
      ]
    },
    {
      "bufferView": 2,
      "byteOffset": 0,
      "componentType": 5126,
      "normalized": false,
      "count": 9109,
      "type": "VEC2",
      "max": [
        0.9985529780387878,
        -0.004526972770690918
      ],
      "min": [
        0.0,
        -1.0
      ]
    },
    {
      "bufferView": 3,
      "byteOffset": 0,
      "componentType": 5123,
      "normalized": false,
      "count": 16368,
      "type": "SCALAR",
      "max": [
        9108.0
      ],
      "min": [
        0.0
      ]
    },
    {
      "bufferView": 4,
      "byteOffset": 0,
      "componentType": 5126,
      "normalized": false,
      "count": 4518,
      "type": "VEC3",
      "max": [
        17.815000534057617,
        27.09760093688965,
        8.291370391845703
      ],
      "min": [
        -17.815000534057617,
        -27.785600662231445,
        -8.291379928588867
      ]
    },
    {
      "bufferView": 5,
      "byteOffset": 0,
      "componentType": 5126,
      "normalized": false,
      "count": 4518,
      "type": "VEC3",
      "max": [
        1.0,
        1.0,
        1.0
      ],
      "min": [
        -1.0,
        -1.0,
        -1.0
      ]
    },
    {
      "bufferView": 6,
      "byteOffset": 0,
      "componentType": 5126,
      "normalized": false,
      "count": 4518,
      "type": "VEC2",
      "max": [
        0.9985529780387878,
        -0.004526972770690918
      ],
      "min": [
        0.0,
        -1.0
      ]
    },
    {
      "bufferView": 7,
      "byteOffset": 0,
      "componentType": 5123,
      "normalized": false,
      "count": 8520,
      "type": "SCALAR",
      "max": [
        4517.0
      ],
      "min": [
        0.0
      ]
    },
    {
      "bufferView": 8,
      "byteOffset": 0,
      "componentType": 5126,
      "normalized": false,
      "count": 1356,
      "type": "VEC3",
      "max": [
        17.815000534057617,
        26.98940086364746,
        8.291370391845703
      ],
      "min": [
        -17.815000534057617,
        -27.785600662231445,
        -8.291379928588867
      ]
    },
    {
      "bufferView": 9,
      "byteOffset": 0,
      "componentType": 5126,
      "normalized": false,
      "count": 1356,
      "type": "VEC3",
      "max": [
        1.0,
        1.0,
        1.0
      ],
      "min": [
        -1.0,
        -1.0,
        -1.0
      ]
    },
    {
      "bufferView": 10,
      "byteOffset": 0,
      "componentType": 5126,
      "normalized": false,
      "count": 1356,
      "type": "VEC2",
      "max": [
        0.9985529780387878,
        -0.004526972770690918
      ],
      "min": [
        0.0036869999021291733,
        -0.9987580180168152
      ]
    },
    {
      "bufferView": 11,
      "byteOffset": 0,
      "componentType": 5123,
      "normalized": false,
      "count": 2610,
      "type": "SCALAR",
      "max": [
        1355.0
      ],
      "min": [
        0.0
      ]
    },
    {
      "bufferView": 12,
      "byteOffset": 0,
      "componentType": 5126,
      "normalized": false,
      "count": 466,
      "type": "VEC3",
      "max": [
        17.546100616455078,
        26.98940086364746,
        8.291370391845703
      ],
      "min": [
        -17.546100616455078,
        -27.785600662231445,
        -6.482460021972656
      ]
    },
    {
      "bufferView": 13,
      "byteOffset": 0,
      "componentType": 5126,
      "normalized": false,
      "count": 466,
      "type": "VEC3",
      "max": [
        0.9991962729865053,
        1.0,
        1.0
      ],
      "min": [
        -0.9991962729865053,
        -1.0,
        -1.0
      ]
    },
    {
      "bufferView": 14,
      "byteOffset": 0,
      "componentType": 5126,
      "normalized": false,
      "count": 466,
      "type": "VEC2",
      "max": [
        0.9997339844703674,
        -0.008121013641357422
      ],
      "min": [
        0.0036869999021291733,
        -0.9891210198402405
      ]
    },
    {
      "bufferView": 15,
      "byteOffset": 0,
      "componentType": 5123,
      "normalized": false,
      "count": 882,
      "type": "SCALAR",
      "max": [
        465.0
      ],
      "min": [
        0.0
      ]
    }
  ],
  "asset": {
    "generator": "WCSaga Godot Converter",
    "version": "2.0"
  },
  "bufferViews": [
    {
      "buffer": 0,
      "byteOffset": 0,
      "byteLength": 109308,
      "target": 34962
    },
    {
      "buffer": 0,
      "byteOffset": 109308,
      "byteLength": 109308,
      "target": 34962
    },
    {
      "buffer": 0,
      "byteOffset": 218616,
      "byteLength": 72872,
      "target": 34962
    },
    {
      "buffer": 0,
      "byteOffset": 291488,
      "byteLength": 32736,
      "target": 34963
    },
    {
      "buffer": 0,
      "byteOffset": 324224,
      "byteLength": 54216,
      "target": 34962
    },
    {
      "buffer": 0,
      "byteOffset": 378440,
      "byteLength": 54216,
      "target": 34962
    },
    {
      "buffer": 0,
      "byteOffset": 432656,
      "byteLength": 36144,
      "target": 34962
    },
    {
      "buffer": 0,
      "byteOffset": 468800,
      "byteLength": 17040,
      "target": 34963
    },
    {
      "buffer": 0,
      "byteOffset": 485840,
      "byteLength": 16272,
      "target": 34962
    },
    {
      "buffer": 0,
      "byteOffset": 502112,
      "byteLength": 16272,
      "target": 34962
    },
    {
      "buffer": 0,
      "byteOffset": 518384,
      "byteLength": 10848,
      "target": 34962
    },
    {
      "buffer": 0,
      "byteOffset": 529232,
      "byteLength": 5220,
      "target": 34963
    },
    {
      "buffer": 0,
      "byteOffset": 534452,
      "byteLength": 5592,
      "target": 34962
    },
    {
      "buffer": 0,
      "byteOffset": 540044,
      "byteLength": 5592,
      "target": 34962
    },
    {
      "buffer": 0,
      "byteOffset": 545636,
      "byteLength": 3728,
      "target": 34962
    },
    {
      "buffer": 0,
      "byteOffset": 549364,
      "byteLength": 1764,
      "target": 34963
    }
  ],
  "buffers": [
    {
      "uri": "tcs_artemis-lod3.bin",
      "byteLength": 551128
    }
  ],
  "materials": [
    {
      "pbrMetallicRoughness": {
        "baseColorFactor": [
          1.0,
          1.0,
          1.0,
          1.0
        ],
        "metallicFactor": 0.15,
        "roughnessFactor": 0.75
      },
      "emissiveFactor": [
        0.0,
        0.0,
        0.0
      ],
      "alphaMode": "OPAQUE",
      "doubleSided": false,
      "name": "standard"
    },
    {
      "pbrMetallicRoughness": {
        "baseColorFactor": [
          1.0,
          1.0,
          1.0,
          1.0
        ],
        "metallicFactor": 0.15,
        "roughnessFactor": 0.75
      },
      "emissiveFactor": [
        0.0,
        0.0,
        0.0
      ],
      "alphaMode": "OPAQUE",
      "doubleSided": false,
      "name": "standard"
    },
    {
      "pbrMetallicRoughness": {
        "baseColorFactor": [
          1.0,
          1.0,
          1.0,
          1.0
        ],
        "metallicFactor": 0.15,
        "roughnessFactor": 0.75
      },
      "emissiveFactor": [
        0.0,
        0.0,
        0.0
      ],
      "alphaMode": "OPAQUE",
      "doubleSided": false,
      "name": "standard"
    }
  ],
  "meshes": [
    {
      "primitives": [
        {
          "attributes": {
            "POSITION": 12,
            "NORMAL": 13,
            "TEXCOORD_0": 14
          },
          "indices": 15,
          "mode": 4,
          "material": 0
        }
      ],
      "name": "ExportedMesh"
    }
  ],
  "nodes": [
    {
      "mesh": 0,
      "name": "Model"
    }
  ],
  "scene": 0,
  "scenes": [
    {
      "nodes": [
        0
      ]
    }
  ]
}