{
  "accessors": [
    {
      "bufferView": 0,
      "byteOffset": 0,
      "componentType": 5126,
      "normalized": false,
      "count": 6531,
      "type": "VEC3",
      "max": [
        5.149209976196289,
        7.828030109405518,
        1.710360050201416
      ],
      "min": [
        -5.149209976196289,
        -8.011280059814453,
        -1.710360050201416
      ]
    },
    {
      "bufferView": 1,
      "byteOffset": 0,
      "componentType": 5126,
      "normalized": false,
      "count": 6531,
      "type": "VEC3",
      "max": [
        1.0,
        1.0,
        0.9999451775521077
      ],
      "min": [
        -1.0,
        -0.9999451775521077,
        -0.9999910492791748
      ]
    },
    {
      "bufferView": 2,
      "byteOffset": 0,
      "componentType": 5126,
      "normalized": false,
      "count": 6531,
      "type": "VEC2",
      "max": [
        0.9920949935913086,
        -0.0125960111618042
      ],
      "min": [
        0.006577000021934509,
        -0.9907870292663574
      ]
    },
    {
      "bufferView": 3,
      "byteOffset": 0,
      "componentType": 5123,
      "normalized": false,
      "count": 11742,
      "type": "SCALAR",
      "max": [
        6530.0
      ],
      "min": [
        0.0
      ]
    },
    {
      "bufferView": 4,
      "byteOffset": 0,
      "componentType": 5126,
      "normalized": false,
      "count": 1786,
      "type": "VEC3",
      "max": [
        5.149209976196289,
        7.8020501136779785,
        1.710360050201416
      ],
      "min": [
        -5.149209976196289,
        -8.011289596557617,
        -1.710360050201416
      ]
    },
    {
      "bufferView": 5,
      "byteOffset": 0,
      "componentType": 5126,
      "normalized": false,
      "count": 1786,
      "type": "VEC3",
      "max": [
        1.0,
        1.0,
        1.0
      ],
      "min": [
        -1.0,
        -0.9999484570184443,
        -1.0
      ]
    },
    {
      "bufferView": 6,
      "byteOffset": 0,
      "componentType": 5126,
      "normalized": false,
      "count": 1786,
      "type": "VEC2",
      "max": [
        0.9920949935913086,
        -0.0125960111618042
      ],
      "min": [
        0.006577000021934509,
        -0.9907780289649963
      ]
    },
    {
      "bufferView": 7,
      "byteOffset": 0,
      "componentType": 5123,
      "normalized": false,
      "count": 3240,
      "type": "SCALAR",
      "max": [
        1785.0
      ],
      "min": [
        0.0
      ]
    },
    {
      "bufferView": 8,
      "byteOffset": 0,
      "componentType": 5126,
      "normalized": false,
      "count": 214,
      "type": "VEC3",
      "max": [
        5.149209976196289,
        7.628699779510498,
        1.7101999521255493
      ],
      "min": [
        -5.149209976196289,
        -7.957190036773682,
        -1.7101999521255493
      ]
    },
    {
      "bufferView": 9,
      "byteOffset": 0,
      "componentType": 5126,
      "normalized": false,
      "count": 214,
      "type": "VEC3",
      "max": [
        1.0,
        0.9997955146227434,
        0.999901813136169
      ],
      "min": [
        -1.0,
        -0.9999427747887998,
        -0.9999734931434971
      ]
    },
    {
      "bufferView": 10,
      "byteOffset": 0,
      "componentType": 5126,
      "normalized": false,
      "count": 214,
      "type": "VEC2",
      "max": [
        0.9920949935913086,
        -0.014299988746643066
      ],
      "min": [
        0.013484000228345394,
        -0.990772008895874
      ]
    },
    {
      "bufferView": 11,
      "byteOffset": 0,
      "componentType": 5123,
      "normalized": false,
      "count": 366,
      "type": "SCALAR",
      "max": [
        213.0
      ],
      "min": [
        0.0
      ]
    }
  ],
  "asset": {
    "generator": "WCSaga Godot Converter",
    "version": "2.0"
  },
  "bufferViews": [
    {
      "buffer": 0,
      "byteOffset": 0,
      "byteLength": 78372,
      "target": 34962
    },
    {
      "buffer": 0,
      "byteOffset": 78372,
      "byteLength": 78372,
      "target": 34962
    },
    {
      "buffer": 0,
      "byteOffset": 156744,
      "byteLength": 52248,
      "target": 34962
    },
    {
      "buffer": 0,
      "byteOffset": 208992,
      "byteLength": 23484,
      "target": 34963
    },
    {
      "buffer": 0,
      "byteOffset": 232476,
      "byteLength": 21432,
      "target": 34962
    },
    {
      "buffer": 0,
      "byteOffset": 253908,
      "byteLength": 21432,
      "target": 34962
    },
    {
      "buffer": 0,
      "byteOffset": 275340,
      "byteLength": 14288,
      "target": 34962
    },
    {
      "buffer": 0,
      "byteOffset": 289628,
      "byteLength": 6480,
      "target": 34963
    },
    {
      "buffer": 0,
      "byteOffset": 296108,
      "byteLength": 2568,
      "target": 34962
    },
    {
      "buffer": 0,
      "byteOffset": 298676,
      "byteLength": 2568,
      "target": 34962
    },
    {
      "buffer": 0,
      "byteOffset": 301244,
      "byteLength": 1712,
      "target": 34962
    },
    {
      "buffer": 0,
      "byteOffset": 302956,
      "byteLength": 732,
      "target": 34963
    }
  ],
  "buffers": [
    {
      "uri": "tcf_hellcat_v-lod2.bin",
      "byteLength": 303688
    }
  ],
  "images": [
    {
      "uri": "tcf_hellcat_v_albedo.png",
      "mimeType": "image/png",
      "name": "tcf_hellcat_v_albedo_image"
    },
    {
      "uri": "tcf_hellcat_v_normal.png",
      "mimeType": "image/png",
      "name": "tcf_hellcat_v_normal_image"
    },
    {
      "uri": "tcf_hellcat_v_glow.png",
      "mimeType": "image/png",
      "name": "tcf_hellcat_v_glow_image"
    },
    {
      "uri": "tcf_hellcat_v_orm.png",
      "mimeType": "image/png",
      "name": "tcf_hellcat_v_orm_image"
    }
  ],
  "materials": [
    {
      "pbrMetallicRoughness": {
        "baseColorFactor": [
          1.0,
          1.0,
          1.0,
          1.0
        ],
        "metallicFactor": 0.15,
        "roughnessFactor": 0.75,
        "baseColorTexture": {
          "index": 0,
          "texCoord": 0
        },
        "metallicRoughnessTexture": {
          "index": 3,
          "texCoord": 0
        }
      },
      "normalTexture": {
        "index": 1,
        "texCoord": 0
      },
      "occlusionTexture": {
        "index": 3,
        "texCoord": 0
      },
      "emissiveFactor": [
        1.0,
        1.0,
        1.0
      ],
      "emissiveTexture": {
        "index": 2,
        "texCoord": 0
      },
      "alphaMode": "OPAQUE",
      "doubleSided": false,
      "name": "standard"
    }
  ],
  "meshes": [
    {
      "primitives": [
        {
          "attributes": {
            "POSITION": 8,
            "NORMAL": 9,
            "TEXCOORD_0": 10
          },
          "indices": 11,
          "mode": 4,
          "material": 0
        }
      ],
      "name": "ExportedMesh"
    }
  ],
  "nodes": [
    {
      "mesh": 0,
      "name": "Model"
    }
  ],
  "scene": 0,
  "scenes": [
    {
      "nodes": [
        0
      ]
    }
  ],
  "textures": [
    {
      "source": 0,
      "name": "tcf_hellcat_v_albedo_texture"
    },
    {
      "source": 1,
      "name": "tcf_hellcat_v_normal_texture"
    },
    {
      "source": 2,
      "name": "tcf_hellcat_v_glow_texture"
    },
    {
      "source": 3,
      "name": "tcf_hellcat_v_orm_texture"
    }
  ]
}