{
  "accessors": [
    {
      "bufferView": 0,
      "byteOffset": 0,
      "componentType": 5126,
      "normalized": false,
      "count": 261,
      "type": "VEC3",
      "max": [
        2.5139200687408447,
        3.7844300270080566,
        1.4285999536514282
      ],
      "min": [
        -2.5139200687408447,
        -3.7844300270080566,
        -1.4285999536514282
      ]
    },
    {
      "bufferView": 1,
      "byteOffset": 0,
      "componentType": 5126,
      "normalized": false,
      "count": 261,
      "type": "VEC3",
      "max": [
        0.9999997815830247,
        0.9999481567051496,
        0.9999419429543566
      ],
      "min": [
        -0.9999999643114295,
        -0.981689212279792,
        -0.9990533218291808
      ]
    },
    {
      "bufferView": 2,
      "byteOffset": 0,
      "componentType": 5126,
      "normalized": false,
      "count": 261,
      "type": "VEC2",
      "max": [
        0.9746450185775757,
        -0.015253007411956787
      ],
      "min": [
        0.04758070036768913,
        -0.923429012298584
      ]
    },
    {
      "bufferView": 3,
      "byteOffset": 0,
      "componentType": 5123,
      "normalized": false,
      "count": 600,
      "type": "SCALAR",
      "max": [
        260.0
      ],
      "min": [
        0.0
      ]
    }
  ],
  "asset": {
    "generator": "WCSaga Godot Converter",
    "version": "2.0"
  },
  "bufferViews": [
    {
      "buffer": 0,
      "byteOffset": 0,
      "byteLength": 3132,
      "target": 34962
    },
    {
      "buffer": 0,
      "byteOffset": 3132,
      "byteLength": 3132,
      "target": 34962
    },
    {
      "buffer": 0,
      "byteOffset": 6264,
      "byteLength": 2088,
      "target": 34962
    },
    {
      "buffer": 0,
      "byteOffset": 8352,
      "byteLength": 1200,
      "target": 34963
    }
  ],
  "buffers": [
    {
      "uri": "misc_cdebris03.bin",
      "byteLength": 9552
    }
  ],
  "materials": [
    {
      "pbrMetallicRoughness": {
        "baseColorFactor": [
          1.0,
          1.0,
          1.0,
          1.0
        ],
        "metallicFactor": 0.15,
        "roughnessFactor": 0.75
      },
      "emissiveFactor": [
        0.0,
        0.0,
        0.0
      ],
      "alphaMode": "OPAQUE",
      "doubleSided": false,
      "name": "standard"
    },
    {
      "pbrMetallicRoughness": {
        "baseColorFactor": [
          1.0,
          1.0,
          1.0,
          1.0
        ],
        "metallicFactor": 0.15,
        "roughnessFactor": 0.75
      },
      "emissiveFactor": [
        0.0,
        0.0,
        0.0
      ],
      "alphaMode": "OPAQUE",
      "doubleSided": false,
      "name": "standard"
    }
  ],
  "meshes": [
    {
      "primitives": [
        {
          "attributes": {
            "POSITION": 0,
            "NORMAL": 1,
            "TEXCOORD_0": 2
          },
          "indices": 3,
          "mode": 4,
          "material": 0
        }
      ],
      "name": "ExportedMesh"
    }
  ],
  "nodes": [
    {
      "mesh": 0,
      "name": "Model"
    }
  ],
  "scene": 0,
  "scenes": [
    {
      "nodes": [
        0
      ]
    }
  ]
}