{
  "accessors": [
    {
      "bufferView": 0,
      "byteOffset": 0,
      "componentType": 5126,
      "normalized": false,
      "count": 2752,
      "type": "VEC3",
      "max": [
        1.6047099828720093,
        2.3973801136016846,
        1.6047099828720093
      ],
      "min": [
        -1.6047099828720093,
        -2.3973801136016846,
        -1.6047099828720093
      ]
    },
    {
      "bufferView": 1,
      "byteOffset": 0,
      "componentType": 5126,
      "normalized": false,
      "count": 2752,
      "type": "VEC3",
      "max": [
        1.0,
        1.0,
        1.0
      ],
      "min": [
        -1.0,
        -1.0,
        -1.0
      ]
    },
    {
      "bufferView": 2,
      "byteOffset": 0,
      "componentType": 5126,
      "normalized": false,
      "count": 2752,
      "type": "VEC2",
      "max": [
        0.9836570024490356,
        -0.028963983058929443
      ],
      "min": [
        0.014990000054240227,
        -0.9848170280456543
      ]
    },
    {
      "bufferView": 3,
      "byteOffset": 0,
      "componentType": 5123,
      "normalized": false,
      "count": 7938,
      "type": "SCALAR",
      "max": [
        2751.0
      ],
      "min": [
        0.0
      ]
    }
  ],
  "asset": {
    "generator": "WCSaga Godot Converter",
    "version": "2.0"
  },
  "bufferViews": [
    {
      "buffer": 0,
      "byteOffset": 0,
      "byteLength": 33024,
      "target": 34962
    },
    {
      "buffer": 0,
      "byteOffset": 33024,
      "byteLength": 33024,
      "target": 34962
    },
    {
      "buffer": 0,
      "byteOffset": 66048,
      "byteLength": 22016,
      "target": 34962
    },
    {
      "buffer": 0,
      "byteOffset": 88064,
      "byteLength": 15876,
      "target": 34963
    }
  ],
  "buffers": [
    {
      "uri": "tcm_porcupine.bin",
      "byteLength": 103940
    }
  ],
  "images": [
    {
      "uri": "tcm_porcupine_1_albedo.png",
      "mimeType": "image/png",
      "name": "tcm_porcupine_1_albedo_image"
    },
    {
      "uri": "tcm_porcupine_1_orm.png",
      "mimeType": "image/png",
      "name": "tcm_porcupine_1_orm_image"
    }
  ],
  "materials": [
    {
      "pbrMetallicRoughness": {
        "baseColorFactor": [
          1.0,
          1.0,
          1.0,
          1.0
        ],
        "metallicFactor": 0.15,
        "roughnessFactor": 0.75,
        "baseColorTexture": {
          "index": 0,
          "texCoord": 0
        },
        "metallicRoughnessTexture": {
          "index": 1,
          "texCoord": 0
        }
      },
      "occlusionTexture": {
        "index": 1,
        "texCoord": 0
      },
      "emissiveFactor": [
        0.0,
        0.0,
        0.0
      ],
      "alphaMode": "OPAQUE",
      "doubleSided": false,
      "name": "standard"
    }
  ],
  "meshes": [
    {
      "primitives": [
        {
          "attributes": {
            "POSITION": 0,
            "NORMAL": 1,
            "TEXCOORD_0": 2
          },
          "indices": 3,
          "mode": 4,
          "material": 0
        }
      ],
      "name": "ExportedMesh"
    }
  ],
  "nodes": [
    {
      "mesh": 0,
      "name": "Model"
    }
  ],
  "scene": 0,
  "scenes": [
    {
      "nodes": [
        0
      ]
    }
  ],
  "textures": [
    {
      "source": 0,
      "name": "tcm_porcupine_1_albedo_texture"
    },
    {
      "source": 1,
      "name": "tcm_porcupine_1_orm_texture"
    }
  ]
}