{
  "accessors": [
    {
      "bufferView": 0,
      "byteOffset": 0,
      "componentType": 5126,
      "normalized": false,
      "count": 1408,
      "type": "VEC3",
      "max": [
        0.632224977016449,
        3.498430013656616,
        0.5644850134849548
      ],
      "min": [
        -0.632224977016449,
        -3.498430013656616,
        -0.5644850134849548
      ]
    },
    {
      "bufferView": 1,
      "byteOffset": 0,
      "componentType": 5126,
      "normalized": false,
      "count": 1408,
      "type": "VEC3",
      "max": [
        1.0,
        1.0,
        1.0
      ],
      "min": [
        -1.0,
        -1.0,
        -1.0
      ]
    },
    {
      "bufferView": 2,
      "byteOffset": 0,
      "componentType": 5126,
      "normalized": false,
      "count": 1408,
      "type": "VEC2",
      "max": [
        0.9919610023498535,
        -0.010056018829345703
      ],
      "min": [
        0.006022999994456768,
        -0.9902849793434143
      ]
    },
    {
      "bufferView": 3,
      "byteOffset": 0,
      "componentType": 5123,
      "normalized": false,
      "count": 3546,
      "type": "SCALAR",
      "max": [
        1407.0
      ],
      "min": [
        0.0
      ]
    }
  ],
  "asset": {
    "generator": "WCSaga Godot Converter",
    "version": "2.0"
  },
  "bufferViews": [
    {
      "buffer": 0,
      "byteOffset": 0,
      "byteLength": 16896,
      "target": 34962
    },
    {
      "buffer": 0,
      "byteOffset": 16896,
      "byteLength": 16896,
      "target": 34962
    },
    {
      "buffer": 0,
      "byteOffset": 33792,
      "byteLength": 11264,
      "target": 34962
    },
    {
      "buffer": 0,
      "byteOffset": 45056,
      "byteLength": 7092,
      "target": 34963
    }
  ],
  "buffers": [
    {
      "uri": "tcm_lance.bin",
      "byteLength": 52148
    }
  ],
  "images": [
    {
      "uri": "tcm_lance_albedo.png",
      "mimeType": "image/png",
      "name": "tcm_lance_albedo_image"
    },
    {
      "uri": "tcm_lance_orm.png",
      "mimeType": "image/png",
      "name": "tcm_lance_orm_image"
    }
  ],
  "materials": [
    {
      "pbrMetallicRoughness": {
        "baseColorFactor": [
          1.0,
          1.0,
          1.0,
          1.0
        ],
        "metallicFactor": 0.15,
        "roughnessFactor": 0.75,
        "baseColorTexture": {
          "index": 0,
          "texCoord": 0
        },
        "metallicRoughnessTexture": {
          "index": 1,
          "texCoord": 0
        }
      },
      "occlusionTexture": {
        "index": 1,
        "texCoord": 0
      },
      "emissiveFactor": [
        0.0,
        0.0,
        0.0
      ],
      "alphaMode": "OPAQUE",
      "doubleSided": false,
      "name": "standard"
    }
  ],
  "meshes": [
    {
      "primitives": [
        {
          "attributes": {
            "POSITION": 0,
            "NORMAL": 1,
            "TEXCOORD_0": 2
          },
          "indices": 3,
          "mode": 4,
          "material": 0
        }
      ],
      "name": "ExportedMesh"
    }
  ],
  "nodes": [
    {
      "mesh": 0,
      "name": "Model"
    }
  ],
  "scene": 0,
  "scenes": [
    {
      "nodes": [
        0
      ]
    }
  ],
  "textures": [
    {
      "source": 0,
      "name": "tcm_lance_albedo_texture"
    },
    {
      "source": 1,
      "name": "tcm_lance_orm_texture"
    }
  ]
}