{
  "accessors": [
    {
      "bufferView": 0,
      "byteOffset": 0,
      "componentType": 5126,
      "normalized": false,
      "count": 1570,
      "type": "VEC3",
      "max": [
        672.8049926757812,
        354.0639953613281,
        574.5640258789062
      ],
      "min": [
        -624.0390014648438,
        -446.2909851074219,
        -569.9439697265625
      ]
    },
    {
      "bufferView": 1,
      "byteOffset": 0,
      "componentType": 5126,
      "normalized": false,
      "count": 1570,
      "type": "VEC3",
      "max": [
        1.0,
        1.0,
        1.0
      ],
      "min": [
        -1.0,
        -1.0,
        -1.0
      ]
    },
    {
      "bufferView": 2,
      "byteOffset": 0,
      "componentType": 5126,
      "normalized": false,
      "count": 1570,
      "type": "VEC2",
      "max": [
        0.9989839792251587,
        -0.0015900135040283203
      ],
      "min": [
        0.0013129999861121178,
        -0.999862015247345
      ]
    },
    {
      "bufferView": 3,
      "byteOffset": 0,
      "componentType": 5123,
      "normalized": false,
      "count": 2964,
      "type": "SCALAR",
      "max": [
        1569.0
      ],
      "min": [
        0.0
      ]
    },
    {
      "bufferView": 4,
      "byteOffset": 0,
      "componentType": 5126,
      "normalized": false,
      "count": 1570,
      "type": "VEC3",
      "max": [
        672.8049926757812,
        354.0639953613281,
        574.5640258789062
      ],
      "min": [
        -624.0390014648438,
        -446.2909851074219,
        -569.9439697265625
      ]
    },
    {
      "bufferView": 5,
      "byteOffset": 0,
      "componentType": 5126,
      "normalized": false,
      "count": 1570,
      "type": "VEC3",
      "max": [
        1.0,
        1.0,
        1.0
      ],
      "min": [
        -1.0,
        -1.0,
        -1.0
      ]
    },
    {
      "bufferView": 6,
      "byteOffset": 0,
      "componentType": 5126,
      "normalized": false,
      "count": 1570,
      "type": "VEC2",
      "max": [
        0.9989839792251587,
        -0.0015900135040283203
      ],
      "min": [
        0.0013129999861121178,
        -0.999862015247345
      ]
    },
    {
      "bufferView": 7,
      "byteOffset": 0,
      "componentType": 5123,
      "normalized": false,
      "count": 2964,
      "type": "SCALAR",
      "max": [
        1569.0
      ],
      "min": [
        0.0
      ]
    },
    {
      "bufferView": 8,
      "byteOffset": 0,
      "componentType": 5126,
      "normalized": false,
      "count": 1570,
      "type": "VEC3",
      "max": [
        672.8049926757812,
        354.0639953613281,
        574.5640258789062
      ],
      "min": [
        -624.0390014648438,
        -446.2909851074219,
        -569.9439697265625
      ]
    },
    {
      "bufferView": 9,
      "byteOffset": 0,
      "componentType": 5126,
      "normalized": false,
      "count": 1570,
      "type": "VEC3",
      "max": [
        1.0,
        1.0,
        1.0
      ],
      "min": [
        -1.0,
        -1.0,
        -1.0
      ]
    },
    {
      "bufferView": 10,
      "byteOffset": 0,
      "componentType": 5126,
      "normalized": false,
      "count": 1570,
      "type": "VEC2",
      "max": [
        0.9989839792251587,
        -0.0015900135040283203
      ],
      "min": [
        0.0013129999861121178,
        -0.999862015247345
      ]
    },
    {
      "bufferView": 11,
      "byteOffset": 0,
      "componentType": 5123,
      "normalized": false,
      "count": 2964,
      "type": "SCALAR",
      "max": [
        1569.0
      ],
      "min": [
        0.0
      ]
    },
    {
      "bufferView": 12,
      "byteOffset": 0,
      "componentType": 5126,
      "normalized": false,
      "count": 1570,
      "type": "VEC3",
      "max": [
        672.8049926757812,
        354.0639953613281,
        574.5640258789062
      ],
      "min": [
        -624.0390014648438,
        -446.2909851074219,
        -569.9439697265625
      ]
    },
    {
      "bufferView": 13,
      "byteOffset": 0,
      "componentType": 5126,
      "normalized": false,
      "count": 1570,
      "type": "VEC3",
      "max": [
        1.0,
        1.0,
        1.0
      ],
      "min": [
        -1.0,
        -1.0,
        -1.0
      ]
    },
    {
      "bufferView": 14,
      "byteOffset": 0,
      "componentType": 5126,
      "normalized": false,
      "count": 1570,
      "type": "VEC2",
      "max": [
        0.9989839792251587,
        -0.0015900135040283203
      ],
      "min": [
        0.0013129999861121178,
        -0.999862015247345
      ]
    },
    {
      "bufferView": 15,
      "byteOffset": 0,
      "componentType": 5123,
      "normalized": false,
      "count": 2964,
      "type": "SCALAR",
      "max": [
        1569.0
      ],
      "min": [
        0.0
      ]
    }
  ],
  "asset": {
    "generator": "WCSaga Godot Converter",
    "version": "2.0"
  },
  "bufferViews": [
    {
      "buffer": 0,
      "byteOffset": 0,
      "byteLength": 18840,
      "target": 34962
    },
    {
      "buffer": 0,
      "byteOffset": 18840,
      "byteLength": 18840,
      "target": 34962
    },
    {
      "buffer": 0,
      "byteOffset": 37680,
      "byteLength": 12560,
      "target": 34962
    },
    {
      "buffer": 0,
      "byteOffset": 50240,
      "byteLength": 5928,
      "target": 34963
    },
    {
      "buffer": 0,
      "byteOffset": 56168,
      "byteLength": 18840,
      "target": 34962
    },
    {
      "buffer": 0,
      "byteOffset": 75008,
      "byteLength": 18840,
      "target": 34962
    },
    {
      "buffer": 0,
      "byteOffset": 93848,
      "byteLength": 12560,
      "target": 34962
    },
    {
      "buffer": 0,
      "byteOffset": 106408,
      "byteLength": 5928,
      "target": 34963
    },
    {
      "buffer": 0,
      "byteOffset": 112336,
      "byteLength": 18840,
      "target": 34962
    },
    {
      "buffer": 0,
      "byteOffset": 131176,
      "byteLength": 18840,
      "target": 34962
    },
    {
      "buffer": 0,
      "byteOffset": 150016,
      "byteLength": 12560,
      "target": 34962
    },
    {
      "buffer": 0,
      "byteOffset": 162576,
      "byteLength": 5928,
      "target": 34963
    },
    {
      "buffer": 0,
      "byteOffset": 168504,
      "byteLength": 18840,
      "target": 34962
    },
    {
      "buffer": 0,
      "byteOffset": 187344,
      "byteLength": 18840,
      "target": 34962
    },
    {
      "buffer": 0,
      "byteOffset": 206184,
      "byteLength": 12560,
      "target": 34962
    },
    {
      "buffer": 0,
      "byteOffset": 218744,
      "byteLength": 5928,
      "target": 34963
    }
  ],
  "buffers": [
    {
      "uri": "kb_asteroid_base-lod3.bin",
      "byteLength": 224672
    }
  ],
  "materials": [
    {
      "pbrMetallicRoughness": {
        "baseColorFactor": [
          1.0,
          1.0,
          1.0,
          1.0
        ],
        "metallicFactor": 0.15,
        "roughnessFactor": 0.75
      },
      "emissiveFactor": [
        0.0,
        0.0,
        0.0
      ],
      "alphaMode": "OPAQUE",
      "doubleSided": false,
      "name": "standard"
    },
    {
      "pbrMetallicRoughness": {
        "baseColorFactor": [
          1.0,
          1.0,
          1.0,
          1.0
        ],
        "metallicFactor": 0.15,
        "roughnessFactor": 0.75
      },
      "emissiveFactor": [
        0.0,
        0.0,
        0.0
      ],
      "alphaMode": "OPAQUE",
      "doubleSided": false,
      "name": "standard"
    },
    {
      "pbrMetallicRoughness": {
        "baseColorFactor": [
          1.0,
          1.0,
          1.0,
          1.0
        ],
        "metallicFactor": 0.15,
        "roughnessFactor": 0.75
      },
      "emissiveFactor": [
        0.0,
        0.0,
        0.0
      ],
      "alphaMode": "OPAQUE",
      "doubleSided": false,
      "name": "standard"
    },
    {
      "pbrMetallicRoughness": {
        "baseColorFactor": [
          1.0,
          1.0,
          1.0,
          1.0
        ],
        "metallicFactor": 0.15,
        "roughnessFactor": 0.75
      },
      "emissiveFactor": [
        0.0,
        0.0,
        0.0
      ],
      "alphaMode": "OPAQUE",
      "doubleSided": false,
      "name": "standard"
    },
    {
      "pbrMetallicRoughness": {
        "baseColorFactor": [
          1.0,
          1.0,
          1.0,
          1.0
        ],
        "metallicFactor": 0.15,
        "roughnessFactor": 0.75
      },
      "emissiveFactor": [
        0.0,
        0.0,
        0.0
      ],
      "alphaMode": "OPAQUE",
      "doubleSided": false,
      "name": "standard"
    },
    {
      "pbrMetallicRoughness": {
        "baseColorFactor": [
          1.0,
          1.0,
          1.0,
          1.0
        ],
        "metallicFactor": 0.15,
        "roughnessFactor": 0.75
      },
      "emissiveFactor": [
        0.0,
        0.0,
        0.0
      ],
      "alphaMode": "OPAQUE",
      "doubleSided": false,
      "name": "standard"
    },
    {
      "pbrMetallicRoughness": {
        "baseColorFactor": [
          1.0,
          1.0,
          1.0,
          1.0
        ],
        "metallicFactor": 0.15,
        "roughnessFactor": 0.75
      },
      "emissiveFactor": [
        0.0,
        0.0,
        0.0
      ],
      "alphaMode": "OPAQUE",
      "doubleSided": false,
      "name": "standard"
    },
    {
      "pbrMetallicRoughness": {
        "baseColorFactor": [
          1.0,
          1.0,
          1.0,
          1.0
        ],
        "metallicFactor": 0.15,
        "roughnessFactor": 0.75
      },
      "emissiveFactor": [
        0.0,
        0.0,
        0.0
      ],
      "alphaMode": "OPAQUE",
      "doubleSided": false,
      "name": "standard"
    },
    {
      "pbrMetallicRoughness": {
        "baseColorFactor": [
          1.0,
          1.0,
          1.0,
          1.0
        ],
        "metallicFactor": 0.15,
        "roughnessFactor": 0.75
      },
      "emissiveFactor": [
        0.0,
        0.0,
        0.0
      ],
      "alphaMode": "OPAQUE",
      "doubleSided": false,
      "name": "standard"
    },
    {
      "pbrMetallicRoughness": {
        "baseColorFactor": [
          1.0,
          1.0,
          1.0,
          1.0
        ],
        "metallicFactor": 0.15,
        "roughnessFactor": 0.75
      },
      "emissiveFactor": [
        0.0,
        0.0,
        0.0
      ],
      "alphaMode": "OPAQUE",
      "doubleSided": false,
      "name": "standard"
    },
    {
      "pbrMetallicRoughness": {
        "baseColorFactor": [
          1.0,
          1.0,
          1.0,
          1.0
        ],
        "metallicFactor": 0.15,
        "roughnessFactor": 0.75
      },
      "emissiveFactor": [
        0.0,
        0.0,
        0.0
      ],
      "alphaMode": "OPAQUE",
      "doubleSided": false,
      "name": "standard"
    }
  ],
  "meshes": [
    {
      "primitives": [
        {
          "attributes": {
            "POSITION": 12,
            "NORMAL": 13,
            "TEXCOORD_0": 14
          },
          "indices": 15,
          "mode": 4,
          "material": 0
        }
      ],
      "name": "ExportedMesh"
    }
  ],
  "nodes": [
    {
      "mesh": 0,
      "name": "Model"
    }
  ],
  "scene": 0,
  "scenes": [
    {
      "nodes": [
        0
      ]
    }
  ]
}