{
  "accessors": [
    {
      "bufferView": 0,
      "byteOffset": 0,
      "componentType": 5126,
      "normalized": false,
      "count": 10640,
      "type": "VEC3",
      "max": [
        56.25,
        181.7449951171875,
        47.75619888305664
      ],
      "min": [
        -56.25,
        -181.78900146484375,
        -70.1864013671875
      ]
    },
    {
      "bufferView": 1,
      "byteOffset": 0,
      "componentType": 5126,
      "normalized": false,
      "count": 10640,
      "type": "VEC3",
      "max": [
        1.0,
        1.0,
        1.0
      ],
      "min": [
        -1.0,
        -1.0,
        -1.0
      ]
    },
    {
      "bufferView": 2,
      "byteOffset": 0,
      "componentType": 5126,
      "normalized": false,
      "count": 10640,
      "type": "VEC2",
      "max": [
        0.9998400211334229,
        -0.003175020217895508
      ],
      "min": [
        0.0,
        -1.0
      ]
    },
    {
      "bufferView": 3,
      "byteOffset": 0,
      "componentType": 5123,
      "normalized": false,
      "count": 20667,
      "type": "SCALAR",
      "max": [
        10639.0
      ],
      "min": [
        0.0
      ]
    },
    {
      "bufferView": 4,
      "byteOffset": 0,
      "componentType": 5126,
      "normalized": false,
      "count": 13814,
      "type": "VEC3",
      "max": [
        56.25,
        181.7449951171875,
        45.673500061035156
      ],
      "min": [
        -56.25,
        -181.78900146484375,
        -70.1864013671875
      ]
    },
    {
      "bufferView": 5,
      "byteOffset": 0,
      "componentType": 5126,
      "normalized": false,
      "count": 13814,
      "type": "VEC3",
      "max": [
        1.0,
        1.0,
        1.0
      ],
      "min": [
        -1.0,
        -1.0,
        -1.0
      ]
    },
    {
      "bufferView": 6,
      "byteOffset": 0,
      "componentType": 5126,
      "normalized": false,
      "count": 13814,
      "type": "VEC2",
      "max": [
        0.9994999766349792,
        -0.003175020217895508
      ],
      "min": [
        0.0,
        -1.0
      ]
    },
    {
      "bufferView": 7,
      "byteOffset": 0,
      "componentType": 5123,
      "normalized": false,
      "count": 26187,
      "type": "SCALAR",
      "max": [
        13813.0
      ],
      "min": [
        0.0
      ]
    },
    {
      "bufferView": 8,
      "byteOffset": 0,
      "componentType": 5126,
      "normalized": false,
      "count": 1758,
      "type": "VEC3",
      "max": [
        56.25,
        181.7449951171875,
        43.78049850463867
      ],
      "min": [
        -56.25,
        -181.78900146484375,
        -68.83370208740234
      ]
    },
    {
      "bufferView": 9,
      "byteOffset": 0,
      "componentType": 5126,
      "normalized": false,
      "count": 1758,
      "type": "VEC3",
      "max": [
        1.0,
        1.0,
        1.0
      ],
      "min": [
        -1.0,
        -1.0,
        -1.0
      ]
    },
    {
      "bufferView": 10,
      "byteOffset": 0,
      "componentType": 5126,
      "normalized": false,
      "count": 1758,
      "type": "VEC2",
      "max": [
        0.9969310164451599,
        -0.0024430155754089355
      ],
      "min": [
        0.0034149999264627695,
        -0.9400169849395752
      ]
    },
    {
      "bufferView": 11,
      "byteOffset": 0,
      "componentType": 5123,
      "normalized": false,
      "count": 3378,
      "type": "SCALAR",
      "max": [
        1757.0
      ],
      "min": [
        0.0
      ]
    },
    {
      "bufferView": 12,
      "byteOffset": 0,
      "componentType": 5126,
      "normalized": false,
      "count": 631,
      "type": "VEC3",
      "max": [
        56.25,
        181.7449951171875,
        43.09590148925781
      ],
      "min": [
        -56.25,
        -181.78900146484375,
        -68.83370208740234
      ]
    },
    {
      "bufferView": 13,
      "byteOffset": 0,
      "componentType": 5126,
      "normalized": false,
      "count": 631,
      "type": "VEC3",
      "max": [
        1.0,
        1.0,
        1.0
      ],
      "min": [
        -1.0,
        -0.9999999999995001,
        -1.0
      ]
    },
    {
      "bufferView": 14,
      "byteOffset": 0,
      "componentType": 5126,
      "normalized": false,
      "count": 631,
      "type": "VEC2",
      "max": [
        0.9969310164451599,
        -0.0024430155754089355
      ],
      "min": [
        0.0024300001095980406,
        -0.8904150128364563
      ]
    },
    {
      "bufferView": 15,
      "byteOffset": 0,
      "componentType": 5123,
      "normalized": false,
      "count": 1386,
      "type": "SCALAR",
      "max": [
        630.0
      ],
      "min": [
        0.0
      ]
    }
  ],
  "asset": {
    "generator": "WCSaga Godot Converter",
    "version": "2.0"
  },
  "bufferViews": [
    {
      "buffer": 0,
      "byteOffset": 0,
      "byteLength": 127680,
      "target": 34962
    },
    {
      "buffer": 0,
      "byteOffset": 127680,
      "byteLength": 127680,
      "target": 34962
    },
    {
      "buffer": 0,
      "byteOffset": 255360,
      "byteLength": 85120,
      "target": 34962
    },
    {
      "buffer": 0,
      "byteOffset": 340480,
      "byteLength": 41334,
      "target": 34963
    },
    {
      "buffer": 0,
      "byteOffset": 381816,
      "byteLength": 165768,
      "target": 34962
    },
    {
      "buffer": 0,
      "byteOffset": 547584,
      "byteLength": 165768,
      "target": 34962
    },
    {
      "buffer": 0,
      "byteOffset": 713352,
      "byteLength": 110512,
      "target": 34962
    },
    {
      "buffer": 0,
      "byteOffset": 823864,
      "byteLength": 52374,
      "target": 34963
    },
    {
      "buffer": 0,
      "byteOffset": 876240,
      "byteLength": 21096,
      "target": 34962
    },
    {
      "buffer": 0,
      "byteOffset": 897336,
      "byteLength": 21096,
      "target": 34962
    },
    {
      "buffer": 0,
      "byteOffset": 918432,
      "byteLength": 14064,
      "target": 34962
    },
    {
      "buffer": 0,
      "byteOffset": 932496,
      "byteLength": 6756,
      "target": 34963
    },
    {
      "buffer": 0,
      "byteOffset": 939252,
      "byteLength": 7572,
      "target": 34962
    },
    {
      "buffer": 0,
      "byteOffset": 946824,
      "byteLength": 7572,
      "target": 34962
    },
    {
      "buffer": 0,
      "byteOffset": 954396,
      "byteLength": 5048,
      "target": 34962
    },
    {
      "buffer": 0,
      "byteOffset": 959444,
      "byteLength": 2772,
      "target": 34963
    }
  ],
  "buffers": [
    {
      "uri": "tcs_southampton-lod3.bin",
      "byteLength": 962216
    }
  ],
  "materials": [
    {
      "pbrMetallicRoughness": {
        "baseColorFactor": [
          1.0,
          1.0,
          1.0,
          1.0
        ],
        "metallicFactor": 0.15,
        "roughnessFactor": 0.75
      },
      "emissiveFactor": [
        0.0,
        0.0,
        0.0
      ],
      "alphaMode": "OPAQUE",
      "doubleSided": false,
      "name": "standard"
    },
    {
      "pbrMetallicRoughness": {
        "baseColorFactor": [
          1.0,
          1.0,
          1.0,
          1.0
        ],
        "metallicFactor": 0.15,
        "roughnessFactor": 0.75
      },
      "emissiveFactor": [
        0.0,
        0.0,
        0.0
      ],
      "alphaMode": "OPAQUE",
      "doubleSided": false,
      "name": "standard"
    },
    {
      "pbrMetallicRoughness": {
        "baseColorFactor": [
          1.0,
          1.0,
          1.0,
          1.0
        ],
        "metallicFactor": 0.15,
        "roughnessFactor": 0.75
      },
      "emissiveFactor": [
        0.0,
        0.0,
        0.0
      ],
      "alphaMode": "OPAQUE",
      "doubleSided": false,
      "name": "standard"
    },
    {
      "pbrMetallicRoughness": {
        "baseColorFactor": [
          1.0,
          1.0,
          1.0,
          1.0
        ],
        "metallicFactor": 0.15,
        "roughnessFactor": 0.75
      },
      "emissiveFactor": [
        0.0,
        0.0,
        0.0
      ],
      "alphaMode": "OPAQUE",
      "doubleSided": false,
      "name": "standard"
    },
    {
      "pbrMetallicRoughness": {
        "baseColorFactor": [
          1.0,
          1.0,
          1.0,
          1.0
        ],
        "metallicFactor": 0.15,
        "roughnessFactor": 0.75
      },
      "emissiveFactor": [
        0.0,
        0.0,
        0.0
      ],
      "alphaMode": "OPAQUE",
      "doubleSided": false,
      "name": "standard"
    }
  ],
  "meshes": [
    {
      "primitives": [
        {
          "attributes": {
            "POSITION": 12,
            "NORMAL": 13,
            "TEXCOORD_0": 14
          },
          "indices": 15,
          "mode": 4,
          "material": 0
        }
      ],
      "name": "ExportedMesh"
    }
  ],
  "nodes": [
    {
      "mesh": 0,
      "name": "Model"
    }
  ],
  "scene": 0,
  "scenes": [
    {
      "nodes": [
        0
      ]
    }
  ]
}