{
  "accessors": [
    {
      "bufferView": 0,
      "byteOffset": 0,
      "componentType": 5126,
      "normalized": false,
      "count": 2688,
      "type": "VEC3",
      "max": [
        16.972501754760742,
        15.499999046325684,
        7.749967575073242
      ],
      "min": [
        -16.97249984741211,
        -15.499999046325684,
        -7.749967575073242
      ]
    },
    {
      "bufferView": 1,
      "byteOffset": 0,
      "componentType": 5126,
      "normalized": false,
      "count": 2688,
      "type": "VEC3",
      "max": [
        1.0,
        1.0,
        1.0
      ],
      "min": [
        -1.0,
        -1.0,
        -1.0
      ]
    },
    {
      "bufferView": 2,
      "byteOffset": 0,
      "componentType": 5126,
      "normalized": false,
      "count": 2688,
      "type": "VEC2",
      "max": [
        0.9997251629829407,
        -0.00015163421630859375
      ],
      "min": [
        0.0012454986572265625,
        -0.9995596408843994
      ]
    },
    {
      "bufferView": 3,
      "byteOffset": 0,
      "componentType": 5123,
      "normalized": false,
      "count": 5802,
      "type": "SCALAR",
      "max": [
        2687.0
      ],
      "min": [
        0.0
      ]
    }
  ],
  "asset": {
    "generator": "WCSaga Godot Converter",
    "version": "2.0"
  },
  "bufferViews": [
    {
      "buffer": 0,
      "byteOffset": 0,
      "byteLength": 32256,
      "target": 34962
    },
    {
      "buffer": 0,
      "byteOffset": 32256,
      "byteLength": 32256,
      "target": 34962
    },
    {
      "buffer": 0,
      "byteOffset": 64512,
      "byteLength": 21504,
      "target": 34962
    },
    {
      "buffer": 0,
      "byteOffset": 86016,
      "byteLength": 11604,
      "target": 34963
    }
  ],
  "buffers": [
    {
      "uri": "kif_khahaf.bin",
      "byteLength": 97620
    }
  ],
  "images": [
    {
      "uri": "kif_khahaf_1_albedo.png",
      "mimeType": "image/png",
      "name": "kif_khahaf_1_albedo_image"
    },
    {
      "uri": "kif_khahaf_1_orm.png",
      "mimeType": "image/png",
      "name": "kif_khahaf_1_orm_image"
    }
  ],
  "materials": [
    {
      "pbrMetallicRoughness": {
        "baseColorFactor": [
          1.0,
          1.0,
          1.0,
          1.0
        ],
        "metallicFactor": 0.15,
        "roughnessFactor": 0.75,
        "baseColorTexture": {
          "index": 0,
          "texCoord": 0
        },
        "metallicRoughnessTexture": {
          "index": 1,
          "texCoord": 0
        }
      },
      "occlusionTexture": {
        "index": 1,
        "texCoord": 0
      },
      "emissiveFactor": [
        0.0,
        0.0,
        0.0
      ],
      "alphaMode": "OPAQUE",
      "doubleSided": false,
      "name": "standard"
    },
    {
      "pbrMetallicRoughness": {
        "baseColorFactor": [
          1.0,
          1.0,
          1.0,
          1.0
        ],
        "metallicFactor": 0.15,
        "roughnessFactor": 0.75
      },
      "emissiveFactor": [
        0.0,
        0.0,
        0.0
      ],
      "alphaMode": "OPAQUE",
      "doubleSided": false,
      "name": "standard"
    }
  ],
  "meshes": [
    {
      "primitives": [
        {
          "attributes": {
            "POSITION": 0,
            "NORMAL": 1,
            "TEXCOORD_0": 2
          },
          "indices": 3,
          "mode": 4,
          "material": 0
        }
      ],
      "name": "ExportedMesh"
    }
  ],
  "nodes": [
    {
      "mesh": 0,
      "name": "Model"
    }
  ],
  "scene": 0,
  "scenes": [
    {
      "nodes": [
        0
      ]
    }
  ],
  "textures": [
    {
      "source": 0,
      "name": "kif_khahaf_1_albedo_texture"
    },
    {
      "source": 1,
      "name": "kif_khahaf_1_orm_texture"
    }
  ]
}