{
  "accessors": [
    {
      "bufferView": 0,
      "byteOffset": 0,
      "componentType": 5126,
      "normalized": false,
      "count": 1769,
      "type": "VEC3",
      "max": [
        0.21208499372005463,
        1.0891799926757812,
        0.21208499372005463
      ],
      "min": [
        -0.21208499372005463,
        -1.0891799926757812,
        -0.21208499372005463
      ]
    },
    {
      "bufferView": 1,
      "byteOffset": 0,
      "componentType": 5126,
      "normalized": false,
      "count": 1769,
      "type": "VEC3",
      "max": [
        1.0,
        1.0,
        1.0
      ],
      "min": [
        -1.0,
        -0.9999999017175142,
        -1.0
      ]
    },
    {
      "bufferView": 2,
      "byteOffset": 0,
      "componentType": 5126,
      "normalized": false,
      "count": 1769,
      "type": "VEC2",
      "max": [
        0.9974629878997803,
        -0.007265985012054443
      ],
      "min": [
        0.0033770001027733088,
        -0.9945799708366394
      ]
    },
    {
      "bufferView": 3,
      "byteOffset": 0,
      "componentType": 5123,
      "normalized": false,
      "count": 4290,
      "type": "SCALAR",
      "max": [
        1768.0
      ],
      "min": [
        0.0
      ]
    }
  ],
  "asset": {
    "generator": "WCSaga Godot Converter",
    "version": "2.0"
  },
  "bufferViews": [
    {
      "buffer": 0,
      "byteOffset": 0,
      "byteLength": 21228,
      "target": 34962
    },
    {
      "buffer": 0,
      "byteOffset": 21228,
      "byteLength": 21228,
      "target": 34962
    },
    {
      "buffer": 0,
      "byteOffset": 42456,
      "byteLength": 14152,
      "target": 34962
    },
    {
      "buffer": 0,
      "byteOffset": 56608,
      "byteLength": 8580,
      "target": 34963
    }
  ],
  "buffers": [
    {
      "uri": "tcm_spiculum.bin",
      "byteLength": 65188
    }
  ],
  "images": [
    {
      "uri": "tcm_spiculum_1_albedo.png",
      "mimeType": "image/png",
      "name": "tcm_spiculum_1_albedo_image"
    },
    {
      "uri": "tcm_spiculum_1_orm.png",
      "mimeType": "image/png",
      "name": "tcm_spiculum_1_orm_image"
    }
  ],
  "materials": [
    {
      "pbrMetallicRoughness": {
        "baseColorFactor": [
          1.0,
          1.0,
          1.0,
          1.0
        ],
        "metallicFactor": 0.15,
        "roughnessFactor": 0.75,
        "baseColorTexture": {
          "index": 0,
          "texCoord": 0
        },
        "metallicRoughnessTexture": {
          "index": 1,
          "texCoord": 0
        }
      },
      "occlusionTexture": {
        "index": 1,
        "texCoord": 0
      },
      "emissiveFactor": [
        0.0,
        0.0,
        0.0
      ],
      "alphaMode": "OPAQUE",
      "doubleSided": false,
      "name": "standard"
    }
  ],
  "meshes": [
    {
      "primitives": [
        {
          "attributes": {
            "POSITION": 0,
            "NORMAL": 1,
            "TEXCOORD_0": 2
          },
          "indices": 3,
          "mode": 4,
          "material": 0
        }
      ],
      "name": "ExportedMesh"
    }
  ],
  "nodes": [
    {
      "mesh": 0,
      "name": "Model"
    }
  ],
  "scene": 0,
  "scenes": [
    {
      "nodes": [
        0
      ]
    }
  ],
  "textures": [
    {
      "source": 0,
      "name": "tcm_spiculum_1_albedo_texture"
    },
    {
      "source": 1,
      "name": "tcm_spiculum_1_orm_texture"
    }
  ]
}