{
  "accessors": [
    {
      "bufferView": 0,
      "byteOffset": 0,
      "componentType": 5126,
      "normalized": false,
      "count": 1618,
      "type": "VEC3",
      "max": [
        7.56302547454834,
        6.249999523162842,
        2.7415964603424072
      ],
      "min": [
        -7.56302547454834,
        -6.249999523162842,
        -2.741595983505249
      ]
    },
    {
      "bufferView": 1,
      "byteOffset": 0,
      "componentType": 5126,
      "normalized": false,
      "count": 1618,
      "type": "VEC3",
      "max": [
        1.0,
        1.0,
        1.0
      ],
      "min": [
        -1.0,
        -1.0,
        -1.0
      ]
    },
    {
      "bufferView": 2,
      "byteOffset": 0,
      "componentType": 5126,
      "normalized": false,
      "count": 1618,
      "type": "VEC2",
      "max": [
        0.999128520488739,
        -0.0005704164505004883
      ],
      "min": [
        0.0001966811396414414,
        -0.9965838193893433
      ]
    },
    {
      "bufferView": 3,
      "byteOffset": 0,
      "componentType": 5123,
      "normalized": false,
      "count": 3672,
      "type": "SCALAR",
      "max": [
        1617.0
      ],
      "min": [
        0.0
      ]
    },
    {
      "bufferView": 4,
      "byteOffset": 0,
      "componentType": 5126,
      "normalized": false,
      "count": 1582,
      "type": "VEC3",
      "max": [
        7.56302547454834,
        6.249999523162842,
        2.7415964603424072
      ],
      "min": [
        -7.56302547454834,
        -6.249999523162842,
        -2.741595983505249
      ]
    },
    {
      "bufferView": 5,
      "byteOffset": 0,
      "componentType": 5126,
      "normalized": false,
      "count": 1582,
      "type": "VEC3",
      "max": [
        1.0,
        1.0,
        1.0
      ],
      "min": [
        -1.0,
        -1.0,
        -1.0
      ]
    },
    {
      "bufferView": 6,
      "byteOffset": 0,
      "componentType": 5126,
      "normalized": false,
      "count": 1582,
      "type": "VEC2",
      "max": [
        0.999128520488739,
        -0.0005704164505004883
      ],
      "min": [
        0.0001966811396414414,
        -0.9965838193893433
      ]
    },
    {
      "bufferView": 7,
      "byteOffset": 0,
      "componentType": 5123,
      "normalized": false,
      "count": 3618,
      "type": "SCALAR",
      "max": [
        1581.0
      ],
      "min": [
        0.0
      ]
    }
  ],
  "asset": {
    "generator": "WCSaga Godot Converter",
    "version": "2.0"
  },
  "bufferViews": [
    {
      "buffer": 0,
      "byteOffset": 0,
      "byteLength": 19416,
      "target": 34962
    },
    {
      "buffer": 0,
      "byteOffset": 19416,
      "byteLength": 19416,
      "target": 34962
    },
    {
      "buffer": 0,
      "byteOffset": 38832,
      "byteLength": 12944,
      "target": 34962
    },
    {
      "buffer": 0,
      "byteOffset": 51776,
      "byteLength": 7344,
      "target": 34963
    },
    {
      "buffer": 0,
      "byteOffset": 59120,
      "byteLength": 18984,
      "target": 34962
    },
    {
      "buffer": 0,
      "byteOffset": 78104,
      "byteLength": 18984,
      "target": 34962
    },
    {
      "buffer": 0,
      "byteOffset": 97088,
      "byteLength": 12656,
      "target": 34962
    },
    {
      "buffer": 0,
      "byteOffset": 109744,
      "byteLength": 7236,
      "target": 34963
    }
  ],
  "buffers": [
    {
      "uri": "kif_strakha_c-lod1.bin",
      "byteLength": 116980
    }
  ],
  "materials": [
    {
      "pbrMetallicRoughness": {
        "baseColorFactor": [
          1.0,
          1.0,
          1.0,
          1.0
        ],
        "metallicFactor": 0.15,
        "roughnessFactor": 0.75
      },
      "emissiveFactor": [
        0.0,
        0.0,
        0.0
      ],
      "alphaMode": "OPAQUE",
      "doubleSided": false,
      "name": "standard"
    }
  ],
  "meshes": [
    {
      "primitives": [
        {
          "attributes": {
            "POSITION": 4,
            "NORMAL": 5,
            "TEXCOORD_0": 6
          },
          "indices": 7,
          "mode": 4,
          "material": 0
        }
      ],
      "name": "ExportedMesh"
    }
  ],
  "nodes": [
    {
      "mesh": 0,
      "name": "Model"
    }
  ],
  "scene": 0,
  "scenes": [
    {
      "nodes": [
        0
      ]
    }
  ]
}