{
  "accessors": [
    {
      "bufferView": 0,
      "byteOffset": 0,
      "componentType": 5126,
      "normalized": false,
      "count": 9682,
      "type": "VEC3",
      "max": [
        4.6020097732543945,
        8.2595796585083,
        2.9100699424743652
      ],
      "min": [
        -4.6020097732543945,
        -8.2595796585083,
        -2.9100699424743652
      ]
    },
    {
      "bufferView": 1,
      "byteOffset": 0,
      "componentType": 5126,
      "normalized": false,
      "count": 9682,
      "type": "VEC3",
      "max": [
        1.0,
        1.0,
        1.0
      ],
      "min": [
        -1.0,
        -1.0,
        -1.0
      ]
    },
    {
      "bufferView": 2,
      "byteOffset": 0,
      "componentType": 5126,
      "normalized": false,
      "count": 9682,
      "type": "VEC2",
      "max": [
        0.9944800138473511,
        -0.002982020378112793
      ],
      "min": [
        0.0026839999482035637,
        -0.994940996170044
      ]
    },
    {
      "bufferView": 3,
      "byteOffset": 0,
      "componentType": 5123,
      "normalized": false,
      "count": 31044,
      "type": "SCALAR",
      "max": [
        9681.0
      ],
      "min": [
        0.0
      ]
    },
    {
      "bufferView": 4,
      "byteOffset": 0,
      "componentType": 5126,
      "normalized": false,
      "count": 9682,
      "type": "VEC3",
      "max": [
        4.6020097732543945,
        8.2595796585083,
        2.9100699424743652
      ],
      "min": [
        -4.6020097732543945,
        -8.2595796585083,
        -2.9100699424743652
      ]
    },
    {
      "bufferView": 5,
      "byteOffset": 0,
      "componentType": 5126,
      "normalized": false,
      "count": 9682,
      "type": "VEC3",
      "max": [
        1.0,
        1.0,
        1.0
      ],
      "min": [
        -1.0,
        -1.0,
        -1.0
      ]
    },
    {
      "bufferView": 6,
      "byteOffset": 0,
      "componentType": 5126,
      "normalized": false,
      "count": 9682,
      "type": "VEC2",
      "max": [
        0.9944800138473511,
        -0.002982020378112793
      ],
      "min": [
        0.0026839999482035637,
        -0.994940996170044
      ]
    },
    {
      "bufferView": 7,
      "byteOffset": 0,
      "componentType": 5123,
      "normalized": false,
      "count": 31044,
      "type": "SCALAR",
      "max": [
        9681.0
      ],
      "min": [
        0.0
      ]
    },
    {
      "bufferView": 8,
      "byteOffset": 0,
      "componentType": 5126,
      "normalized": false,
      "count": 1137,
      "type": "VEC3",
      "max": [
        4.5776801109313965,
        8.2595796585083,
        2.9100699424743652
      ],
      "min": [
        -4.5776801109313965,
        -8.2595796585083,
        -2.9100699424743652
      ]
    },
    {
      "bufferView": 9,
      "byteOffset": 0,
      "componentType": 5126,
      "normalized": false,
      "count": 1137,
      "type": "VEC3",
      "max": [
        1.0,
        1.0,
        1.0
      ],
      "min": [
        -1.0,
        -1.0,
        -1.0
      ]
    },
    {
      "bufferView": 10,
      "byteOffset": 0,
      "componentType": 5126,
      "normalized": false,
      "count": 1137,
      "type": "VEC2",
      "max": [
        0.9944800138473511,
        -0.002982020378112793
      ],
      "min": [
        0.0026839999482035637,
        -0.994940996170044
      ]
    },
    {
      "bufferView": 11,
      "byteOffset": 0,
      "componentType": 5123,
      "normalized": false,
      "count": 3054,
      "type": "SCALAR",
      "max": [
        1136.0
      ],
      "min": [
        0.0
      ]
    }
  ],
  "asset": {
    "generator": "WCSaga Godot Converter",
    "version": "2.0"
  },
  "bufferViews": [
    {
      "buffer": 0,
      "byteOffset": 0,
      "byteLength": 116184,
      "target": 34962
    },
    {
      "buffer": 0,
      "byteOffset": 116184,
      "byteLength": 116184,
      "target": 34962
    },
    {
      "buffer": 0,
      "byteOffset": 232368,
      "byteLength": 77456,
      "target": 34962
    },
    {
      "buffer": 0,
      "byteOffset": 309824,
      "byteLength": 62088,
      "target": 34963
    },
    {
      "buffer": 0,
      "byteOffset": 371912,
      "byteLength": 116184,
      "target": 34962
    },
    {
      "buffer": 0,
      "byteOffset": 488096,
      "byteLength": 116184,
      "target": 34962
    },
    {
      "buffer": 0,
      "byteOffset": 604280,
      "byteLength": 77456,
      "target": 34962
    },
    {
      "buffer": 0,
      "byteOffset": 681736,
      "byteLength": 62088,
      "target": 34963
    },
    {
      "buffer": 0,
      "byteOffset": 743824,
      "byteLength": 13644,
      "target": 34962
    },
    {
      "buffer": 0,
      "byteOffset": 757468,
      "byteLength": 13644,
      "target": 34962
    },
    {
      "buffer": 0,
      "byteOffset": 771112,
      "byteLength": 9096,
      "target": 34962
    },
    {
      "buffer": 0,
      "byteOffset": 780208,
      "byteLength": 6108,
      "target": 34963
    }
  ],
  "buffers": [
    {
      "uri": "prf_razor-lod2.bin",
      "byteLength": 786316
    }
  ],
  "materials": [
    {
      "pbrMetallicRoughness": {
        "baseColorFactor": [
          1.0,
          1.0,
          1.0,
          1.0
        ],
        "metallicFactor": 0.15,
        "roughnessFactor": 0.75
      },
      "emissiveFactor": [
        0.0,
        0.0,
        0.0
      ],
      "alphaMode": "OPAQUE",
      "doubleSided": false,
      "name": "standard"
    },
    {
      "pbrMetallicRoughness": {
        "baseColorFactor": [
          1.0,
          1.0,
          1.0,
          1.0
        ],
        "metallicFactor": 0.15,
        "roughnessFactor": 0.75
      },
      "emissiveFactor": [
        0.0,
        0.0,
        0.0
      ],
      "alphaMode": "OPAQUE",
      "doubleSided": false,
      "name": "standard"
    },
    {
      "pbrMetallicRoughness": {
        "baseColorFactor": [
          1.0,
          1.0,
          1.0,
          1.0
        ],
        "metallicFactor": 0.15,
        "roughnessFactor": 0.75
      },
      "emissiveFactor": [
        0.0,
        0.0,
        0.0
      ],
      "alphaMode": "OPAQUE",
      "doubleSided": false,
      "name": "standard"
    },
    {
      "pbrMetallicRoughness": {
        "baseColorFactor": [
          1.0,
          1.0,
          1.0,
          1.0
        ],
        "metallicFactor": 0.15,
        "roughnessFactor": 0.75
      },
      "emissiveFactor": [
        0.0,
        0.0,
        0.0
      ],
      "alphaMode": "OPAQUE",
      "doubleSided": false,
      "name": "standard"
    }
  ],
  "meshes": [
    {
      "primitives": [
        {
          "attributes": {
            "POSITION": 8,
            "NORMAL": 9,
            "TEXCOORD_0": 10
          },
          "indices": 11,
          "mode": 4,
          "material": 0
        }
      ],
      "name": "ExportedMesh"
    }
  ],
  "nodes": [
    {
      "mesh": 0,
      "name": "Model"
    }
  ],
  "scene": 0,
  "scenes": [
    {
      "nodes": [
        0
      ]
    }
  ]
}