{
  "accessors": [
    {
      "bufferView": 0,
      "byteOffset": 0,
      "componentType": 5126,
      "normalized": false,
      "count": 1360,
      "type": "VEC3",
      "max": [
        19.398099899291992,
        19.54319953918457,
        5.319340229034424
      ],
      "min": [
        -19.893600463867188,
        -19.54319953918457,
        -5.845069885253906
      ]
    },
    {
      "bufferView": 1,
      "byteOffset": 0,
      "componentType": 5126,
      "normalized": false,
      "count": 1360,
      "type": "VEC3",
      "max": [
        1.0,
        1.0,
        1.0
      ],
      "min": [
        -1.0,
        -1.0,
        -1.0
      ]
    },
    {
      "bufferView": 2,
      "byteOffset": 0,
      "componentType": 5126,
      "normalized": false,
      "count": 1360,
      "type": "VEC2",
      "max": [
        0.9994999766349792,
        -0.04577004909515381
      ],
      "min": [
        0.1262030005455017,
        -0.9994999766349792
      ]
    },
    {
      "bufferView": 3,
      "byteOffset": 0,
      "componentType": 5123,
      "normalized": false,
      "count": 2676,
      "type": "SCALAR",
      "max": [
        1359.0
      ],
      "min": [
        0.0
      ]
    },
    {
      "bufferView": 4,
      "byteOffset": 0,
      "componentType": 5126,
      "normalized": false,
      "count": 1416,
      "type": "VEC3",
      "max": [
        19.398099899291992,
        21.348600387573242,
        5.319340229034424
      ],
      "min": [
        -19.893600463867188,
        -19.54319953918457,
        -5.845069885253906
      ]
    },
    {
      "bufferView": 5,
      "byteOffset": 0,
      "componentType": 5126,
      "normalized": false,
      "count": 1416,
      "type": "VEC3",
      "max": [
        1.0,
        1.0,
        1.0
      ],
      "min": [
        -1.0,
        -1.0,
        -1.0
      ]
    },
    {
      "bufferView": 6,
      "byteOffset": 0,
      "componentType": 5126,
      "normalized": false,
      "count": 1416,
      "type": "VEC2",
      "max": [
        0.9994999766349792,
        -0.0008100271224975586
      ],
      "min": [
        0.0009510000236332417,
        -0.9994999766349792
      ]
    },
    {
      "bufferView": 7,
      "byteOffset": 0,
      "componentType": 5123,
      "normalized": false,
      "count": 3348,
      "type": "SCALAR",
      "max": [
        1415.0
      ],
      "min": [
        0.0
      ]
    },
    {
      "bufferView": 8,
      "byteOffset": 0,
      "componentType": 5126,
      "normalized": false,
      "count": 328,
      "type": "VEC3",
      "max": [
        19.398099899291992,
        19.54319953918457,
        5.319340229034424
      ],
      "min": [
        -19.893600463867188,
        -19.54319953918457,
        -5.323880195617676
      ]
    },
    {
      "bufferView": 9,
      "byteOffset": 0,
      "componentType": 5126,
      "normalized": false,
      "count": 328,
      "type": "VEC3",
      "max": [
        1.0,
        1.0,
        1.0
      ],
      "min": [
        -1.0,
        -0.9999999730879997,
        -0.9999833705613597
      ]
    },
    {
      "bufferView": 10,
      "byteOffset": 0,
      "componentType": 5126,
      "normalized": false,
      "count": 328,
      "type": "VEC2",
      "max": [
        0.9953609704971313,
        -0.10341298580169678
      ],
      "min": [
        0.47579801082611084,
        -0.9943349957466125
      ]
    },
    {
      "bufferView": 11,
      "byteOffset": 0,
      "componentType": 5123,
      "normalized": false,
      "count": 738,
      "type": "SCALAR",
      "max": [
        327.0
      ],
      "min": [
        0.0
      ]
    },
    {
      "bufferView": 12,
      "byteOffset": 0,
      "componentType": 5126,
      "normalized": false,
      "count": 118,
      "type": "VEC3",
      "max": [
        19.398099899291992,
        19.566299438476562,
        5.44989013671875
      ],
      "min": [
        -19.89349937438965,
        -19.54319953918457,
        -5.323880195617676
      ]
    },
    {
      "bufferView": 13,
      "byteOffset": 0,
      "componentType": 5126,
      "normalized": false,
      "count": 118,
      "type": "VEC3",
      "max": [
        0.9999999873259995,
        1.0,
        0.9999451611140195
      ],
      "min": [
        -1.0,
        -1.0,
        -0.9999833705613597
      ]
    },
    {
      "bufferView": 14,
      "byteOffset": 0,
      "componentType": 5126,
      "normalized": false,
      "count": 118,
      "type": "VEC2",
      "max": [
        0.9953609704971313,
        -0.527908980846405
      ],
      "min": [
        0.5058450102806091,
        -0.9943349957466125
      ]
    },
    {
      "bufferView": 15,
      "byteOffset": 0,
      "componentType": 5123,
      "normalized": false,
      "count": 186,
      "type": "SCALAR",
      "max": [
        117.0
      ],
      "min": [
        0.0
      ]
    }
  ],
  "asset": {
    "generator": "WCSaga Godot Converter",
    "version": "2.0"
  },
  "bufferViews": [
    {
      "buffer": 0,
      "byteOffset": 0,
      "byteLength": 16320,
      "target": 34962
    },
    {
      "buffer": 0,
      "byteOffset": 16320,
      "byteLength": 16320,
      "target": 34962
    },
    {
      "buffer": 0,
      "byteOffset": 32640,
      "byteLength": 10880,
      "target": 34962
    },
    {
      "buffer": 0,
      "byteOffset": 43520,
      "byteLength": 5352,
      "target": 34963
    },
    {
      "buffer": 0,
      "byteOffset": 48872,
      "byteLength": 16992,
      "target": 34962
    },
    {
      "buffer": 0,
      "byteOffset": 65864,
      "byteLength": 16992,
      "target": 34962
    },
    {
      "buffer": 0,
      "byteOffset": 82856,
      "byteLength": 11328,
      "target": 34962
    },
    {
      "buffer": 0,
      "byteOffset": 94184,
      "byteLength": 6696,
      "target": 34963
    },
    {
      "buffer": 0,
      "byteOffset": 100880,
      "byteLength": 3936,
      "target": 34962
    },
    {
      "buffer": 0,
      "byteOffset": 104816,
      "byteLength": 3936,
      "target": 34962
    },
    {
      "buffer": 0,
      "byteOffset": 108752,
      "byteLength": 2624,
      "target": 34962
    },
    {
      "buffer": 0,
      "byteOffset": 111376,
      "byteLength": 1476,
      "target": 34963
    },
    {
      "buffer": 0,
      "byteOffset": 112852,
      "byteLength": 1416,
      "target": 34962
    },
    {
      "buffer": 0,
      "byteOffset": 114268,
      "byteLength": 1416,
      "target": 34962
    },
    {
      "buffer": 0,
      "byteOffset": 115684,
      "byteLength": 944,
      "target": 34962
    },
    {
      "buffer": 0,
      "byteOffset": 116628,
      "byteLength": 372,
      "target": 34963
    }
  ],
  "buffers": [
    {
      "uri": "kis_naktarg-lod3.bin",
      "byteLength": 117000
    }
  ],
  "materials": [
    {
      "pbrMetallicRoughness": {
        "baseColorFactor": [
          1.0,
          1.0,
          1.0,
          1.0
        ],
        "metallicFactor": 0.15,
        "roughnessFactor": 0.75
      },
      "emissiveFactor": [
        0.0,
        0.0,
        0.0
      ],
      "alphaMode": "OPAQUE",
      "doubleSided": false,
      "name": "standard"
    },
    {
      "pbrMetallicRoughness": {
        "baseColorFactor": [
          1.0,
          1.0,
          1.0,
          1.0
        ],
        "metallicFactor": 0.15,
        "roughnessFactor": 0.75
      },
      "emissiveFactor": [
        0.0,
        0.0,
        0.0
      ],
      "alphaMode": "OPAQUE",
      "doubleSided": false,
      "name": "standard"
    },
    {
      "pbrMetallicRoughness": {
        "baseColorFactor": [
          1.0,
          1.0,
          1.0,
          1.0
        ],
        "metallicFactor": 0.15,
        "roughnessFactor": 0.75
      },
      "emissiveFactor": [
        0.0,
        0.0,
        0.0
      ],
      "alphaMode": "OPAQUE",
      "doubleSided": false,
      "name": "standard"
    },
    {
      "pbrMetallicRoughness": {
        "baseColorFactor": [
          1.0,
          1.0,
          1.0,
          1.0
        ],
        "metallicFactor": 0.15,
        "roughnessFactor": 0.75
      },
      "emissiveFactor": [
        0.0,
        0.0,
        0.0
      ],
      "alphaMode": "OPAQUE",
      "doubleSided": false,
      "name": "standard"
    }
  ],
  "meshes": [
    {
      "primitives": [
        {
          "attributes": {
            "POSITION": 12,
            "NORMAL": 13,
            "TEXCOORD_0": 14
          },
          "indices": 15,
          "mode": 4,
          "material": 0
        }
      ],
      "name": "ExportedMesh"
    }
  ],
  "nodes": [
    {
      "mesh": 0,
      "name": "Model"
    }
  ],
  "scene": 0,
  "scenes": [
    {
      "nodes": [
        0
      ]
    }
  ]
}