{
  "accessors": [
    {
      "bufferView": 0,
      "byteOffset": 0,
      "componentType": 5126,
      "normalized": false,
      "count": 1227,
      "type": "VEC3",
      "max": [
        0.6185250282287598,
        3.4969100952148438,
        0.5365269780158997
      ],
      "min": [
        -0.6185250282287598,
        -3.4969100952148438,
        -0.5365260243415833
      ]
    },
    {
      "bufferView": 1,
      "byteOffset": 0,
      "componentType": 5126,
      "normalized": false,
      "count": 1227,
      "type": "VEC3",
      "max": [
        0.9999277812621693,
        1.0,
        1.0
      ],
      "min": [
        -0.9998342205390809,
        -1.0,
        -1.0
      ]
    },
    {
      "bufferView": 2,
      "byteOffset": 0,
      "componentType": 5126,
      "normalized": false,
      "count": 1227,
      "type": "VEC2",
      "max": [
        0.9943540096282959,
        -0.013080000877380371
      ],
      "min": [
        0.006570999976247549,
        -0.9907399415969849
      ]
    },
    {
      "bufferView": 3,
      "byteOffset": 0,
      "componentType": 5123,
      "normalized": false,
      "count": 3174,
      "type": "SCALAR",
      "max": [
        1226.0
      ],
      "min": [
        0.0
      ]
    }
  ],
  "asset": {
    "generator": "WCSaga Godot Converter",
    "version": "2.0"
  },
  "bufferViews": [
    {
      "buffer": 0,
      "byteOffset": 0,
      "byteLength": 14724,
      "target": 34962
    },
    {
      "buffer": 0,
      "byteOffset": 14724,
      "byteLength": 14724,
      "target": 34962
    },
    {
      "buffer": 0,
      "byteOffset": 29448,
      "byteLength": 9816,
      "target": 34962
    },
    {
      "buffer": 0,
      "byteOffset": 39264,
      "byteLength": 6348,
      "target": 34963
    }
  ],
  "buffers": [
    {
      "uri": "kim_spear.bin",
      "byteLength": 45612
    }
  ],
  "images": [
    {
      "uri": "kim_spear_1_albedo.png",
      "mimeType": "image/png",
      "name": "kim_spear_1_albedo_image"
    },
    {
      "uri": "kim_spear_1_orm.png",
      "mimeType": "image/png",
      "name": "kim_spear_1_orm_image"
    }
  ],
  "materials": [
    {
      "pbrMetallicRoughness": {
        "baseColorFactor": [
          1.0,
          1.0,
          1.0,
          1.0
        ],
        "metallicFactor": 0.15,
        "roughnessFactor": 0.75,
        "baseColorTexture": {
          "index": 0,
          "texCoord": 0
        },
        "metallicRoughnessTexture": {
          "index": 1,
          "texCoord": 0
        }
      },
      "occlusionTexture": {
        "index": 1,
        "texCoord": 0
      },
      "emissiveFactor": [
        0.0,
        0.0,
        0.0
      ],
      "alphaMode": "OPAQUE",
      "doubleSided": false,
      "name": "standard"
    }
  ],
  "meshes": [
    {
      "primitives": [
        {
          "attributes": {
            "POSITION": 0,
            "NORMAL": 1,
            "TEXCOORD_0": 2
          },
          "indices": 3,
          "mode": 4,
          "material": 0
        }
      ],
      "name": "ExportedMesh"
    }
  ],
  "nodes": [
    {
      "mesh": 0,
      "name": "Model"
    }
  ],
  "scene": 0,
  "scenes": [
    {
      "nodes": [
        0
      ]
    }
  ],
  "textures": [
    {
      "source": 0,
      "name": "kim_spear_1_albedo_texture"
    },
    {
      "source": 1,
      "name": "kim_spear_1_orm_texture"
    }
  ]
}