{
  "accessors": [
    {
      "bufferView": 0,
      "byteOffset": 0,
      "componentType": 5126,
      "normalized": false,
      "count": 1559,
      "type": "VEC3",
      "max": [
        25.039499282836914,
        56.696800231933594,
        13.496999740600586
      ],
      "min": [
        -25.039499282836914,
        -56.696800231933594,
        -13.496999740600586
      ]
    },
    {
      "bufferView": 1,
      "byteOffset": 0,
      "componentType": 5126,
      "normalized": false,
      "count": 1559,
      "type": "VEC3",
      "max": [
        1.0,
        1.0,
        1.0
      ],
      "min": [
        -1.0,
        -1.0,
        -1.0
      ]
    },
    {
      "bufferView": 2,
      "byteOffset": 0,
      "componentType": 5126,
      "normalized": false,
      "count": 1559,
      "type": "VEC2",
      "max": [
        0.9982730150222778,
        -0.00041598081588745117
      ],
      "min": [
        0.0013419999741017818,
        -0.9979829788208008
      ]
    },
    {
      "bufferView": 3,
      "byteOffset": 0,
      "componentType": 5123,
      "normalized": false,
      "count": 2619,
      "type": "SCALAR",
      "max": [
        1558.0
      ],
      "min": [
        0.0
      ]
    },
    {
      "bufferView": 4,
      "byteOffset": 0,
      "componentType": 5126,
      "normalized": false,
      "count": 5005,
      "type": "VEC3",
      "max": [
        25.039499282836914,
        56.696800231933594,
        13.496999740600586
      ],
      "min": [
        -25.039499282836914,
        -56.696800231933594,
        -14.498499870300293
      ]
    },
    {
      "bufferView": 5,
      "byteOffset": 0,
      "componentType": 5126,
      "normalized": false,
      "count": 5005,
      "type": "VEC3",
      "max": [
        1.0,
        1.0,
        1.0
      ],
      "min": [
        -1.0,
        -1.0,
        -1.0
      ]
    },
    {
      "bufferView": 6,
      "byteOffset": 0,
      "componentType": 5126,
      "normalized": false,
      "count": 5005,
      "type": "VEC2",
      "max": [
        0.9982730150222778,
        -0.00041598081588745117
      ],
      "min": [
        0.0013419999741017818,
        -0.9982640147209167
      ]
    },
    {
      "bufferView": 7,
      "byteOffset": 0,
      "componentType": 5123,
      "normalized": false,
      "count": 8601,
      "type": "SCALAR",
      "max": [
        5004.0
      ],
      "min": [
        0.0
      ]
    },
    {
      "bufferView": 8,
      "byteOffset": 0,
      "componentType": 5126,
      "normalized": false,
      "count": 874,
      "type": "VEC3",
      "max": [
        25.039499282836914,
        56.696800231933594,
        13.496999740600586
      ],
      "min": [
        -25.039499282836914,
        -56.696800231933594,
        -12.01710033416748
      ]
    },
    {
      "bufferView": 9,
      "byteOffset": 0,
      "componentType": 5126,
      "normalized": false,
      "count": 874,
      "type": "VEC3",
      "max": [
        1.0,
        1.0,
        1.0
      ],
      "min": [
        -1.0,
        -1.0,
        -1.0
      ]
    },
    {
      "bufferView": 10,
      "byteOffset": 0,
      "componentType": 5126,
      "normalized": false,
      "count": 874,
      "type": "VEC2",
      "max": [
        0.9982730150222778,
        -0.00041598081588745117
      ],
      "min": [
        0.0045079998672008514,
        -0.9951459765434265
      ]
    },
    {
      "bufferView": 11,
      "byteOffset": 0,
      "componentType": 5123,
      "normalized": false,
      "count": 1446,
      "type": "SCALAR",
      "max": [
        873.0
      ],
      "min": [
        0.0
      ]
    }
  ],
  "asset": {
    "generator": "WCSaga Godot Converter",
    "version": "2.0"
  },
  "bufferViews": [
    {
      "buffer": 0,
      "byteOffset": 0,
      "byteLength": 18708,
      "target": 34962
    },
    {
      "buffer": 0,
      "byteOffset": 18708,
      "byteLength": 18708,
      "target": 34962
    },
    {
      "buffer": 0,
      "byteOffset": 37416,
      "byteLength": 12472,
      "target": 34962
    },
    {
      "buffer": 0,
      "byteOffset": 49888,
      "byteLength": 5238,
      "target": 34963
    },
    {
      "buffer": 0,
      "byteOffset": 55128,
      "byteLength": 60060,
      "target": 34962
    },
    {
      "buffer": 0,
      "byteOffset": 115188,
      "byteLength": 60060,
      "target": 34962
    },
    {
      "buffer": 0,
      "byteOffset": 175248,
      "byteLength": 40040,
      "target": 34962
    },
    {
      "buffer": 0,
      "byteOffset": 215288,
      "byteLength": 17202,
      "target": 34963
    },
    {
      "buffer": 0,
      "byteOffset": 232492,
      "byteLength": 10488,
      "target": 34962
    },
    {
      "buffer": 0,
      "byteOffset": 242980,
      "byteLength": 10488,
      "target": 34962
    },
    {
      "buffer": 0,
      "byteOffset": 253468,
      "byteLength": 6992,
      "target": 34962
    },
    {
      "buffer": 0,
      "byteOffset": 260460,
      "byteLength": 2892,
      "target": 34963
    }
  ],
  "buffers": [
    {
      "uri": "tcs_prowler_davy-lod2.bin",
      "byteLength": 263352
    }
  ],
  "materials": [
    {
      "pbrMetallicRoughness": {
        "baseColorFactor": [
          1.0,
          1.0,
          1.0,
          1.0
        ],
        "metallicFactor": 0.15,
        "roughnessFactor": 0.75
      },
      "emissiveFactor": [
        0.0,
        0.0,
        0.0
      ],
      "alphaMode": "OPAQUE",
      "doubleSided": false,
      "name": "standard"
    },
    {
      "pbrMetallicRoughness": {
        "baseColorFactor": [
          1.0,
          1.0,
          1.0,
          1.0
        ],
        "metallicFactor": 0.15,
        "roughnessFactor": 0.75
      },
      "emissiveFactor": [
        0.0,
        0.0,
        0.0
      ],
      "alphaMode": "OPAQUE",
      "doubleSided": false,
      "name": "standard"
    }
  ],
  "meshes": [
    {
      "primitives": [
        {
          "attributes": {
            "POSITION": 8,
            "NORMAL": 9,
            "TEXCOORD_0": 10
          },
          "indices": 11,
          "mode": 4,
          "material": 0
        }
      ],
      "name": "ExportedMesh"
    }
  ],
  "nodes": [
    {
      "mesh": 0,
      "name": "Model"
    }
  ],
  "scene": 0,
  "scenes": [
    {
      "nodes": [
        0
      ]
    }
  ]
}