{
  "accessors": [
    {
      "bufferView": 0,
      "byteOffset": 0,
      "componentType": 5126,
      "normalized": false,
      "count": 1237,
      "type": "VEC3",
      "max": [
        2.216439962387085,
        3.560159921646118,
        2.1853299140930176
      ],
      "min": [
        -2.216439962387085,
        -3.560159921646118,
        -2.1853299140930176
      ]
    },
    {
      "bufferView": 1,
      "byteOffset": 0,
      "componentType": 5126,
      "normalized": false,
      "count": 1237,
      "type": "VEC3",
      "max": [
        0.999999939448005,
        1.0,
        1.0
      ],
      "min": [
        -0.9993035907196387,
        -1.0,
        -1.0
      ]
    },
    {
      "bufferView": 2,
      "byteOffset": 0,
      "componentType": 5126,
      "normalized": false,
      "count": 1237,
      "type": "VEC2",
      "max": [
        0.9730830192565918,
        -0.022860407829284668
      ],
      "min": [
        0.01665399968624115,
        -0.9805120229721069
      ]
    },
    {
      "bufferView": 3,
      "byteOffset": 0,
      "componentType": 5123,
      "normalized": false,
      "count": 3369,
      "type": "SCALAR",
      "max": [
        1236.0
      ],
      "min": [
        0.0
      ]
    },
    {
      "bufferView": 4,
      "byteOffset": 0,
      "componentType": 5126,
      "normalized": false,
      "count": 14,
      "type": "VEC3",
      "max": [
        0.6759570240974426,
        2.5432300567626953,
        0.6600440144538879
      ],
      "min": [
        -1.0209399461746216,
        -2.231290102005005,
        -0.6513540148735046
      ]
    },
    {
      "bufferView": 5,
      "byteOffset": 0,
      "componentType": 5126,
      "normalized": false,
      "count": 14,
      "type": "VEC3",
      "max": [
        0.6820281677052001,
        0.6319344461223849,
        0.8128457756668509
      ],
      "min": [
        -0.7625670846538894,
        -0.6838791904158299,
        -0.6230194325328909
      ]
    },
    {
      "bufferView": 6,
      "byteOffset": 0,
      "componentType": 5126,
      "normalized": false,
      "count": 14,
      "type": "VEC2",
      "max": [
        0.9571729898452759,
        -0.015463471412658691
      ],
      "min": [
        0.048329100012779236,
        -0.5834729671478271
      ]
    },
    {
      "bufferView": 7,
      "byteOffset": 0,
      "componentType": 5123,
      "normalized": false,
      "count": 36,
      "type": "SCALAR",
      "max": [
        13.0
      ],
      "min": [
        0.0
      ]
    }
  ],
  "asset": {
    "generator": "WCSaga POF Converter",
    "version": "2.0"
  },
  "bufferViews": [
    {
      "buffer": 0,
      "byteOffset": 0,
      "byteLength": 14844,
      "target": 34962
    },
    {
      "buffer": 0,
      "byteOffset": 14844,
      "byteLength": 14844,
      "target": 34962
    },
    {
      "buffer": 0,
      "byteOffset": 29688,
      "byteLength": 9896,
      "target": 34962
    },
    {
      "buffer": 0,
      "byteOffset": 39584,
      "byteLength": 6738,
      "target": 34963
    },
    {
      "buffer": 0,
      "byteOffset": 46324,
      "byteLength": 168,
      "target": 34962
    },
    {
      "buffer": 0,
      "byteOffset": 46492,
      "byteLength": 168,
      "target": 34962
    },
    {
      "buffer": 0,
      "byteOffset": 46660,
      "byteLength": 112,
      "target": 34962
    },
    {
      "buffer": 0,
      "byteOffset": 46772,
      "byteLength": 72,
      "target": 34963
    }
  ],
  "buffers": [
    {
      "uri": "misc_pdebris01.bin",
      "byteLength": 46844
    }
  ],
  "materials": [
    {
      "pbrMetallicRoughness": {
        "baseColorFactor": [
          1.0,
          1.0,
          1.0,
          1.0
        ],
        "metallicFactor": 0.15,
        "roughnessFactor": 0.75
      },
      "emissiveFactor": [
        0.0,
        0.0,
        0.0
      ],
      "alphaMode": "OPAQUE",
      "doubleSided": false,
      "name": "standard"
    },
    {
      "pbrMetallicRoughness": {
        "baseColorFactor": [
          1.0,
          1.0,
          1.0,
          1.0
        ],
        "metallicFactor": 0.15,
        "roughnessFactor": 0.75
      },
      "emissiveFactor": [
        0.0,
        0.0,
        0.0
      ],
      "alphaMode": "OPAQUE",
      "doubleSided": false,
      "name": "standard"
    }
  ],
  "meshes": [
    {
      "primitives": [
        {
          "attributes": {
            "POSITION": 0,
            "NORMAL": 1,
            "TEXCOORD_0": 2
          },
          "indices": 3,
          "mode": 4,
          "material": 0
        }
      ],
      "name": "ExportedMesh"
    },
    {
      "primitives": [
        {
          "attributes": {
            "POSITION": 4,
            "NORMAL": 5,
            "TEXCOORD_0": 6
          },
          "indices": 7,
          "mode": 4,
          "material": 0
        }
      ],
      "name": "ExportedMesh"
    }
  ],
  "nodes": [
    {
      "mesh": 0,
      "children": [
        1
      ],
      "name": "detail0_1"
    },
    {
      "mesh": 1,
      "name": "debris1"
    }
  ],
  "scene": 0,
  "scenes": [
    {
      "nodes": [
        0
      ]
    }
  ]
}