{
  "accessors": [
    {
      "bufferView": 0,
      "byteOffset": 0,
      "componentType": 5126,
      "normalized": false,
      "count": 9065,
      "type": "VEC3",
      "max": [
        113.76000213623047,
        1308.3499755859375,
        332.2099914550781
      ],
      "min": [
        -113.76000213623047,
        -1308.3499755859375,
        -332.2099914550781
      ]
    },
    {
      "bufferView": 1,
      "byteOffset": 0,
      "componentType": 5126,
      "normalized": false,
      "count": 9065,
      "type": "VEC3",
      "max": [
        1.0,
        1.0,
        1.0
      ],
      "min": [
        -1.0,
        -1.0,
        -1.0
      ]
    },
    {
      "bufferView": 2,
      "byteOffset": 0,
      "componentType": 5126,
      "normalized": false,
      "count": 9065,
      "type": "VEC2",
      "max": [
        0.9985730051994324,
        -0.004262983798980713
      ],
      "min": [
        0.0006500000017695129,
        -0.9989100098609924
      ]
    },
    {
      "bufferView": 3,
      "byteOffset": 0,
      "componentType": 5123,
      "normalized": false,
      "count": 18582,
      "type": "SCALAR",
      "max": [
        9064.0
      ],
      "min": [
        0.0
      ]
    },
    {
      "bufferView": 4,
      "byteOffset": 0,
      "componentType": 5126,
      "normalized": false,
      "count": 8607,
      "type": "VEC3",
      "max": [
        113.76000213623047,
        1308.3499755859375,
        332.2099914550781
      ],
      "min": [
        -113.76000213623047,
        -1308.3499755859375,
        -332.2099914550781
      ]
    },
    {
      "bufferView": 5,
      "byteOffset": 0,
      "componentType": 5126,
      "normalized": false,
      "count": 8607,
      "type": "VEC3",
      "max": [
        1.0,
        1.0,
        1.0
      ],
      "min": [
        -1.0,
        -1.0,
        -1.0
      ]
    },
    {
      "bufferView": 6,
      "byteOffset": 0,
      "componentType": 5126,
      "normalized": false,
      "count": 8607,
      "type": "VEC2",
      "max": [
        0.9985730051994324,
        -0.004262983798980713
      ],
      "min": [
        0.0006500000017695129,
        -0.9989100098609924
      ]
    },
    {
      "bufferView": 7,
      "byteOffset": 0,
      "componentType": 5123,
      "normalized": false,
      "count": 17493,
      "type": "SCALAR",
      "max": [
        8606.0
      ],
      "min": [
        0.0
      ]
    },
    {
      "bufferView": 8,
      "byteOffset": 0,
      "componentType": 5126,
      "normalized": false,
      "count": 5019,
      "type": "VEC3",
      "max": [
        113.76000213623047,
        1308.3499755859375,
        332.2099914550781
      ],
      "min": [
        -113.76000213623047,
        -1308.3499755859375,
        -332.2099914550781
      ]
    },
    {
      "bufferView": 9,
      "byteOffset": 0,
      "componentType": 5126,
      "normalized": false,
      "count": 5019,
      "type": "VEC3",
      "max": [
        1.0,
        1.0,
        1.0
      ],
      "min": [
        -1.0,
        -1.0,
        -1.0
      ]
    },
    {
      "bufferView": 10,
      "byteOffset": 0,
      "componentType": 5126,
      "normalized": false,
      "count": 5019,
      "type": "VEC2",
      "max": [
        0.9985730051994324,
        -0.004262983798980713
      ],
      "min": [
        0.0006500000017695129,
        -0.995078980922699
      ]
    },
    {
      "bufferView": 11,
      "byteOffset": 0,
      "componentType": 5123,
      "normalized": false,
      "count": 9606,
      "type": "SCALAR",
      "max": [
        5018.0
      ],
      "min": [
        0.0
      ]
    }
  ],
  "asset": {
    "generator": "WCSaga Godot Converter",
    "version": "2.0"
  },
  "bufferViews": [
    {
      "buffer": 0,
      "byteOffset": 0,
      "byteLength": 108780,
      "target": 34962
    },
    {
      "buffer": 0,
      "byteOffset": 108780,
      "byteLength": 108780,
      "target": 34962
    },
    {
      "buffer": 0,
      "byteOffset": 217560,
      "byteLength": 72520,
      "target": 34962
    },
    {
      "buffer": 0,
      "byteOffset": 290080,
      "byteLength": 37164,
      "target": 34963
    },
    {
      "buffer": 0,
      "byteOffset": 327244,
      "byteLength": 103284,
      "target": 34962
    },
    {
      "buffer": 0,
      "byteOffset": 430528,
      "byteLength": 103284,
      "target": 34962
    },
    {
      "buffer": 0,
      "byteOffset": 533812,
      "byteLength": 68856,
      "target": 34962
    },
    {
      "buffer": 0,
      "byteOffset": 602668,
      "byteLength": 34986,
      "target": 34963
    },
    {
      "buffer": 0,
      "byteOffset": 637656,
      "byteLength": 60228,
      "target": 34962
    },
    {
      "buffer": 0,
      "byteOffset": 697884,
      "byteLength": 60228,
      "target": 34962
    },
    {
      "buffer": 0,
      "byteOffset": 758112,
      "byteLength": 40152,
      "target": 34962
    },
    {
      "buffer": 0,
      "byteOffset": 798264,
      "byteLength": 19212,
      "target": 34963
    }
  ],
  "buffers": [
    {
      "uri": "tb_naval_base-lod2.bin",
      "byteLength": 817476
    }
  ],
  "materials": [
    {
      "pbrMetallicRoughness": {
        "baseColorFactor": [
          1.0,
          1.0,
          1.0,
          1.0
        ],
        "metallicFactor": 0.15,
        "roughnessFactor": 0.75
      },
      "emissiveFactor": [
        0.0,
        0.0,
        0.0
      ],
      "alphaMode": "OPAQUE",
      "doubleSided": false,
      "name": "standard"
    },
    {
      "pbrMetallicRoughness": {
        "baseColorFactor": [
          1.0,
          1.0,
          1.0,
          1.0
        ],
        "metallicFactor": 0.15,
        "roughnessFactor": 0.75
      },
      "emissiveFactor": [
        0.0,
        0.0,
        0.0
      ],
      "alphaMode": "OPAQUE",
      "doubleSided": false,
      "name": "standard"
    },
    {
      "pbrMetallicRoughness": {
        "baseColorFactor": [
          1.0,
          1.0,
          1.0,
          1.0
        ],
        "metallicFactor": 0.15,
        "roughnessFactor": 0.75
      },
      "emissiveFactor": [
        0.0,
        0.0,
        0.0
      ],
      "alphaMode": "OPAQUE",
      "doubleSided": false,
      "name": "standard"
    },
    {
      "pbrMetallicRoughness": {
        "baseColorFactor": [
          1.0,
          1.0,
          1.0,
          1.0
        ],
        "metallicFactor": 0.15,
        "roughnessFactor": 0.75
      },
      "emissiveFactor": [
        0.0,
        0.0,
        0.0
      ],
      "alphaMode": "OPAQUE",
      "doubleSided": false,
      "name": "standard"
    },
    {
      "pbrMetallicRoughness": {
        "baseColorFactor": [
          1.0,
          1.0,
          1.0,
          1.0
        ],
        "metallicFactor": 0.15,
        "roughnessFactor": 0.75
      },
      "emissiveFactor": [
        0.0,
        0.0,
        0.0
      ],
      "alphaMode": "OPAQUE",
      "doubleSided": false,
      "name": "standard"
    },
    {
      "pbrMetallicRoughness": {
        "baseColorFactor": [
          1.0,
          1.0,
          1.0,
          1.0
        ],
        "metallicFactor": 0.15,
        "roughnessFactor": 0.75
      },
      "emissiveFactor": [
        0.0,
        0.0,
        0.0
      ],
      "alphaMode": "OPAQUE",
      "doubleSided": false,
      "name": "standard"
    },
    {
      "pbrMetallicRoughness": {
        "baseColorFactor": [
          1.0,
          1.0,
          1.0,
          1.0
        ],
        "metallicFactor": 0.15,
        "roughnessFactor": 0.75
      },
      "emissiveFactor": [
        0.0,
        0.0,
        0.0
      ],
      "alphaMode": "OPAQUE",
      "doubleSided": false,
      "name": "standard"
    },
    {
      "pbrMetallicRoughness": {
        "baseColorFactor": [
          1.0,
          1.0,
          1.0,
          1.0
        ],
        "metallicFactor": 0.15,
        "roughnessFactor": 0.75
      },
      "emissiveFactor": [
        0.0,
        0.0,
        0.0
      ],
      "alphaMode": "OPAQUE",
      "doubleSided": false,
      "name": "standard"
    }
  ],
  "meshes": [
    {
      "primitives": [
        {
          "attributes": {
            "POSITION": 8,
            "NORMAL": 9,
            "TEXCOORD_0": 10
          },
          "indices": 11,
          "mode": 4,
          "material": 0
        }
      ],
      "name": "ExportedMesh"
    }
  ],
  "nodes": [
    {
      "mesh": 0,
      "name": "Model"
    }
  ],
  "scene": 0,
  "scenes": [
    {
      "nodes": [
        0
      ]
    }
  ]
}