{
  "accessors": [
    {
      "bufferView": 0,
      "byteOffset": 0,
      "componentType": 5126,
      "normalized": false,
      "count": 4756,
      "type": "VEC3",
      "max": [
        2.8012099266052246,
        5.766160011291504,
        2.2776899337768555
      ],
      "min": [
        -2.8012099266052246,
        -5.766160011291504,
        -2.2776899337768555
      ]
    },
    {
      "bufferView": 1,
      "byteOffset": 0,
      "componentType": 5126,
      "normalized": false,
      "count": 4756,
      "type": "VEC3",
      "max": [
        1.0,
        1.0,
        1.0
      ],
      "min": [
        -1.0,
        -1.0,
        -1.0
      ]
    },
    {
      "bufferView": 2,
      "byteOffset": 0,
      "componentType": 5126,
      "normalized": false,
      "count": 4756,
      "type": "VEC2",
      "max": [
        0.999983012676239,
        -0.002790987491607666
      ],
      "min": [
        0.006409999914467335,
        -0.9992660284042358
      ]
    },
    {
      "bufferView": 3,
      "byteOffset": 0,
      "componentType": 5123,
      "normalized": false,
      "count": 12282,
      "type": "SCALAR",
      "max": [
        4755.0
      ],
      "min": [
        0.0
      ]
    },
    {
      "bufferView": 4,
      "byteOffset": 0,
      "componentType": 5126,
      "normalized": false,
      "count": 2537,
      "type": "VEC3",
      "max": [
        2.8012099266052246,
        5.766160011291504,
        2.2776899337768555
      ],
      "min": [
        -2.8012099266052246,
        -5.766160011291504,
        -2.2776899337768555
      ]
    },
    {
      "bufferView": 5,
      "byteOffset": 0,
      "componentType": 5126,
      "normalized": false,
      "count": 2537,
      "type": "VEC3",
      "max": [
        1.0,
        1.0,
        0.9999992919493399
      ],
      "min": [
        -1.0,
        -1.0,
        -1.0
      ]
    },
    {
      "bufferView": 6,
      "byteOffset": 0,
      "componentType": 5126,
      "normalized": false,
      "count": 2537,
      "type": "VEC2",
      "max": [
        0.999983012676239,
        -0.002790987491607666
      ],
      "min": [
        0.006409999914467335,
        -0.9992660284042358
      ]
    },
    {
      "bufferView": 7,
      "byteOffset": 0,
      "componentType": 5123,
      "normalized": false,
      "count": 6924,
      "type": "SCALAR",
      "max": [
        2536.0
      ],
      "min": [
        0.0
      ]
    },
    {
      "bufferView": 8,
      "byteOffset": 0,
      "componentType": 5126,
      "normalized": false,
      "count": 581,
      "type": "VEC3",
      "max": [
        2.7853200435638428,
        5.72445011138916,
        2.2776899337768555
      ],
      "min": [
        -2.7856600284576416,
        -5.736939907073975,
        -2.2776899337768555
      ]
    },
    {
      "bufferView": 9,
      "byteOffset": 0,
      "componentType": 5126,
      "normalized": false,
      "count": 581,
      "type": "VEC3",
      "max": [
        0.9945442154204731,
        1.0,
        1.0
      ],
      "min": [
        -0.9945442154204731,
        -0.9939379753365085,
        -0.9999979287356279
      ]
    },
    {
      "bufferView": 10,
      "byteOffset": 0,
      "componentType": 5126,
      "normalized": false,
      "count": 581,
      "type": "VEC2",
      "max": [
        0.9946420192718506,
        -0.0062329769134521484
      ],
      "min": [
        0.006409999914467335,
        -0.9913740158081055
      ]
    },
    {
      "bufferView": 11,
      "byteOffset": 0,
      "componentType": 5123,
      "normalized": false,
      "count": 1452,
      "type": "SCALAR",
      "max": [
        580.0
      ],
      "min": [
        0.0
      ]
    }
  ],
  "asset": {
    "generator": "WCSaga Godot Converter",
    "version": "2.0"
  },
  "bufferViews": [
    {
      "buffer": 0,
      "byteOffset": 0,
      "byteLength": 57072,
      "target": 34962
    },
    {
      "buffer": 0,
      "byteOffset": 57072,
      "byteLength": 57072,
      "target": 34962
    },
    {
      "buffer": 0,
      "byteOffset": 114144,
      "byteLength": 38048,
      "target": 34962
    },
    {
      "buffer": 0,
      "byteOffset": 152192,
      "byteLength": 24564,
      "target": 34963
    },
    {
      "buffer": 0,
      "byteOffset": 176756,
      "byteLength": 30444,
      "target": 34962
    },
    {
      "buffer": 0,
      "byteOffset": 207200,
      "byteLength": 30444,
      "target": 34962
    },
    {
      "buffer": 0,
      "byteOffset": 237644,
      "byteLength": 20296,
      "target": 34962
    },
    {
      "buffer": 0,
      "byteOffset": 257940,
      "byteLength": 13848,
      "target": 34963
    },
    {
      "buffer": 0,
      "byteOffset": 271788,
      "byteLength": 6972,
      "target": 34962
    },
    {
      "buffer": 0,
      "byteOffset": 278760,
      "byteLength": 6972,
      "target": 34962
    },
    {
      "buffer": 0,
      "byteOffset": 285732,
      "byteLength": 4648,
      "target": 34962
    },
    {
      "buffer": 0,
      "byteOffset": 290380,
      "byteLength": 2904,
      "target": 34963
    }
  ],
  "buffers": [
    {
      "uri": "tcf_ferret-lod2.bin",
      "byteLength": 293284
    }
  ],
  "images": [
    {
      "uri": "confed_details_1_albedo.png",
      "mimeType": "image/png",
      "name": "confed_details_1_albedo_image"
    },
    {
      "uri": "confed_details_1_normal.png",
      "mimeType": "image/png",
      "name": "confed_details_1_normal_image"
    },
    {
      "uri": "confed_details_1_glow.png",
      "mimeType": "image/png",
      "name": "confed_details_1_glow_image"
    },
    {
      "uri": "confed_details_1_orm.png",
      "mimeType": "image/png",
      "name": "confed_details_1_orm_image"
    }
  ],
  "materials": [
    {
      "pbrMetallicRoughness": {
        "baseColorFactor": [
          1.0,
          1.0,
          1.0,
          1.0
        ],
        "metallicFactor": 0.15,
        "roughnessFactor": 0.75,
        "baseColorTexture": {
          "index": 0,
          "texCoord": 0
        },
        "metallicRoughnessTexture": {
          "index": 3,
          "texCoord": 0
        }
      },
      "normalTexture": {
        "index": 1,
        "texCoord": 0
      },
      "occlusionTexture": {
        "index": 3,
        "texCoord": 0
      },
      "emissiveFactor": [
        1.0,
        1.0,
        1.0
      ],
      "emissiveTexture": {
        "index": 2,
        "texCoord": 0
      },
      "alphaMode": "OPAQUE",
      "doubleSided": false,
      "name": "standard"
    },
    {
      "pbrMetallicRoughness": {
        "baseColorFactor": [
          1.0,
          1.0,
          1.0,
          1.0
        ],
        "metallicFactor": 0.15,
        "roughnessFactor": 0.75
      },
      "emissiveFactor": [
        0.0,
        0.0,
        0.0
      ],
      "alphaMode": "OPAQUE",
      "doubleSided": false,
      "name": "standard"
    },
    {
      "pbrMetallicRoughness": {
        "baseColorFactor": [
          1.0,
          1.0,
          1.0,
          1.0
        ],
        "metallicFactor": 0.15,
        "roughnessFactor": 0.75
      },
      "emissiveFactor": [
        0.0,
        0.0,
        0.0
      ],
      "alphaMode": "OPAQUE",
      "doubleSided": false,
      "name": "standard"
    }
  ],
  "meshes": [
    {
      "primitives": [
        {
          "attributes": {
            "POSITION": 8,
            "NORMAL": 9,
            "TEXCOORD_0": 10
          },
          "indices": 11,
          "mode": 4,
          "material": 0
        }
      ],
      "name": "ExportedMesh"
    }
  ],
  "nodes": [
    {
      "mesh": 0,
      "name": "Model"
    }
  ],
  "scene": 0,
  "scenes": [
    {
      "nodes": [
        0
      ]
    }
  ],
  "textures": [
    {
      "source": 0,
      "name": "confed_details_1_albedo_texture"
    },
    {
      "source": 1,
      "name": "confed_details_1_normal_texture"
    },
    {
      "source": 2,
      "name": "confed_details_1_glow_texture"
    },
    {
      "source": 3,
      "name": "confed_details_1_orm_texture"
    }
  ]
}