{
  "accessors": [
    {
      "bufferView": 0,
      "byteOffset": 0,
      "componentType": 5126,
      "normalized": false,
      "count": 816,
      "type": "VEC3",
      "max": [
        2.4424901008605957,
        2.952939987182617,
        2.8022000789642334
      ],
      "min": [
        -2.4424901008605957,
        -2.568350076675415,
        -2.439610004425049
      ]
    },
    {
      "bufferView": 1,
      "byteOffset": 0,
      "componentType": 5126,
      "normalized": false,
      "count": 816,
      "type": "VEC3",
      "max": [
        0.9088835384610479,
        1.0,
        1.0
      ],
      "min": [
        -0.9088830861100706,
        -0.999999999998,
        -1.0
      ]
    },
    {
      "bufferView": 2,
      "byteOffset": 0,
      "componentType": 5126,
      "normalized": false,
      "count": 816,
      "type": "VEC2",
      "max": [
        0.9868410229682922,
        -0.01903599500656128
      ],
      "min": [
        0.01607700064778328,
        -0.9757819771766663
      ]
    },
    {
      "bufferView": 3,
      "byteOffset": 0,
      "componentType": 5123,
      "normalized": false,
      "count": 1284,
      "type": "SCALAR",
      "max": [
        815.0
      ],
      "min": [
        0.0
      ]
    }
  ],
  "asset": {
    "generator": "WCSaga Godot Converter",
    "version": "2.0"
  },
  "bufferViews": [
    {
      "buffer": 0,
      "byteOffset": 0,
      "byteLength": 9792,
      "target": 34962
    },
    {
      "buffer": 0,
      "byteOffset": 9792,
      "byteLength": 9792,
      "target": 34962
    },
    {
      "buffer": 0,
      "byteOffset": 19584,
      "byteLength": 6528,
      "target": 34962
    },
    {
      "buffer": 0,
      "byteOffset": 26112,
      "byteLength": 2568,
      "target": 34963
    }
  ],
  "buffers": [
    {
      "uri": "kim_scratch.bin",
      "byteLength": 28680
    }
  ],
  "images": [
    {
      "uri": "kim_scratch_1_albedo.png",
      "mimeType": "image/png",
      "name": "kim_scratch_1_albedo_image"
    },
    {
      "uri": "kim_scratch_1_orm.png",
      "mimeType": "image/png",
      "name": "kim_scratch_1_orm_image"
    }
  ],
  "materials": [
    {
      "pbrMetallicRoughness": {
        "baseColorFactor": [
          1.0,
          1.0,
          1.0,
          1.0
        ],
        "metallicFactor": 0.15,
        "roughnessFactor": 0.75,
        "baseColorTexture": {
          "index": 0,
          "texCoord": 0
        },
        "metallicRoughnessTexture": {
          "index": 1,
          "texCoord": 0
        }
      },
      "occlusionTexture": {
        "index": 1,
        "texCoord": 0
      },
      "emissiveFactor": [
        0.0,
        0.0,
        0.0
      ],
      "alphaMode": "OPAQUE",
      "doubleSided": false,
      "name": "standard"
    }
  ],
  "meshes": [
    {
      "primitives": [
        {
          "attributes": {
            "POSITION": 0,
            "NORMAL": 1,
            "TEXCOORD_0": 2
          },
          "indices": 3,
          "mode": 4,
          "material": 0
        }
      ],
      "name": "ExportedMesh"
    }
  ],
  "nodes": [
    {
      "mesh": 0,
      "name": "Model"
    }
  ],
  "scene": 0,
  "scenes": [
    {
      "nodes": [
        0
      ]
    }
  ],
  "textures": [
    {
      "source": 0,
      "name": "kim_scratch_1_albedo_texture"
    },
    {
      "source": 1,
      "name": "kim_scratch_1_orm_texture"
    }
  ]
}