{
  "accessors": [
    {
      "bufferView": 0,
      "byteOffset": 0,
      "componentType": 5126,
      "normalized": false,
      "count": 8513,
      "type": "VEC3",
      "max": [
        9.623290061950684,
        7.210010051727295,
        3.013010025024414
      ],
      "min": [
        -9.623290061950684,
        -7.210010051727295,
        -3.013010025024414
      ]
    },
    {
      "bufferView": 1,
      "byteOffset": 0,
      "componentType": 5126,
      "normalized": false,
      "count": 8513,
      "type": "VEC3",
      "max": [
        1.0,
        1.0,
        1.0
      ],
      "min": [
        -1.0,
        -1.0,
        -1.0
      ]
    },
    {
      "bufferView": 2,
      "byteOffset": 0,
      "componentType": 5126,
      "normalized": false,
      "count": 8513,
      "type": "VEC2",
      "max": [
        0.9984220266342163,
        -0.003647029399871826
      ],
      "min": [
        0.005948000121861696,
        -0.9966650009155273
      ]
    },
    {
      "bufferView": 3,
      "byteOffset": 0,
      "componentType": 5123,
      "normalized": false,
      "count": 19548,
      "type": "SCALAR",
      "max": [
        8512.0
      ],
      "min": [
        0.0
      ]
    }
  ],
  "asset": {
    "generator": "WCSaga Godot Converter",
    "version": "2.0"
  },
  "bufferViews": [
    {
      "buffer": 0,
      "byteOffset": 0,
      "byteLength": 102156,
      "target": 34962
    },
    {
      "buffer": 0,
      "byteOffset": 102156,
      "byteLength": 102156,
      "target": 34962
    },
    {
      "buffer": 0,
      "byteOffset": 204312,
      "byteLength": 68104,
      "target": 34962
    },
    {
      "buffer": 0,
      "byteOffset": 272416,
      "byteLength": 39096,
      "target": 34963
    }
  ],
  "buffers": [
    {
      "uri": "tcb_sabre.bin",
      "byteLength": 311512
    }
  ],
  "images": [
    {
      "uri": "confed_details_1_albedo.png",
      "mimeType": "image/png",
      "name": "confed_details_1_albedo_image"
    },
    {
      "uri": "confed_details_1_normal.png",
      "mimeType": "image/png",
      "name": "confed_details_1_normal_image"
    },
    {
      "uri": "confed_details_1_glow.png",
      "mimeType": "image/png",
      "name": "confed_details_1_glow_image"
    },
    {
      "uri": "confed_details_1_orm.png",
      "mimeType": "image/png",
      "name": "confed_details_1_orm_image"
    }
  ],
  "materials": [
    {
      "pbrMetallicRoughness": {
        "baseColorFactor": [
          1.0,
          1.0,
          1.0,
          1.0
        ],
        "metallicFactor": 0.15,
        "roughnessFactor": 0.75,
        "baseColorTexture": {
          "index": 0,
          "texCoord": 0
        },
        "metallicRoughnessTexture": {
          "index": 3,
          "texCoord": 0
        }
      },
      "normalTexture": {
        "index": 1,
        "texCoord": 0
      },
      "occlusionTexture": {
        "index": 3,
        "texCoord": 0
      },
      "emissiveFactor": [
        1.0,
        1.0,
        1.0
      ],
      "emissiveTexture": {
        "index": 2,
        "texCoord": 0
      },
      "alphaMode": "OPAQUE",
      "doubleSided": false,
      "name": "standard"
    },
    {
      "pbrMetallicRoughness": {
        "baseColorFactor": [
          1.0,
          1.0,
          1.0,
          1.0
        ],
        "metallicFactor": 0.15,
        "roughnessFactor": 0.75
      },
      "emissiveFactor": [
        0.0,
        0.0,
        0.0
      ],
      "alphaMode": "OPAQUE",
      "doubleSided": false,
      "name": "standard"
    },
    {
      "pbrMetallicRoughness": {
        "baseColorFactor": [
          1.0,
          1.0,
          1.0,
          1.0
        ],
        "metallicFactor": 0.15,
        "roughnessFactor": 0.75
      },
      "emissiveFactor": [
        0.0,
        0.0,
        0.0
      ],
      "alphaMode": "OPAQUE",
      "doubleSided": false,
      "name": "standard"
    },
    {
      "pbrMetallicRoughness": {
        "baseColorFactor": [
          1.0,
          1.0,
          1.0,
          1.0
        ],
        "metallicFactor": 0.15,
        "roughnessFactor": 0.75
      },
      "emissiveFactor": [
        0.0,
        0.0,
        0.0
      ],
      "alphaMode": "OPAQUE",
      "doubleSided": false,
      "name": "standard"
    }
  ],
  "meshes": [
    {
      "primitives": [
        {
          "attributes": {
            "POSITION": 0,
            "NORMAL": 1,
            "TEXCOORD_0": 2
          },
          "indices": 3,
          "mode": 4,
          "material": 0
        }
      ],
      "name": "ExportedMesh"
    }
  ],
  "nodes": [
    {
      "mesh": 0,
      "name": "Model"
    }
  ],
  "scene": 0,
  "scenes": [
    {
      "nodes": [
        0
      ]
    }
  ],
  "textures": [
    {
      "source": 0,
      "name": "confed_details_1_albedo_texture"
    },
    {
      "source": 1,
      "name": "confed_details_1_normal_texture"
    },
    {
      "source": 2,
      "name": "confed_details_1_glow_texture"
    },
    {
      "source": 3,
      "name": "confed_details_1_orm_texture"
    }
  ]
}