{
  "accessors": [
    {
      "bufferView": 0,
      "byteOffset": 0,
      "componentType": 5126,
      "normalized": false,
      "count": 8175,
      "type": "VEC3",
      "max": [
        5.471630096435547,
        9.922880172729492,
        2.0869998931884766
      ],
      "min": [
        -5.470900058746338,
        -11.013500213623047,
        -2.0897998809814453
      ]
    },
    {
      "bufferView": 1,
      "byteOffset": 0,
      "componentType": 5126,
      "normalized": false,
      "count": 8175,
      "type": "VEC3",
      "max": [
        1.0,
        1.0,
        1.0
      ],
      "min": [
        -1.0,
        -1.0,
        -1.0
      ]
    },
    {
      "bufferView": 2,
      "byteOffset": 0,
      "componentType": 5126,
      "normalized": false,
      "count": 8175,
      "type": "VEC2",
      "max": [
        0.9901149868965149,
        -0.01409900188446045
      ],
      "min": [
        0.004805999808013439,
        -0.9890909790992737
      ]
    },
    {
      "bufferView": 3,
      "byteOffset": 0,
      "componentType": 5123,
      "normalized": false,
      "count": 18462,
      "type": "SCALAR",
      "max": [
        8174.0
      ],
      "min": [
        0.0
      ]
    },
    {
      "bufferView": 4,
      "byteOffset": 0,
      "componentType": 5126,
      "normalized": false,
      "count": 7427,
      "type": "VEC3",
      "max": [
        5.471630096435547,
        10.06309986114502,
        2.0869998931884766
      ],
      "min": [
        -5.470900058746338,
        -11.013500213623047,
        -2.0897998809814453
      ]
    },
    {
      "bufferView": 5,
      "byteOffset": 0,
      "componentType": 5126,
      "normalized": false,
      "count": 7427,
      "type": "VEC3",
      "max": [
        1.0,
        1.0,
        1.0
      ],
      "min": [
        -1.0,
        -1.0,
        -1.0
      ]
    },
    {
      "bufferView": 6,
      "byteOffset": 0,
      "componentType": 5126,
      "normalized": false,
      "count": 7427,
      "type": "VEC2",
      "max": [
        0.9901149868965149,
        -0.01409900188446045
      ],
      "min": [
        0.004805999808013439,
        -0.9890909790992737
      ]
    },
    {
      "bufferView": 7,
      "byteOffset": 0,
      "componentType": 5123,
      "normalized": false,
      "count": 17058,
      "type": "SCALAR",
      "max": [
        7426.0
      ],
      "min": [
        0.0
      ]
    }
  ],
  "asset": {
    "generator": "WCSaga Godot Converter",
    "version": "2.0"
  },
  "bufferViews": [
    {
      "buffer": 0,
      "byteOffset": 0,
      "byteLength": 98100,
      "target": 34962
    },
    {
      "buffer": 0,
      "byteOffset": 98100,
      "byteLength": 98100,
      "target": 34962
    },
    {
      "buffer": 0,
      "byteOffset": 196200,
      "byteLength": 65400,
      "target": 34962
    },
    {
      "buffer": 0,
      "byteOffset": 261600,
      "byteLength": 36924,
      "target": 34963
    },
    {
      "buffer": 0,
      "byteOffset": 298524,
      "byteLength": 89124,
      "target": 34962
    },
    {
      "buffer": 0,
      "byteOffset": 387648,
      "byteLength": 89124,
      "target": 34962
    },
    {
      "buffer": 0,
      "byteOffset": 476772,
      "byteLength": 59416,
      "target": 34962
    },
    {
      "buffer": 0,
      "byteOffset": 536188,
      "byteLength": 34116,
      "target": 34963
    }
  ],
  "buffers": [
    {
      "uri": "tcb_thunderbolt_vii-lod1.bin",
      "byteLength": 570304
    }
  ],
  "images": [
    {
      "uri": "tcb_thunderbolt_1_albedo.png",
      "mimeType": "image/png",
      "name": "tcb_thunderbolt_1_albedo_image"
    },
    {
      "uri": "tcb_thunderbolt_1_normal.png",
      "mimeType": "image/png",
      "name": "tcb_thunderbolt_1_normal_image"
    },
    {
      "uri": "tcb_thunderbolt_1_glow.png",
      "mimeType": "image/png",
      "name": "tcb_thunderbolt_1_glow_image"
    },
    {
      "uri": "tcb_thunderbolt_1_orm.png",
      "mimeType": "image/png",
      "name": "tcb_thunderbolt_1_orm_image"
    }
  ],
  "materials": [
    {
      "pbrMetallicRoughness": {
        "baseColorFactor": [
          1.0,
          1.0,
          1.0,
          1.0
        ],
        "metallicFactor": 0.15,
        "roughnessFactor": 0.75,
        "baseColorTexture": {
          "index": 0,
          "texCoord": 0
        },
        "metallicRoughnessTexture": {
          "index": 3,
          "texCoord": 0
        }
      },
      "normalTexture": {
        "index": 1,
        "texCoord": 0
      },
      "occlusionTexture": {
        "index": 3,
        "texCoord": 0
      },
      "emissiveFactor": [
        1.0,
        1.0,
        1.0
      ],
      "emissiveTexture": {
        "index": 2,
        "texCoord": 0
      },
      "alphaMode": "OPAQUE",
      "doubleSided": false,
      "name": "standard"
    }
  ],
  "meshes": [
    {
      "primitives": [
        {
          "attributes": {
            "POSITION": 4,
            "NORMAL": 5,
            "TEXCOORD_0": 6
          },
          "indices": 7,
          "mode": 4,
          "material": 0
        }
      ],
      "name": "ExportedMesh"
    }
  ],
  "nodes": [
    {
      "mesh": 0,
      "name": "Model"
    }
  ],
  "scene": 0,
  "scenes": [
    {
      "nodes": [
        0
      ]
    }
  ],
  "textures": [
    {
      "source": 0,
      "name": "tcb_thunderbolt_1_albedo_texture"
    },
    {
      "source": 1,
      "name": "tcb_thunderbolt_1_normal_texture"
    },
    {
      "source": 2,
      "name": "tcb_thunderbolt_1_glow_texture"
    },
    {
      "source": 3,
      "name": "tcb_thunderbolt_1_orm_texture"
    }
  ]
}