{
  "accessors": [
    {
      "bufferView": 0,
      "byteOffset": 0,
      "componentType": 5126,
      "normalized": false,
      "count": 4904,
      "type": "VEC3",
      "max": [
        4.856490135192871,
        6.491819858551025,
        1.9931299686431885
      ],
      "min": [
        -4.808949947357178,
        -6.874110221862793,
        -2.1896800994873047
      ]
    },
    {
      "bufferView": 1,
      "byteOffset": 0,
      "componentType": 5126,
      "normalized": false,
      "count": 4904,
      "type": "VEC3",
      "max": [
        1.0,
        1.0,
        1.0
      ],
      "min": [
        -1.0,
        -1.0,
        -1.0
      ]
    },
    {
      "bufferView": 2,
      "byteOffset": 0,
      "componentType": 5126,
      "normalized": false,
      "count": 4904,
      "type": "VEC2",
      "max": [
        0.9826430082321167,
        -0.021296977996826172
      ],
      "min": [
        0.01665399968624115,
        -0.9805120229721069
      ]
    },
    {
      "bufferView": 3,
      "byteOffset": 0,
      "componentType": 5123,
      "normalized": false,
      "count": 13386,
      "type": "SCALAR",
      "max": [
        4903.0
      ],
      "min": [
        0.0
      ]
    },
    {
      "bufferView": 4,
      "byteOffset": 0,
      "componentType": 5126,
      "normalized": false,
      "count": 1457,
      "type": "VEC3",
      "max": [
        4.856490135192871,
        6.458010196685791,
        1.9815900325775146
      ],
      "min": [
        -4.808949947357178,
        -6.874110221862793,
        -2.1896800994873047
      ]
    },
    {
      "bufferView": 5,
      "byteOffset": 0,
      "componentType": 5126,
      "normalized": false,
      "count": 1457,
      "type": "VEC3",
      "max": [
        0.9999997091471166,
        1.0,
        1.0
      ],
      "min": [
        -0.9999997088556146,
        -1.0,
        -1.0
      ]
    },
    {
      "bufferView": 6,
      "byteOffset": 0,
      "componentType": 5126,
      "normalized": false,
      "count": 1457,
      "type": "VEC2",
      "max": [
        0.9826430082321167,
        -0.021296977996826172
      ],
      "min": [
        0.006448000203818083,
        -0.978534996509552
      ]
    },
    {
      "bufferView": 7,
      "byteOffset": 0,
      "componentType": 5123,
      "normalized": false,
      "count": 3369,
      "type": "SCALAR",
      "max": [
        1456.0
      ],
      "min": [
        0.0
      ]
    }
  ],
  "asset": {
    "generator": "WCSaga Godot Converter",
    "version": "2.0"
  },
  "bufferViews": [
    {
      "buffer": 0,
      "byteOffset": 0,
      "byteLength": 58848,
      "target": 34962
    },
    {
      "buffer": 0,
      "byteOffset": 58848,
      "byteLength": 58848,
      "target": 34962
    },
    {
      "buffer": 0,
      "byteOffset": 117696,
      "byteLength": 39232,
      "target": 34962
    },
    {
      "buffer": 0,
      "byteOffset": 156928,
      "byteLength": 26772,
      "target": 34963
    },
    {
      "buffer": 0,
      "byteOffset": 183700,
      "byteLength": 17484,
      "target": 34962
    },
    {
      "buffer": 0,
      "byteOffset": 201184,
      "byteLength": 17484,
      "target": 34962
    },
    {
      "buffer": 0,
      "byteOffset": 218668,
      "byteLength": 11656,
      "target": 34962
    },
    {
      "buffer": 0,
      "byteOffset": 230324,
      "byteLength": 6738,
      "target": 34963
    }
  ],
  "buffers": [
    {
      "uri": "tcf_arrow-lod1.bin",
      "byteLength": 237064
    }
  ],
  "images": [
    {
      "uri": "tcf_arrow_albedo.png",
      "mimeType": "image/png",
      "name": "tcf_arrow_albedo_image"
    },
    {
      "uri": "tcf_arrow_normal.png",
      "mimeType": "image/png",
      "name": "tcf_arrow_normal_image"
    },
    {
      "uri": "tcf_arrow_glow.png",
      "mimeType": "image/png",
      "name": "tcf_arrow_glow_image"
    },
    {
      "uri": "tcf_arrow_orm.png",
      "mimeType": "image/png",
      "name": "tcf_arrow_orm_image"
    }
  ],
  "materials": [
    {
      "pbrMetallicRoughness": {
        "baseColorFactor": [
          1.0,
          1.0,
          1.0,
          1.0
        ],
        "metallicFactor": 0.15,
        "roughnessFactor": 0.75,
        "baseColorTexture": {
          "index": 0,
          "texCoord": 0
        },
        "metallicRoughnessTexture": {
          "index": 3,
          "texCoord": 0
        }
      },
      "normalTexture": {
        "index": 1,
        "texCoord": 0
      },
      "occlusionTexture": {
        "index": 3,
        "texCoord": 0
      },
      "emissiveFactor": [
        1.0,
        1.0,
        1.0
      ],
      "emissiveTexture": {
        "index": 2,
        "texCoord": 0
      },
      "alphaMode": "OPAQUE",
      "doubleSided": false,
      "name": "standard"
    }
  ],
  "meshes": [
    {
      "primitives": [
        {
          "attributes": {
            "POSITION": 4,
            "NORMAL": 5,
            "TEXCOORD_0": 6
          },
          "indices": 7,
          "mode": 4,
          "material": 0
        }
      ],
      "name": "ExportedMesh"
    }
  ],
  "nodes": [
    {
      "mesh": 0,
      "name": "Model"
    }
  ],
  "scene": 0,
  "scenes": [
    {
      "nodes": [
        0
      ]
    }
  ],
  "textures": [
    {
      "source": 0,
      "name": "tcf_arrow_albedo_texture"
    },
    {
      "source": 1,
      "name": "tcf_arrow_normal_texture"
    },
    {
      "source": 2,
      "name": "tcf_arrow_glow_texture"
    },
    {
      "source": 3,
      "name": "tcf_arrow_orm_texture"
    }
  ]
}