{
  "accessors": [
    {
      "bufferView": 0,
      "byteOffset": 0,
      "componentType": 5126,
      "normalized": false,
      "count": 1900,
      "type": "VEC3",
      "max": [
        0.23603500425815582,
        0.941586971282959,
        0.23603500425815582
      ],
      "min": [
        -0.23603500425815582,
        -0.941586971282959,
        -0.23603500425815582
      ]
    },
    {
      "bufferView": 1,
      "byteOffset": 0,
      "componentType": 5126,
      "normalized": false,
      "count": 1900,
      "type": "VEC3",
      "max": [
        1.0,
        1.0,
        1.0
      ],
      "min": [
        -1.0,
        -0.9999998696790161,
        -1.0
      ]
    },
    {
      "bufferView": 2,
      "byteOffset": 0,
      "componentType": 5126,
      "normalized": false,
      "count": 1900,
      "type": "VEC2",
      "max": [
        0.9948819875717163,
        -0.005841970443725586
      ],
      "min": [
        0.007029999978840351,
        -0.9917889833450317
      ]
    },
    {
      "bufferView": 3,
      "byteOffset": 0,
      "componentType": 5123,
      "normalized": false,
      "count": 4074,
      "type": "SCALAR",
      "max": [
        1899.0
      ],
      "min": [
        0.0
      ]
    }
  ],
  "asset": {
    "generator": "WCSaga Godot Converter",
    "version": "2.0"
  },
  "bufferViews": [
    {
      "buffer": 0,
      "byteOffset": 0,
      "byteLength": 22800,
      "target": 34962
    },
    {
      "buffer": 0,
      "byteOffset": 22800,
      "byteLength": 22800,
      "target": 34962
    },
    {
      "buffer": 0,
      "byteOffset": 45600,
      "byteLength": 15200,
      "target": 34962
    },
    {
      "buffer": 0,
      "byteOffset": 60800,
      "byteLength": 8148,
      "target": 34963
    }
  ],
  "buffers": [
    {
      "uri": "tcm_javelin.bin",
      "byteLength": 68948
    }
  ],
  "images": [
    {
      "uri": "tcm_javelin_albedo.png",
      "mimeType": "image/png",
      "name": "tcm_javelin_albedo_image"
    },
    {
      "uri": "tcm_javelin_orm.png",
      "mimeType": "image/png",
      "name": "tcm_javelin_orm_image"
    }
  ],
  "materials": [
    {
      "pbrMetallicRoughness": {
        "baseColorFactor": [
          1.0,
          1.0,
          1.0,
          1.0
        ],
        "metallicFactor": 0.15,
        "roughnessFactor": 0.75,
        "baseColorTexture": {
          "index": 0,
          "texCoord": 0
        },
        "metallicRoughnessTexture": {
          "index": 1,
          "texCoord": 0
        }
      },
      "occlusionTexture": {
        "index": 1,
        "texCoord": 0
      },
      "emissiveFactor": [
        0.0,
        0.0,
        0.0
      ],
      "alphaMode": "OPAQUE",
      "doubleSided": false,
      "name": "standard"
    }
  ],
  "meshes": [
    {
      "primitives": [
        {
          "attributes": {
            "POSITION": 0,
            "NORMAL": 1,
            "TEXCOORD_0": 2
          },
          "indices": 3,
          "mode": 4,
          "material": 0
        }
      ],
      "name": "ExportedMesh"
    }
  ],
  "nodes": [
    {
      "mesh": 0,
      "name": "Model"
    }
  ],
  "scene": 0,
  "scenes": [
    {
      "nodes": [
        0
      ]
    }
  ],
  "textures": [
    {
      "source": 0,
      "name": "tcm_javelin_albedo_texture"
    },
    {
      "source": 1,
      "name": "tcm_javelin_orm_texture"
    }
  ]
}