{
  "accessors": [
    {
      "bufferView": 0,
      "byteOffset": 0,
      "componentType": 5126,
      "normalized": false,
      "count": 768,
      "type": "VEC3",
      "max": [
        10.087484359741211,
        9.001544952392578,
        1.594726324081421
      ],
      "min": [
        -10.087484359741211,
        -9.001545906066895,
        -2.0246236324310303
      ]
    },
    {
      "bufferView": 1,
      "byteOffset": 0,
      "componentType": 5126,
      "normalized": false,
      "count": 768,
      "type": "VEC3",
      "max": [
        0.9899884547259162,
        0.9958382033205915,
        0.9979244714669323
      ],
      "min": [
        -0.989988501723195,
        -1.0,
        -0.9997075922643411
      ]
    },
    {
      "bufferView": 2,
      "byteOffset": 0,
      "componentType": 5126,
      "normalized": false,
      "count": 768,
      "type": "VEC2",
      "max": [
        0.9999997615814209,
        -3.725290298461914e-09
      ],
      "min": [
        0.0,
        -1.0
      ]
    },
    {
      "bufferView": 3,
      "byteOffset": 0,
      "componentType": 5123,
      "normalized": false,
      "count": 2982,
      "type": "SCALAR",
      "max": [
        767.0
      ],
      "min": [
        0.0
      ]
    },
    {
      "bufferView": 4,
      "byteOffset": 0,
      "componentType": 5126,
      "normalized": false,
      "count": 1926,
      "type": "VEC3",
      "max": [
        10.087480545043945,
        9.00153923034668,
        1.5947219133377075
      ],
      "min": [
        -10.087480545043945,
        -9.001540184020996,
        -2.024618148803711
      ]
    },
    {
      "bufferView": 5,
      "byteOffset": 0,
      "componentType": 5126,
      "normalized": false,
      "count": 1926,
      "type": "VEC3",
      "max": [
        1.0,
        1.0,
        0.9999318418030786
      ],
      "min": [
        -1.0,
        -1.0,
        -0.9999748796722236
      ]
    },
    {
      "bufferView": 6,
      "byteOffset": 0,
      "componentType": 5126,
      "normalized": false,
      "count": 1926,
      "type": "VEC2",
      "max": [
        0.9999997615814209,
        -1.1920928955078125e-07
      ],
      "min": [
        0.0,
        -1.0
      ]
    },
    {
      "bufferView": 7,
      "byteOffset": 0,
      "componentType": 5123,
      "normalized": false,
      "count": 2982,
      "type": "SCALAR",
      "max": [
        1925.0
      ],
      "min": [
        0.0
      ]
    },
    {
      "bufferView": 8,
      "byteOffset": 0,
      "componentType": 5126,
      "normalized": false,
      "count": 1065,
      "type": "VEC3",
      "max": [
        10.087480545043945,
        9.001544952392578,
        1.594726324081421
      ],
      "min": [
        -10.087480545043945,
        -9.001544952392578,
        -2.0246236324310303
      ]
    },
    {
      "bufferView": 9,
      "byteOffset": 0,
      "componentType": 5126,
      "normalized": false,
      "count": 1065,
      "type": "VEC3",
      "max": [
        1.0,
        1.0,
        0.9999318414986428
      ],
      "min": [
        -1.0,
        -0.9585383151749307,
        -0.9999748796755242
      ]
    },
    {
      "bufferView": 10,
      "byteOffset": 0,
      "componentType": 5126,
      "normalized": false,
      "count": 1065,
      "type": "VEC2",
      "max": [
        0.9999997615814209,
        -1.1920928955078125e-07
      ],
      "min": [
        0.0,
        -1.0
      ]
    },
    {
      "bufferView": 11,
      "byteOffset": 0,
      "componentType": 5123,
      "normalized": false,
      "count": 1734,
      "type": "SCALAR",
      "max": [
        1064.0
      ],
      "min": [
        0.0
      ]
    }
  ],
  "asset": {
    "generator": "WCSaga Godot Converter",
    "version": "2.0"
  },
  "bufferViews": [
    {
      "buffer": 0,
      "byteOffset": 0,
      "byteLength": 9216,
      "target": 34962
    },
    {
      "buffer": 0,
      "byteOffset": 9216,
      "byteLength": 9216,
      "target": 34962
    },
    {
      "buffer": 0,
      "byteOffset": 18432,
      "byteLength": 6144,
      "target": 34962
    },
    {
      "buffer": 0,
      "byteOffset": 24576,
      "byteLength": 5964,
      "target": 34963
    },
    {
      "buffer": 0,
      "byteOffset": 30540,
      "byteLength": 23112,
      "target": 34962
    },
    {
      "buffer": 0,
      "byteOffset": 53652,
      "byteLength": 23112,
      "target": 34962
    },
    {
      "buffer": 0,
      "byteOffset": 76764,
      "byteLength": 15408,
      "target": 34962
    },
    {
      "buffer": 0,
      "byteOffset": 92172,
      "byteLength": 5964,
      "target": 34963
    },
    {
      "buffer": 0,
      "byteOffset": 98136,
      "byteLength": 12780,
      "target": 34962
    },
    {
      "buffer": 0,
      "byteOffset": 110916,
      "byteLength": 12780,
      "target": 34962
    },
    {
      "buffer": 0,
      "byteOffset": 123696,
      "byteLength": 8520,
      "target": 34962
    },
    {
      "buffer": 0,
      "byteOffset": 132216,
      "byteLength": 3468,
      "target": 34963
    }
  ],
  "buffers": [
    {
      "uri": "kif_gothri-lod2.bin",
      "byteLength": 135684
    }
  ],
  "materials": [
    {
      "pbrMetallicRoughness": {
        "baseColorFactor": [
          1.0,
          1.0,
          1.0,
          1.0
        ],
        "metallicFactor": 0.15,
        "roughnessFactor": 0.75
      },
      "emissiveFactor": [
        0.0,
        0.0,
        0.0
      ],
      "alphaMode": "OPAQUE",
      "doubleSided": false,
      "name": "standard"
    },
    {
      "pbrMetallicRoughness": {
        "baseColorFactor": [
          1.0,
          1.0,
          1.0,
          1.0
        ],
        "metallicFactor": 0.15,
        "roughnessFactor": 0.75
      },
      "emissiveFactor": [
        0.0,
        0.0,
        0.0
      ],
      "alphaMode": "OPAQUE",
      "doubleSided": false,
      "name": "standard"
    },
    {
      "pbrMetallicRoughness": {
        "baseColorFactor": [
          1.0,
          1.0,
          1.0,
          1.0
        ],
        "metallicFactor": 0.15,
        "roughnessFactor": 0.75
      },
      "emissiveFactor": [
        0.0,
        0.0,
        0.0
      ],
      "alphaMode": "OPAQUE",
      "doubleSided": false,
      "name": "standard"
    },
    {
      "pbrMetallicRoughness": {
        "baseColorFactor": [
          1.0,
          1.0,
          1.0,
          1.0
        ],
        "metallicFactor": 0.15,
        "roughnessFactor": 0.75
      },
      "emissiveFactor": [
        0.0,
        0.0,
        0.0
      ],
      "alphaMode": "OPAQUE",
      "doubleSided": false,
      "name": "standard"
    },
    {
      "pbrMetallicRoughness": {
        "baseColorFactor": [
          1.0,
          1.0,
          1.0,
          1.0
        ],
        "metallicFactor": 0.15,
        "roughnessFactor": 0.75
      },
      "emissiveFactor": [
        0.0,
        0.0,
        0.0
      ],
      "alphaMode": "OPAQUE",
      "doubleSided": false,
      "name": "standard"
    },
    {
      "pbrMetallicRoughness": {
        "baseColorFactor": [
          1.0,
          1.0,
          1.0,
          1.0
        ],
        "metallicFactor": 0.15,
        "roughnessFactor": 0.75
      },
      "emissiveFactor": [
        0.0,
        0.0,
        0.0
      ],
      "alphaMode": "OPAQUE",
      "doubleSided": false,
      "name": "standard"
    },
    {
      "pbrMetallicRoughness": {
        "baseColorFactor": [
          1.0,
          1.0,
          1.0,
          1.0
        ],
        "metallicFactor": 0.15,
        "roughnessFactor": 0.75
      },
      "emissiveFactor": [
        0.0,
        0.0,
        0.0
      ],
      "alphaMode": "OPAQUE",
      "doubleSided": false,
      "name": "standard"
    },
    {
      "pbrMetallicRoughness": {
        "baseColorFactor": [
          1.0,
          1.0,
          1.0,
          1.0
        ],
        "metallicFactor": 0.15,
        "roughnessFactor": 0.75
      },
      "emissiveFactor": [
        0.0,
        0.0,
        0.0
      ],
      "alphaMode": "OPAQUE",
      "doubleSided": false,
      "name": "standard"
    },
    {
      "pbrMetallicRoughness": {
        "baseColorFactor": [
          1.0,
          1.0,
          1.0,
          1.0
        ],
        "metallicFactor": 0.15,
        "roughnessFactor": 0.75
      },
      "emissiveFactor": [
        0.0,
        0.0,
        0.0
      ],
      "alphaMode": "OPAQUE",
      "doubleSided": false,
      "name": "standard"
    },
    {
      "pbrMetallicRoughness": {
        "baseColorFactor": [
          1.0,
          1.0,
          1.0,
          1.0
        ],
        "metallicFactor": 0.15,
        "roughnessFactor": 0.75
      },
      "emissiveFactor": [
        0.0,
        0.0,
        0.0
      ],
      "alphaMode": "OPAQUE",
      "doubleSided": false,
      "name": "standard"
    }
  ],
  "meshes": [
    {
      "primitives": [
        {
          "attributes": {
            "POSITION": 8,
            "NORMAL": 9,
            "TEXCOORD_0": 10
          },
          "indices": 11,
          "mode": 4,
          "material": 0
        }
      ],
      "name": "ExportedMesh"
    }
  ],
  "nodes": [
    {
      "mesh": 0,
      "name": "Model"
    }
  ],
  "scene": 0,
  "scenes": [
    {
      "nodes": [
        0
      ]
    }
  ]
}