{
  "accessors": [
    {
      "bufferView": 0,
      "byteOffset": 0,
      "componentType": 5126,
      "normalized": false,
      "count": 1920,
      "type": "VEC3",
      "max": [
        9.687499046325684,
        7.798436641693115,
        1.2593748569488525
      ],
      "min": [
        -9.6875,
        -7.798437118530273,
        -1.2593748569488525
      ]
    },
    {
      "bufferView": 1,
      "byteOffset": 0,
      "componentType": 5126,
      "normalized": false,
      "count": 1920,
      "type": "VEC3",
      "max": [
        0.999999588640584,
        1.0,
        1.0
      ],
      "min": [
        -0.9999999955017803,
        -0.9999999943652852,
        -0.9999999999999662
      ]
    },
    {
      "bufferView": 2,
      "byteOffset": 0,
      "componentType": 5126,
      "normalized": false,
      "count": 1920,
      "type": "VEC2",
      "max": [
        0.9850100874900818,
        -5.9485435485839844e-05
      ],
      "min": [
        0.0013311892980709672,
        -0.9999980926513672
      ]
    },
    {
      "bufferView": 3,
      "byteOffset": 0,
      "componentType": 5123,
      "normalized": false,
      "count": 3351,
      "type": "SCALAR",
      "max": [
        1919.0
      ],
      "min": [
        0.0
      ]
    },
    {
      "bufferView": 4,
      "byteOffset": 0,
      "componentType": 5126,
      "normalized": false,
      "count": 1347,
      "type": "VEC3",
      "max": [
        9.687499046325684,
        7.798436641693115,
        1.2593748569488525
      ],
      "min": [
        -9.6875,
        -7.798437118530273,
        -1.2593748569488525
      ]
    },
    {
      "bufferView": 5,
      "byteOffset": 0,
      "componentType": 5126,
      "normalized": false,
      "count": 1347,
      "type": "VEC3",
      "max": [
        0.999999588640584,
        1.0,
        1.0
      ],
      "min": [
        -0.9999995877565568,
        -0.9999995981077603,
        -0.9999999999999662
      ]
    },
    {
      "bufferView": 6,
      "byteOffset": 0,
      "componentType": 5126,
      "normalized": false,
      "count": 1347,
      "type": "VEC2",
      "max": [
        0.9987535036634654,
        -5.9485435485839844e-05
      ],
      "min": [
        0.004121968522667885,
        -0.9999980926513672
      ]
    },
    {
      "bufferView": 7,
      "byteOffset": 0,
      "componentType": 5123,
      "normalized": false,
      "count": 2562,
      "type": "SCALAR",
      "max": [
        1346.0
      ],
      "min": [
        0.0
      ]
    },
    {
      "bufferView": 8,
      "byteOffset": 0,
      "componentType": 5126,
      "normalized": false,
      "count": 582,
      "type": "VEC3",
      "max": [
        9.687499046325684,
        7.798436641693115,
        1.2593748569488525
      ],
      "min": [
        -9.6875,
        -7.798437118530273,
        -1.2593748569488525
      ]
    },
    {
      "bufferView": 9,
      "byteOffset": 0,
      "componentType": 5126,
      "normalized": false,
      "count": 582,
      "type": "VEC3",
      "max": [
        0.9999995880679189,
        0.9999995879900319,
        0.9999999999999185
      ],
      "min": [
        -0.9999995891780696,
        -0.9999995879045879,
        -0.9999999999999423
      ]
    },
    {
      "bufferView": 10,
      "byteOffset": 0,
      "componentType": 5126,
      "normalized": false,
      "count": 582,
      "type": "VEC2",
      "max": [
        0.9800682067871094,
        -0.007379770278930664
      ],
      "min": [
        0.004121968522667885,
        -0.9926308393478394
      ]
    },
    {
      "bufferView": 11,
      "byteOffset": 0,
      "componentType": 5123,
      "normalized": false,
      "count": 882,
      "type": "SCALAR",
      "max": [
        581.0
      ],
      "min": [
        0.0
      ]
    }
  ],
  "asset": {
    "generator": "WCSaga Godot Converter",
    "version": "2.0"
  },
  "bufferViews": [
    {
      "buffer": 0,
      "byteOffset": 0,
      "byteLength": 23040,
      "target": 34962
    },
    {
      "buffer": 0,
      "byteOffset": 23040,
      "byteLength": 23040,
      "target": 34962
    },
    {
      "buffer": 0,
      "byteOffset": 46080,
      "byteLength": 15360,
      "target": 34962
    },
    {
      "buffer": 0,
      "byteOffset": 61440,
      "byteLength": 6702,
      "target": 34963
    },
    {
      "buffer": 0,
      "byteOffset": 68144,
      "byteLength": 16164,
      "target": 34962
    },
    {
      "buffer": 0,
      "byteOffset": 84308,
      "byteLength": 16164,
      "target": 34962
    },
    {
      "buffer": 0,
      "byteOffset": 100472,
      "byteLength": 10776,
      "target": 34962
    },
    {
      "buffer": 0,
      "byteOffset": 111248,
      "byteLength": 5124,
      "target": 34963
    },
    {
      "buffer": 0,
      "byteOffset": 116372,
      "byteLength": 6984,
      "target": 34962
    },
    {
      "buffer": 0,
      "byteOffset": 123356,
      "byteLength": 6984,
      "target": 34962
    },
    {
      "buffer": 0,
      "byteOffset": 130340,
      "byteLength": 4656,
      "target": 34962
    },
    {
      "buffer": 0,
      "byteOffset": 134996,
      "byteLength": 1764,
      "target": 34963
    }
  ],
  "buffers": [
    {
      "uri": "kif_dralthi_mk_iv_a-lod2.bin",
      "byteLength": 136760
    }
  ],
  "images": [
    {
      "uri": "kif_dralthi_a_1_albedo.png",
      "mimeType": "image/png",
      "name": "kif_dralthi_a_1_albedo_image"
    },
    {
      "uri": "kif_dralthi_a_1_orm.png",
      "mimeType": "image/png",
      "name": "kif_dralthi_a_1_orm_image"
    }
  ],
  "materials": [
    {
      "pbrMetallicRoughness": {
        "baseColorFactor": [
          1.0,
          1.0,
          1.0,
          1.0
        ],
        "metallicFactor": 0.15,
        "roughnessFactor": 0.75,
        "baseColorTexture": {
          "index": 0,
          "texCoord": 0
        },
        "metallicRoughnessTexture": {
          "index": 1,
          "texCoord": 0
        }
      },
      "occlusionTexture": {
        "index": 1,
        "texCoord": 0
      },
      "emissiveFactor": [
        0.0,
        0.0,
        0.0
      ],
      "alphaMode": "OPAQUE",
      "doubleSided": false,
      "name": "standard"
    }
  ],
  "meshes": [
    {
      "primitives": [
        {
          "attributes": {
            "POSITION": 8,
            "NORMAL": 9,
            "TEXCOORD_0": 10
          },
          "indices": 11,
          "mode": 4,
          "material": 0
        }
      ],
      "name": "ExportedMesh"
    }
  ],
  "nodes": [
    {
      "mesh": 0,
      "name": "Model"
    }
  ],
  "scene": 0,
  "scenes": [
    {
      "nodes": [
        0
      ]
    }
  ],
  "textures": [
    {
      "source": 0,
      "name": "kif_dralthi_a_1_albedo_texture"
    },
    {
      "source": 1,
      "name": "kif_dralthi_a_1_orm_texture"
    }
  ]
}