{
  "accessors": [
    {
      "bufferView": 0,
      "byteOffset": 0,
      "componentType": 5126,
      "normalized": false,
      "count": 10840,
      "type": "VEC3",
      "max": [
        42.48440170288086,
        176.6909942626953,
        47.757301330566406
      ],
      "min": [
        -30.281999588012695,
        -164.15499877929688,
        -46.145999908447266
      ]
    },
    {
      "bufferView": 1,
      "byteOffset": 0,
      "componentType": 5126,
      "normalized": false,
      "count": 10840,
      "type": "VEC3",
      "max": [
        1.0,
        1.0,
        1.0
      ],
      "min": [
        -1.0,
        -1.0,
        -1.0
      ]
    },
    {
      "bufferView": 2,
      "byteOffset": 0,
      "componentType": 5126,
      "normalized": false,
      "count": 10840,
      "type": "VEC2",
      "max": [
        0.9966599941253662,
        -0.0064280033111572266
      ],
      "min": [
        0.0,
        -1.0
      ]
    },
    {
      "bufferView": 3,
      "byteOffset": 0,
      "componentType": 5123,
      "normalized": false,
      "count": 22974,
      "type": "SCALAR",
      "max": [
        10839.0
      ],
      "min": [
        0.0
      ]
    }
  ],
  "asset": {
    "generator": "WCSaga Godot Converter",
    "version": "2.0"
  },
  "bufferViews": [
    {
      "buffer": 0,
      "byteOffset": 0,
      "byteLength": 130080,
      "target": 34962
    },
    {
      "buffer": 0,
      "byteOffset": 130080,
      "byteLength": 130080,
      "target": 34962
    },
    {
      "buffer": 0,
      "byteOffset": 260160,
      "byteLength": 86720,
      "target": 34962
    },
    {
      "buffer": 0,
      "byteOffset": 346880,
      "byteLength": 45948,
      "target": 34963
    }
  ],
  "buffers": [
    {
      "uri": "tcs_caernaven_debris.bin",
      "byteLength": 392828
    }
  ],
  "images": [
    {
      "uri": "tcs_caernaven_d_1_albedo.png",
      "mimeType": "image/png",
      "name": "tcs_caernaven_d_1_albedo_image"
    },
    {
      "uri": "tcs_caernaven_d_1_orm.png",
      "mimeType": "image/png",
      "name": "tcs_caernaven_d_1_orm_image"
    }
  ],
  "materials": [
    {
      "pbrMetallicRoughness": {
        "baseColorFactor": [
          1.0,
          1.0,
          1.0,
          1.0
        ],
        "metallicFactor": 0.15,
        "roughnessFactor": 0.75,
        "baseColorTexture": {
          "index": 0,
          "texCoord": 0
        },
        "metallicRoughnessTexture": {
          "index": 1,
          "texCoord": 0
        }
      },
      "occlusionTexture": {
        "index": 1,
        "texCoord": 0
      },
      "emissiveFactor": [
        0.0,
        0.0,
        0.0
      ],
      "alphaMode": "OPAQUE",
      "doubleSided": false,
      "name": "standard"
    },
    {
      "pbrMetallicRoughness": {
        "baseColorFactor": [
          1.0,
          1.0,
          1.0,
          1.0
        ],
        "metallicFactor": 0.15,
        "roughnessFactor": 0.75
      },
      "emissiveFactor": [
        0.0,
        0.0,
        0.0
      ],
      "alphaMode": "OPAQUE",
      "doubleSided": false,
      "name": "standard"
    }
  ],
  "meshes": [
    {
      "primitives": [
        {
          "attributes": {
            "POSITION": 0,
            "NORMAL": 1,
            "TEXCOORD_0": 2
          },
          "indices": 3,
          "mode": 4,
          "material": 0
        }
      ],
      "name": "ExportedMesh"
    }
  ],
  "nodes": [
    {
      "mesh": 0,
      "name": "Model"
    }
  ],
  "scene": 0,
  "scenes": [
    {
      "nodes": [
        0
      ]
    }
  ],
  "textures": [
    {
      "source": 0,
      "name": "tcs_caernaven_d_1_albedo_texture"
    },
    {
      "source": 1,
      "name": "tcs_caernaven_d_1_orm_texture"
    }
  ]
}