{
  "accessors": [
    {
      "bufferView": 0,
      "byteOffset": 0,
      "componentType": 5126,
      "normalized": false,
      "count": 1996,
      "type": "VEC3",
      "max": [
        74.17230224609375,
        202.48199462890625,
        53.55830001831055
      ],
      "min": [
        -74.09320068359375,
        -199.88699340820312,
        -51.78710174560547
      ]
    },
    {
      "bufferView": 1,
      "byteOffset": 0,
      "componentType": 5126,
      "normalized": false,
      "count": 1996,
      "type": "VEC3",
      "max": [
        1.0,
        1.0,
        1.0
      ],
      "min": [
        -1.0,
        -1.0,
        -1.0
      ]
    },
    {
      "bufferView": 2,
      "byteOffset": 0,
      "componentType": 5126,
      "normalized": false,
      "count": 1996,
      "type": "VEC2",
      "max": [
        0.9994999766349792,
        -0.001802980899810791
      ],
      "min": [
        0.0,
        -1.0
      ]
    },
    {
      "bufferView": 3,
      "byteOffset": 0,
      "componentType": 5123,
      "normalized": false,
      "count": 3831,
      "type": "SCALAR",
      "max": [
        1995.0
      ],
      "min": [
        0.0
      ]
    }
  ],
  "asset": {
    "generator": "WCSaga Godot Converter",
    "version": "2.0"
  },
  "bufferViews": [
    {
      "buffer": 0,
      "byteOffset": 0,
      "byteLength": 23952,
      "target": 34962
    },
    {
      "buffer": 0,
      "byteOffset": 23952,
      "byteLength": 23952,
      "target": 34962
    },
    {
      "buffer": 0,
      "byteOffset": 47904,
      "byteLength": 15968,
      "target": 34962
    },
    {
      "buffer": 0,
      "byteOffset": 63872,
      "byteLength": 7662,
      "target": 34963
    }
  ],
  "buffers": [
    {
      "uri": "kis_ralarrad.bin",
      "byteLength": 71536
    }
  ],
  "materials": [
    {
      "pbrMetallicRoughness": {
        "baseColorFactor": [
          1.0,
          1.0,
          1.0,
          1.0
        ],
        "metallicFactor": 0.15,
        "roughnessFactor": 0.75
      },
      "emissiveFactor": [
        0.0,
        0.0,
        0.0
      ],
      "alphaMode": "OPAQUE",
      "doubleSided": false,
      "name": "standard"
    },
    {
      "pbrMetallicRoughness": {
        "baseColorFactor": [
          1.0,
          1.0,
          1.0,
          1.0
        ],
        "metallicFactor": 0.15,
        "roughnessFactor": 0.75
      },
      "emissiveFactor": [
        0.0,
        0.0,
        0.0
      ],
      "alphaMode": "OPAQUE",
      "doubleSided": false,
      "name": "standard"
    },
    {
      "pbrMetallicRoughness": {
        "baseColorFactor": [
          1.0,
          1.0,
          1.0,
          1.0
        ],
        "metallicFactor": 0.15,
        "roughnessFactor": 0.75
      },
      "emissiveFactor": [
        0.0,
        0.0,
        0.0
      ],
      "alphaMode": "OPAQUE",
      "doubleSided": false,
      "name": "standard"
    },
    {
      "pbrMetallicRoughness": {
        "baseColorFactor": [
          1.0,
          1.0,
          1.0,
          1.0
        ],
        "metallicFactor": 0.15,
        "roughnessFactor": 0.75
      },
      "emissiveFactor": [
        0.0,
        0.0,
        0.0
      ],
      "alphaMode": "OPAQUE",
      "doubleSided": false,
      "name": "standard"
    },
    {
      "pbrMetallicRoughness": {
        "baseColorFactor": [
          1.0,
          1.0,
          1.0,
          1.0
        ],
        "metallicFactor": 0.15,
        "roughnessFactor": 0.75
      },
      "emissiveFactor": [
        0.0,
        0.0,
        0.0
      ],
      "alphaMode": "OPAQUE",
      "doubleSided": false,
      "name": "standard"
    }
  ],
  "meshes": [
    {
      "primitives": [
        {
          "attributes": {
            "POSITION": 0,
            "NORMAL": 1,
            "TEXCOORD_0": 2
          },
          "indices": 3,
          "mode": 4,
          "material": 0
        }
      ],
      "name": "ExportedMesh"
    }
  ],
  "nodes": [
    {
      "mesh": 0,
      "name": "Model"
    }
  ],
  "scene": 0,
  "scenes": [
    {
      "nodes": [
        0
      ]
    }
  ]
}