{
  "accessors": [
    {
      "bufferView": 0,
      "byteOffset": 0,
      "componentType": 5126,
      "normalized": false,
      "count": 1996,
      "type": "VEC3",
      "max": [
        74.17230224609375,
        202.48199462890625,
        53.55830001831055
      ],
      "min": [
        -74.09320068359375,
        -199.88699340820312,
        -51.78710174560547
      ]
    },
    {
      "bufferView": 1,
      "byteOffset": 0,
      "componentType": 5126,
      "normalized": false,
      "count": 1996,
      "type": "VEC3",
      "max": [
        1.0,
        1.0,
        1.0
      ],
      "min": [
        -1.0,
        -1.0,
        -1.0
      ]
    },
    {
      "bufferView": 2,
      "byteOffset": 0,
      "componentType": 5126,
      "normalized": false,
      "count": 1996,
      "type": "VEC2",
      "max": [
        0.9994999766349792,
        -0.001802980899810791
      ],
      "min": [
        0.0,
        -1.0
      ]
    },
    {
      "bufferView": 3,
      "byteOffset": 0,
      "componentType": 5123,
      "normalized": false,
      "count": 3831,
      "type": "SCALAR",
      "max": [
        1995.0
      ],
      "min": [
        0.0
      ]
    },
    {
      "bufferView": 4,
      "byteOffset": 0,
      "componentType": 5126,
      "normalized": false,
      "count": 4822,
      "type": "VEC3",
      "max": [
        74.17230224609375,
        209.61199951171875,
        53.55830001831055
      ],
      "min": [
        -74.09320068359375,
        -199.88699340820312,
        -51.78710174560547
      ]
    },
    {
      "bufferView": 5,
      "byteOffset": 0,
      "componentType": 5126,
      "normalized": false,
      "count": 4822,
      "type": "VEC3",
      "max": [
        1.0,
        1.0,
        1.0
      ],
      "min": [
        -1.0,
        -1.0,
        -1.0
      ]
    },
    {
      "bufferView": 6,
      "byteOffset": 0,
      "componentType": 5126,
      "normalized": false,
      "count": 4822,
      "type": "VEC2",
      "max": [
        0.9994999766349792,
        -0.0008100271224975586
      ],
      "min": [
        0.0,
        -1.0
      ]
    },
    {
      "bufferView": 7,
      "byteOffset": 0,
      "componentType": 5123,
      "normalized": false,
      "count": 10449,
      "type": "SCALAR",
      "max": [
        4821.0
      ],
      "min": [
        0.0
      ]
    },
    {
      "bufferView": 8,
      "byteOffset": 0,
      "componentType": 5126,
      "normalized": false,
      "count": 490,
      "type": "VEC3",
      "max": [
        74.17230224609375,
        201.10400390625,
        51.754398345947266
      ],
      "min": [
        -74.09320068359375,
        -199.88699340820312,
        -51.78710174560547
      ]
    },
    {
      "bufferView": 9,
      "byteOffset": 0,
      "componentType": 5126,
      "normalized": false,
      "count": 490,
      "type": "VEC3",
      "max": [
        1.0,
        1.0,
        1.0
      ],
      "min": [
        -1.0,
        -1.0,
        -1.0
      ]
    },
    {
      "bufferView": 10,
      "byteOffset": 0,
      "componentType": 5126,
      "normalized": false,
      "count": 490,
      "type": "VEC2",
      "max": [
        0.9987480044364929,
        -0.001802980899810791
      ],
      "min": [
        0.0,
        -1.0
      ]
    },
    {
      "bufferView": 11,
      "byteOffset": 0,
      "componentType": 5123,
      "normalized": false,
      "count": 882,
      "type": "SCALAR",
      "max": [
        489.0
      ],
      "min": [
        0.0
      ]
    }
  ],
  "asset": {
    "generator": "WCSaga Godot Converter",
    "version": "2.0"
  },
  "bufferViews": [
    {
      "buffer": 0,
      "byteOffset": 0,
      "byteLength": 23952,
      "target": 34962
    },
    {
      "buffer": 0,
      "byteOffset": 23952,
      "byteLength": 23952,
      "target": 34962
    },
    {
      "buffer": 0,
      "byteOffset": 47904,
      "byteLength": 15968,
      "target": 34962
    },
    {
      "buffer": 0,
      "byteOffset": 63872,
      "byteLength": 7662,
      "target": 34963
    },
    {
      "buffer": 0,
      "byteOffset": 71536,
      "byteLength": 57864,
      "target": 34962
    },
    {
      "buffer": 0,
      "byteOffset": 129400,
      "byteLength": 57864,
      "target": 34962
    },
    {
      "buffer": 0,
      "byteOffset": 187264,
      "byteLength": 38576,
      "target": 34962
    },
    {
      "buffer": 0,
      "byteOffset": 225840,
      "byteLength": 20898,
      "target": 34963
    },
    {
      "buffer": 0,
      "byteOffset": 246740,
      "byteLength": 5880,
      "target": 34962
    },
    {
      "buffer": 0,
      "byteOffset": 252620,
      "byteLength": 5880,
      "target": 34962
    },
    {
      "buffer": 0,
      "byteOffset": 258500,
      "byteLength": 3920,
      "target": 34962
    },
    {
      "buffer": 0,
      "byteOffset": 262420,
      "byteLength": 1764,
      "target": 34963
    }
  ],
  "buffers": [
    {
      "uri": "kis_ralarrad-lod2.bin",
      "byteLength": 264184
    }
  ],
  "materials": [
    {
      "pbrMetallicRoughness": {
        "baseColorFactor": [
          1.0,
          1.0,
          1.0,
          1.0
        ],
        "metallicFactor": 0.15,
        "roughnessFactor": 0.75
      },
      "emissiveFactor": [
        0.0,
        0.0,
        0.0
      ],
      "alphaMode": "OPAQUE",
      "doubleSided": false,
      "name": "standard"
    },
    {
      "pbrMetallicRoughness": {
        "baseColorFactor": [
          1.0,
          1.0,
          1.0,
          1.0
        ],
        "metallicFactor": 0.15,
        "roughnessFactor": 0.75
      },
      "emissiveFactor": [
        0.0,
        0.0,
        0.0
      ],
      "alphaMode": "OPAQUE",
      "doubleSided": false,
      "name": "standard"
    },
    {
      "pbrMetallicRoughness": {
        "baseColorFactor": [
          1.0,
          1.0,
          1.0,
          1.0
        ],
        "metallicFactor": 0.15,
        "roughnessFactor": 0.75
      },
      "emissiveFactor": [
        0.0,
        0.0,
        0.0
      ],
      "alphaMode": "OPAQUE",
      "doubleSided": false,
      "name": "standard"
    },
    {
      "pbrMetallicRoughness": {
        "baseColorFactor": [
          1.0,
          1.0,
          1.0,
          1.0
        ],
        "metallicFactor": 0.15,
        "roughnessFactor": 0.75
      },
      "emissiveFactor": [
        0.0,
        0.0,
        0.0
      ],
      "alphaMode": "OPAQUE",
      "doubleSided": false,
      "name": "standard"
    },
    {
      "pbrMetallicRoughness": {
        "baseColorFactor": [
          1.0,
          1.0,
          1.0,
          1.0
        ],
        "metallicFactor": 0.15,
        "roughnessFactor": 0.75
      },
      "emissiveFactor": [
        0.0,
        0.0,
        0.0
      ],
      "alphaMode": "OPAQUE",
      "doubleSided": false,
      "name": "standard"
    }
  ],
  "meshes": [
    {
      "primitives": [
        {
          "attributes": {
            "POSITION": 8,
            "NORMAL": 9,
            "TEXCOORD_0": 10
          },
          "indices": 11,
          "mode": 4,
          "material": 0
        }
      ],
      "name": "ExportedMesh"
    }
  ],
  "nodes": [
    {
      "mesh": 0,
      "name": "Model"
    }
  ],
  "scene": 0,
  "scenes": [
    {
      "nodes": [
        0
      ]
    }
  ]
}