{
  "accessors": [
    {
      "bufferView": 0,
      "byteOffset": 0,
      "componentType": 5126,
      "normalized": false,
      "count": 1806,
      "type": "VEC3",
      "max": [
        0.232464000582695,
        1.3003599643707275,
        0.232464000582695
      ],
      "min": [
        -0.232464000582695,
        -1.3003599643707275,
        -0.232464000582695
      ]
    },
    {
      "bufferView": 1,
      "byteOffset": 0,
      "componentType": 5126,
      "normalized": false,
      "count": 1806,
      "type": "VEC3",
      "max": [
        1.0,
        1.0,
        1.0
      ],
      "min": [
        -1.0,
        -0.9999866043215616,
        -1.0
      ]
    },
    {
      "bufferView": 2,
      "byteOffset": 0,
      "componentType": 5126,
      "normalized": false,
      "count": 1806,
      "type": "VEC2",
      "max": [
        0.9957450032234192,
        -0.0039640069007873535
      ],
      "min": [
        0.004050999879837036,
        -0.991644024848938
      ]
    },
    {
      "bufferView": 3,
      "byteOffset": 0,
      "componentType": 5123,
      "normalized": false,
      "count": 4038,
      "type": "SCALAR",
      "max": [
        1805.0
      ],
      "min": [
        0.0
      ]
    }
  ],
  "asset": {
    "generator": "WCSaga Godot Converter",
    "version": "2.0"
  },
  "bufferViews": [
    {
      "buffer": 0,
      "byteOffset": 0,
      "byteLength": 21672,
      "target": 34962
    },
    {
      "buffer": 0,
      "byteOffset": 21672,
      "byteLength": 21672,
      "target": 34962
    },
    {
      "buffer": 0,
      "byteOffset": 43344,
      "byteLength": 14448,
      "target": 34962
    },
    {
      "buffer": 0,
      "byteOffset": 57792,
      "byteLength": 8076,
      "target": 34963
    }
  ],
  "buffers": [
    {
      "uri": "tcm_dart.bin",
      "byteLength": 65868
    }
  ],
  "materials": [
    {
      "pbrMetallicRoughness": {
        "baseColorFactor": [
          1.0,
          1.0,
          1.0,
          1.0
        ],
        "metallicFactor": 0.15,
        "roughnessFactor": 0.75
      },
      "emissiveFactor": [
        0.0,
        0.0,
        0.0
      ],
      "alphaMode": "OPAQUE",
      "doubleSided": false,
      "name": "standard"
    }
  ],
  "meshes": [
    {
      "primitives": [
        {
          "attributes": {
            "POSITION": 0,
            "NORMAL": 1,
            "TEXCOORD_0": 2
          },
          "indices": 3,
          "mode": 4,
          "material": 0
        }
      ],
      "name": "ExportedMesh"
    }
  ],
  "nodes": [
    {
      "mesh": 0,
      "name": "Model"
    }
  ],
  "scene": 0,
  "scenes": [
    {
      "nodes": [
        0
      ]
    }
  ]
}