{
  "accessors": [
    {
      "bufferView": 0,
      "byteOffset": 0,
      "componentType": 5126,
      "normalized": false,
      "count": 2458,
      "type": "VEC3",
      "max": [
        12.600000381469727,
        8.327079772949219,
        3.618000030517578
      ],
      "min": [
        -12.600000381469727,
        -8.999710083007812,
        -3.618000030517578
      ]
    },
    {
      "bufferView": 1,
      "byteOffset": 0,
      "componentType": 5126,
      "normalized": false,
      "count": 2458,
      "type": "VEC3",
      "max": [
        1.0,
        1.0,
        1.0
      ],
      "min": [
        -1.0,
        -1.0,
        -1.0
      ]
    },
    {
      "bufferView": 2,
      "byteOffset": 0,
      "componentType": 5126,
      "normalized": false,
      "count": 2458,
      "type": "VEC2",
      "max": [
        0.9997649788856506,
        -0.00029206275939941406
      ],
      "min": [
        0.0010130000300705433,
        -0.9996249675750732
      ]
    },
    {
      "bufferView": 3,
      "byteOffset": 0,
      "componentType": 5123,
      "normalized": false,
      "count": 4854,
      "type": "SCALAR",
      "max": [
        2457.0
      ],
      "min": [
        0.0
      ]
    }
  ],
  "asset": {
    "generator": "WCSaga Godot Converter",
    "version": "2.0"
  },
  "bufferViews": [
    {
      "buffer": 0,
      "byteOffset": 0,
      "byteLength": 29496,
      "target": 34962
    },
    {
      "buffer": 0,
      "byteOffset": 29496,
      "byteLength": 29496,
      "target": 34962
    },
    {
      "buffer": 0,
      "byteOffset": 58992,
      "byteLength": 19664,
      "target": 34962
    },
    {
      "buffer": 0,
      "byteOffset": 78656,
      "byteLength": 9708,
      "target": 34963
    }
  ],
  "buffers": [
    {
      "uri": "kif_vaktoth_a_d.bin",
      "byteLength": 88364
    }
  ],
  "materials": [
    {
      "pbrMetallicRoughness": {
        "baseColorFactor": [
          1.0,
          1.0,
          1.0,
          1.0
        ],
        "metallicFactor": 0.15,
        "roughnessFactor": 0.75
      },
      "emissiveFactor": [
        0.0,
        0.0,
        0.0
      ],
      "alphaMode": "OPAQUE",
      "doubleSided": false,
      "name": "standard"
    }
  ],
  "meshes": [
    {
      "primitives": [
        {
          "attributes": {
            "POSITION": 0,
            "NORMAL": 1,
            "TEXCOORD_0": 2
          },
          "indices": 3,
          "mode": 4,
          "material": 0
        }
      ],
      "name": "ExportedMesh"
    }
  ],
  "nodes": [
    {
      "mesh": 0,
      "name": "Model"
    }
  ],
  "scene": 0,
  "scenes": [
    {
      "nodes": [
        0
      ]
    }
  ]
}