{
  "accessors": [
    {
      "bufferView": 0,
      "byteOffset": 0,
      "componentType": 5126,
      "normalized": false,
      "count": 323,
      "type": "VEC3",
      "max": [
        0.44100162386894226,
        2.0999999046325684,
        0.44100165367126465
      ],
      "min": [
        -0.4410017430782318,
        -2.799999952316284,
        -0.44100165367126465
      ]
    },
    {
      "bufferView": 1,
      "byteOffset": 0,
      "componentType": 5126,
      "normalized": false,
      "count": 323,
      "type": "VEC3",
      "max": [
        1.0,
        1.0,
        1.0
      ],
      "min": [
        -1.0,
        -1.0,
        -1.0
      ]
    },
    {
      "bufferView": 2,
      "byteOffset": 0,
      "componentType": 5126,
      "normalized": false,
      "count": 323,
      "type": "VEC2",
      "max": [
        0.9999999403953552,
        -0.04999995231628418
      ],
      "min": [
        0.0,
        -0.900000087916851
      ]
    },
    {
      "bufferView": 3,
      "byteOffset": 0,
      "componentType": 5123,
      "normalized": false,
      "count": 606,
      "type": "SCALAR",
      "max": [
        322.0
      ],
      "min": [
        0.0
      ]
    }
  ],
  "asset": {
    "generator": "WCSaga POF Converter",
    "version": "2.0"
  },
  "bufferViews": [
    {
      "buffer": 0,
      "byteOffset": 0,
      "byteLength": 3876,
      "target": 34962
    },
    {
      "buffer": 0,
      "byteOffset": 3876,
      "byteLength": 3876,
      "target": 34962
    },
    {
      "buffer": 0,
      "byteOffset": 7752,
      "byteLength": 2584,
      "target": 34962
    },
    {
      "buffer": 0,
      "byteOffset": 10336,
      "byteLength": 1212,
      "target": 34963
    }
  ],
  "buffers": [
    {
      "uri": "misc_ghostmissile.bin",
      "byteLength": 11548
    }
  ],
  "materials": [
    {
      "pbrMetallicRoughness": {
        "baseColorFactor": [
          1.0,
          1.0,
          1.0,
          1.0
        ],
        "metallicFactor": 0.15,
        "roughnessFactor": 0.75
      },
      "emissiveFactor": [
        0.0,
        0.0,
        0.0
      ],
      "alphaMode": "OPAQUE",
      "doubleSided": false,
      "name": "standard"
    }
  ],
  "meshes": [
    {
      "primitives": [
        {
          "attributes": {
            "POSITION": 0,
            "NORMAL": 1,
            "TEXCOORD_0": 2
          },
          "indices": 3,
          "mode": 4,
          "material": 0
        }
      ],
      "name": "ExportedMesh"
    }
  ],
  "nodes": [
    {
      "mesh": 0,
      "name": "hull01"
    }
  ],
  "scene": 0,
  "scenes": [
    {
      "nodes": [
        0
      ]
    }
  ]
}