{
  "accessors": [
    {
      "bufferView": 0,
      "byteOffset": 0,
      "componentType": 5126,
      "normalized": false,
      "count": 18390,
      "type": "VEC3",
      "max": [
        17.223800659179688,
        101.97799682617188,
        17.355499267578125
      ],
      "min": [
        -17.223800659179688,
        -102.72100067138672,
        -12.196900367736816
      ]
    },
    {
      "bufferView": 1,
      "byteOffset": 0,
      "componentType": 5126,
      "normalized": false,
      "count": 18390,
      "type": "VEC3",
      "max": [
        1.0,
        1.0,
        1.0
      ],
      "min": [
        -1.0,
        -1.0,
        -1.0
      ]
    },
    {
      "bufferView": 2,
      "byteOffset": 0,
      "componentType": 5126,
      "normalized": false,
      "count": 18390,
      "type": "VEC2",
      "max": [
        0.999865999998292,
        -0.014189004898071289
      ],
      "min": [
        0.0,
        -0.9958239793777466
      ]
    },
    {
      "bufferView": 3,
      "byteOffset": 0,
      "componentType": 5123,
      "normalized": false,
      "count": 32493,
      "type": "SCALAR",
      "max": [
        18389.0
      ],
      "min": [
        0.0
      ]
    }
  ],
  "asset": {
    "generator": "WCSaga Godot Converter",
    "version": "2.0"
  },
  "bufferViews": [
    {
      "buffer": 0,
      "byteOffset": 0,
      "byteLength": 220680,
      "target": 34962
    },
    {
      "buffer": 0,
      "byteOffset": 220680,
      "byteLength": 220680,
      "target": 34962
    },
    {
      "buffer": 0,
      "byteOffset": 441360,
      "byteLength": 147120,
      "target": 34962
    },
    {
      "buffer": 0,
      "byteOffset": 588480,
      "byteLength": 64986,
      "target": 34963
    }
  ],
  "buffers": [
    {
      "uri": "tcs_clarkson.bin",
      "byteLength": 653468
    }
  ],
  "materials": [
    {
      "pbrMetallicRoughness": {
        "baseColorFactor": [
          1.0,
          1.0,
          1.0,
          1.0
        ],
        "metallicFactor": 0.15,
        "roughnessFactor": 0.75
      },
      "emissiveFactor": [
        0.0,
        0.0,
        0.0
      ],
      "alphaMode": "OPAQUE",
      "doubleSided": false,
      "name": "standard"
    },
    {
      "pbrMetallicRoughness": {
        "baseColorFactor": [
          1.0,
          1.0,
          1.0,
          1.0
        ],
        "metallicFactor": 0.15,
        "roughnessFactor": 0.75
      },
      "emissiveFactor": [
        0.0,
        0.0,
        0.0
      ],
      "alphaMode": "OPAQUE",
      "doubleSided": false,
      "name": "standard"
    },
    {
      "pbrMetallicRoughness": {
        "baseColorFactor": [
          1.0,
          1.0,
          1.0,
          1.0
        ],
        "metallicFactor": 0.15,
        "roughnessFactor": 0.75
      },
      "emissiveFactor": [
        0.0,
        0.0,
        0.0
      ],
      "alphaMode": "OPAQUE",
      "doubleSided": false,
      "name": "standard"
    },
    {
      "pbrMetallicRoughness": {
        "baseColorFactor": [
          1.0,
          1.0,
          1.0,
          1.0
        ],
        "metallicFactor": 0.15,
        "roughnessFactor": 0.75
      },
      "emissiveFactor": [
        0.0,
        0.0,
        0.0
      ],
      "alphaMode": "OPAQUE",
      "doubleSided": false,
      "name": "standard"
    }
  ],
  "meshes": [
    {
      "primitives": [
        {
          "attributes": {
            "POSITION": 0,
            "NORMAL": 1,
            "TEXCOORD_0": 2
          },
          "indices": 3,
          "mode": 4,
          "material": 0
        }
      ],
      "name": "ExportedMesh"
    }
  ],
  "nodes": [
    {
      "mesh": 0,
      "name": "Model"
    }
  ],
  "scene": 0,
  "scenes": [
    {
      "nodes": [
        0
      ]
    }
  ]
}