{
  "accessors": [
    {
      "bufferView": 0,
      "byteOffset": 0,
      "componentType": 5126,
      "normalized": false,
      "count": 3417,
      "type": "VEC3",
      "max": [
        3.8819000720977783,
        3.868410110473633,
        1.5956799983978271
      ],
      "min": [
        -3.8819000720977783,
        -3.868410110473633,
        -1.5956799983978271
      ]
    },
    {
      "bufferView": 1,
      "byteOffset": 0,
      "componentType": 5126,
      "normalized": false,
      "count": 3417,
      "type": "VEC3",
      "max": [
        1.0,
        0.9894107526315107,
        0.9995973528988391
      ],
      "min": [
        -1.0,
        -0.999966160861938,
        -0.9999567603149914
      ]
    },
    {
      "bufferView": 2,
      "byteOffset": 0,
      "componentType": 5126,
      "normalized": false,
      "count": 3417,
      "type": "VEC2",
      "max": [
        0.9817780256271362,
        -0.018054306507110596
      ],
      "min": [
        0.018222099170088768,
        -0.9727330207824707
      ]
    },
    {
      "bufferView": 3,
      "byteOffset": 0,
      "componentType": 5123,
      "normalized": false,
      "count": 6363,
      "type": "SCALAR",
      "max": [
        3416.0
      ],
      "min": [
        0.0
      ]
    }
  ],
  "asset": {
    "generator": "WCSaga Godot Converter",
    "version": "2.0"
  },
  "bufferViews": [
    {
      "buffer": 0,
      "byteOffset": 0,
      "byteLength": 41004,
      "target": 34962
    },
    {
      "buffer": 0,
      "byteOffset": 41004,
      "byteLength": 41004,
      "target": 34962
    },
    {
      "buffer": 0,
      "byteOffset": 82008,
      "byteLength": 27336,
      "target": 34962
    },
    {
      "buffer": 0,
      "byteOffset": 109344,
      "byteLength": 12726,
      "target": 34963
    }
  ],
  "buffers": [
    {
      "uri": "misc_cdebris02.bin",
      "byteLength": 122072
    }
  ],
  "materials": [
    {
      "pbrMetallicRoughness": {
        "baseColorFactor": [
          1.0,
          1.0,
          1.0,
          1.0
        ],
        "metallicFactor": 0.15,
        "roughnessFactor": 0.75
      },
      "emissiveFactor": [
        0.0,
        0.0,
        0.0
      ],
      "alphaMode": "OPAQUE",
      "doubleSided": false,
      "name": "standard"
    },
    {
      "pbrMetallicRoughness": {
        "baseColorFactor": [
          1.0,
          1.0,
          1.0,
          1.0
        ],
        "metallicFactor": 0.15,
        "roughnessFactor": 0.75
      },
      "emissiveFactor": [
        0.0,
        0.0,
        0.0
      ],
      "alphaMode": "OPAQUE",
      "doubleSided": false,
      "name": "standard"
    }
  ],
  "meshes": [
    {
      "primitives": [
        {
          "attributes": {
            "POSITION": 0,
            "NORMAL": 1,
            "TEXCOORD_0": 2
          },
          "indices": 3,
          "mode": 4,
          "material": 0
        }
      ],
      "name": "ExportedMesh"
    }
  ],
  "nodes": [
    {
      "mesh": 0,
      "name": "Model"
    }
  ],
  "scene": 0,
  "scenes": [
    {
      "nodes": [
        0
      ]
    }
  ]
}