{
  "accessors": [
    {
      "bufferView": 0,
      "byteOffset": 0,
      "componentType": 5126,
      "normalized": false,
      "count": 2457,
      "type": "VEC3",
      "max": [
        15.749999046325684,
        10.408843994140625,
        4.5224995613098145
      ],
      "min": [
        -15.749999046325684,
        -11.24963665008545,
        -4.522500038146973
      ]
    },
    {
      "bufferView": 1,
      "byteOffset": 0,
      "componentType": 5126,
      "normalized": false,
      "count": 2457,
      "type": "VEC3",
      "max": [
        1.0,
        1.0,
        1.0
      ],
      "min": [
        -1.0,
        -1.0,
        -1.0
      ]
    },
    {
      "bufferView": 2,
      "byteOffset": 0,
      "componentType": 5126,
      "normalized": false,
      "count": 2457,
      "type": "VEC2",
      "max": [
        0.9997652769088745,
        -0.0002917051315307617
      ],
      "min": [
        0.0010131747694686055,
        -0.9996246099472046
      ]
    },
    {
      "bufferView": 3,
      "byteOffset": 0,
      "componentType": 5123,
      "normalized": false,
      "count": 4839,
      "type": "SCALAR",
      "max": [
        2456.0
      ],
      "min": [
        0.0
      ]
    }
  ],
  "asset": {
    "generator": "WCSaga Godot Converter",
    "version": "2.0"
  },
  "bufferViews": [
    {
      "buffer": 0,
      "byteOffset": 0,
      "byteLength": 29484,
      "target": 34962
    },
    {
      "buffer": 0,
      "byteOffset": 29484,
      "byteLength": 29484,
      "target": 34962
    },
    {
      "buffer": 0,
      "byteOffset": 58968,
      "byteLength": 19656,
      "target": 34962
    },
    {
      "buffer": 0,
      "byteOffset": 78624,
      "byteLength": 9678,
      "target": 34963
    }
  ],
  "buffers": [
    {
      "uri": "kif_zartoth.bin",
      "byteLength": 88304
    }
  ],
  "images": [
    {
      "uri": "kif_vaktoth_1_albedo.png",
      "mimeType": "image/png",
      "name": "kif_vaktoth_1_albedo_image"
    },
    {
      "uri": "kif_vaktoth_1_normal.png",
      "mimeType": "image/png",
      "name": "kif_vaktoth_1_normal_image"
    },
    {
      "uri": "kif_vaktoth_1_orm.png",
      "mimeType": "image/png",
      "name": "kif_vaktoth_1_orm_image"
    }
  ],
  "materials": [
    {
      "pbrMetallicRoughness": {
        "baseColorFactor": [
          1.0,
          1.0,
          1.0,
          1.0
        ],
        "metallicFactor": 0.15,
        "roughnessFactor": 0.75,
        "baseColorTexture": {
          "index": 0,
          "texCoord": 0
        },
        "metallicRoughnessTexture": {
          "index": 2,
          "texCoord": 0
        }
      },
      "normalTexture": {
        "index": 1,
        "texCoord": 0
      },
      "occlusionTexture": {
        "index": 2,
        "texCoord": 0
      },
      "emissiveFactor": [
        0.0,
        0.0,
        0.0
      ],
      "alphaMode": "OPAQUE",
      "doubleSided": false,
      "name": "standard"
    }
  ],
  "meshes": [
    {
      "primitives": [
        {
          "attributes": {
            "POSITION": 0,
            "NORMAL": 1,
            "TEXCOORD_0": 2
          },
          "indices": 3,
          "mode": 4,
          "material": 0
        }
      ],
      "name": "ExportedMesh"
    }
  ],
  "nodes": [
    {
      "mesh": 0,
      "name": "Model"
    }
  ],
  "scene": 0,
  "scenes": [
    {
      "nodes": [
        0
      ]
    }
  ],
  "textures": [
    {
      "source": 0,
      "name": "kif_vaktoth_1_albedo_texture"
    },
    {
      "source": 1,
      "name": "kif_vaktoth_1_normal_texture"
    },
    {
      "source": 2,
      "name": "kif_vaktoth_1_orm_texture"
    }
  ]
}