{
  "accessors": [
    {
      "bufferView": 0,
      "byteOffset": 0,
      "componentType": 5126,
      "normalized": false,
      "count": 913,
      "type": "VEC3",
      "max": [
        50.58689880371094,
        31.655681610107422,
        34.74729919433594
      ],
      "min": [
        -50.58689880371094,
        -31.655681610107422,
        -34.74729919433594
      ]
    },
    {
      "bufferView": 1,
      "byteOffset": 0,
      "componentType": 5126,
      "normalized": false,
      "count": 913,
      "type": "VEC3",
      "max": [
        0.9963041885719806,
        0.9900571999856019,
        0.9974190678743247
      ],
      "min": [
        -0.9985841059249704,
        -0.9996865566573641,
        -0.9689318326002847
      ]
    },
    {
      "bufferView": 2,
      "byteOffset": 0,
      "componentType": 5126,
      "normalized": false,
      "count": 913,
      "type": "VEC2",
      "max": [
        0.9892460703849792,
        -0.0024132132530212402
      ],
      "min": [
        0.006333356723189354,
        -0.9914856553077698
      ]
    },
    {
      "bufferView": 3,
      "byteOffset": 0,
      "componentType": 5123,
      "normalized": false,
      "count": 4560,
      "type": "SCALAR",
      "max": [
        912.0
      ],
      "min": [
        0.0
      ]
    },
    {
      "bufferView": 4,
      "byteOffset": 0,
      "componentType": 5126,
      "normalized": false,
      "count": 464,
      "type": "VEC3",
      "max": [
        50.58686828613281,
        31.655681610107422,
        34.74729919433594
      ],
      "min": [
        -50.58689880371094,
        -31.65566062927246,
        -34.74729537963867
      ]
    },
    {
      "bufferView": 5,
      "byteOffset": 0,
      "componentType": 5126,
      "normalized": false,
      "count": 464,
      "type": "VEC3",
      "max": [
        0.9527243314554601,
        0.9899570766609839,
        0.9929903220798991
      ],
      "min": [
        -0.9867903948797963,
        -0.99980295708732,
        -0.9878716618471424
      ]
    },
    {
      "bufferView": 6,
      "byteOffset": 0,
      "componentType": 5126,
      "normalized": false,
      "count": 464,
      "type": "VEC2",
      "max": [
        0.9892460703849792,
        -0.0024101734161376953
      ],
      "min": [
        0.00633022328838706,
        -0.9914856553077698
      ]
    },
    {
      "bufferView": 7,
      "byteOffset": 0,
      "componentType": 5123,
      "normalized": false,
      "count": 2280,
      "type": "SCALAR",
      "max": [
        463.0
      ],
      "min": [
        0.0
      ]
    },
    {
      "bufferView": 8,
      "byteOffset": 0,
      "componentType": 5126,
      "normalized": false,
      "count": 78,
      "type": "VEC3",
      "max": [
        50.586822509765625,
        30.470266342163086,
        34.06377029418945
      ],
      "min": [
        -50.042213439941406,
        -31.6556339263916,
        -35.56766891479492
      ]
    },
    {
      "bufferView": 9,
      "byteOffset": 0,
      "componentType": 5126,
      "normalized": false,
      "count": 78,
      "type": "VEC3",
      "max": [
        0.9934808619533688,
        0.9897393158230133,
        0.9513718614143298
      ],
      "min": [
        -0.989563741526511,
        -0.9734370254494182,
        -0.9363996439741529
      ]
    },
    {
      "bufferView": 10,
      "byteOffset": 0,
      "componentType": 5126,
      "normalized": false,
      "count": 78,
      "type": "VEC2",
      "max": [
        0.9865713715553284,
        -0.002410292625427246
      ],
      "min": [
        0.013024999760091305,
        -0.9790236949920654
      ]
    },
    {
      "bufferView": 11,
      "byteOffset": 0,
      "componentType": 5123,
      "normalized": false,
      "count": 282,
      "type": "SCALAR",
      "max": [
        77.0
      ],
      "min": [
        0.0
      ]
    }
  ],
  "asset": {
    "generator": "WCSaga Godot Converter",
    "version": "2.0"
  },
  "bufferViews": [
    {
      "buffer": 0,
      "byteOffset": 0,
      "byteLength": 10956,
      "target": 34962
    },
    {
      "buffer": 0,
      "byteOffset": 10956,
      "byteLength": 10956,
      "target": 34962
    },
    {
      "buffer": 0,
      "byteOffset": 21912,
      "byteLength": 7304,
      "target": 34962
    },
    {
      "buffer": 0,
      "byteOffset": 29216,
      "byteLength": 9120,
      "target": 34963
    },
    {
      "buffer": 0,
      "byteOffset": 38336,
      "byteLength": 5568,
      "target": 34962
    },
    {
      "buffer": 0,
      "byteOffset": 43904,
      "byteLength": 5568,
      "target": 34962
    },
    {
      "buffer": 0,
      "byteOffset": 49472,
      "byteLength": 3712,
      "target": 34962
    },
    {
      "buffer": 0,
      "byteOffset": 53184,
      "byteLength": 4560,
      "target": 34963
    },
    {
      "buffer": 0,
      "byteOffset": 57744,
      "byteLength": 936,
      "target": 34962
    },
    {
      "buffer": 0,
      "byteOffset": 58680,
      "byteLength": 936,
      "target": 34962
    },
    {
      "buffer": 0,
      "byteOffset": 59616,
      "byteLength": 624,
      "target": 34962
    },
    {
      "buffer": 0,
      "byteOffset": 60240,
      "byteLength": 564,
      "target": 34963
    }
  ],
  "buffers": [
    {
      "uri": "astb02-lod2.bin",
      "byteLength": 60804
    }
  ],
  "materials": [
    {
      "pbrMetallicRoughness": {
        "baseColorFactor": [
          1.0,
          1.0,
          1.0,
          1.0
        ],
        "metallicFactor": 0.15,
        "roughnessFactor": 0.75
      },
      "emissiveFactor": [
        0.0,
        0.0,
        0.0
      ],
      "alphaMode": "OPAQUE",
      "doubleSided": false,
      "name": "standard"
    }
  ],
  "meshes": [
    {
      "primitives": [
        {
          "attributes": {
            "POSITION": 8,
            "NORMAL": 9,
            "TEXCOORD_0": 10
          },
          "indices": 11,
          "mode": 4,
          "material": 0
        }
      ],
      "name": "ExportedMesh"
    }
  ],
  "nodes": [
    {
      "mesh": 0,
      "name": "Model"
    }
  ],
  "scene": 0,
  "scenes": [
    {
      "nodes": [
        0
      ]
    }
  ]
}