{
  "accessors": [
    {
      "bufferView": 0,
      "byteOffset": 0,
      "componentType": 5126,
      "normalized": false,
      "count": 913,
      "type": "VEC3",
      "max": [
        50.58689880371094,
        31.655681610107422,
        34.74729919433594
      ],
      "min": [
        -50.58689880371094,
        -31.655681610107422,
        -34.74729919433594
      ]
    },
    {
      "bufferView": 1,
      "byteOffset": 0,
      "componentType": 5126,
      "normalized": false,
      "count": 913,
      "type": "VEC3",
      "max": [
        0.9963041885719806,
        0.9900571999856019,
        0.9974190678743247
      ],
      "min": [
        -0.9985841059249704,
        -0.9996865566573641,
        -0.9689318326002847
      ]
    },
    {
      "bufferView": 2,
      "byteOffset": 0,
      "componentType": 5126,
      "normalized": false,
      "count": 913,
      "type": "VEC2",
      "max": [
        0.9892460703849792,
        -0.0024132132530212402
      ],
      "min": [
        0.006333356723189354,
        -0.9914856553077698
      ]
    },
    {
      "bufferView": 3,
      "byteOffset": 0,
      "componentType": 5123,
      "normalized": false,
      "count": 4560,
      "type": "SCALAR",
      "max": [
        912.0
      ],
      "min": [
        0.0
      ]
    }
  ],
  "asset": {
    "generator": "WCSaga Godot Converter",
    "version": "2.0"
  },
  "bufferViews": [
    {
      "buffer": 0,
      "byteOffset": 0,
      "byteLength": 10956,
      "target": 34962
    },
    {
      "buffer": 0,
      "byteOffset": 10956,
      "byteLength": 10956,
      "target": 34962
    },
    {
      "buffer": 0,
      "byteOffset": 21912,
      "byteLength": 7304,
      "target": 34962
    },
    {
      "buffer": 0,
      "byteOffset": 29216,
      "byteLength": 9120,
      "target": 34963
    }
  ],
  "buffers": [
    {
      "uri": "astb02.bin",
      "byteLength": 38336
    }
  ],
  "materials": [
    {
      "pbrMetallicRoughness": {
        "baseColorFactor": [
          1.0,
          1.0,
          1.0,
          1.0
        ],
        "metallicFactor": 0.15,
        "roughnessFactor": 0.75
      },
      "emissiveFactor": [
        0.0,
        0.0,
        0.0
      ],
      "alphaMode": "OPAQUE",
      "doubleSided": false,
      "name": "standard"
    }
  ],
  "meshes": [
    {
      "primitives": [
        {
          "attributes": {
            "POSITION": 0,
            "NORMAL": 1,
            "TEXCOORD_0": 2
          },
          "indices": 3,
          "mode": 4,
          "material": 0
        }
      ],
      "name": "ExportedMesh"
    }
  ],
  "nodes": [
    {
      "mesh": 0,
      "name": "Model"
    }
  ],
  "scene": 0,
  "scenes": [
    {
      "nodes": [
        0
      ]
    }
  ]
}