{
  "accessors": [
    {
      "bufferView": 0,
      "byteOffset": 0,
      "componentType": 5126,
      "normalized": false,
      "count": 1683,
      "type": "VEC3",
      "max": [
        62.542701721191406,
        159.5919952392578,
        19.80190086364746
      ],
      "min": [
        -62.537899017333984,
        -159.59300231933594,
        -19.80190086364746
      ]
    },
    {
      "bufferView": 1,
      "byteOffset": 0,
      "componentType": 5126,
      "normalized": false,
      "count": 1683,
      "type": "VEC3",
      "max": [
        1.0,
        1.0,
        1.0
      ],
      "min": [
        -1.0,
        -1.0,
        -1.0
      ]
    },
    {
      "bufferView": 2,
      "byteOffset": 0,
      "componentType": 5126,
      "normalized": false,
      "count": 1683,
      "type": "VEC2",
      "max": [
        0.9994999766349792,
        -0.0009250044822692871
      ],
      "min": [
        0.0,
        -1.0
      ]
    },
    {
      "bufferView": 3,
      "byteOffset": 0,
      "componentType": 5123,
      "normalized": false,
      "count": 3381,
      "type": "SCALAR",
      "max": [
        1679.0
      ],
      "min": [
        3.0
      ]
    },
    {
      "bufferView": 4,
      "byteOffset": 0,
      "componentType": 5126,
      "normalized": false,
      "count": 2365,
      "type": "VEC3",
      "max": [
        62.542701721191406,
        159.5919952392578,
        19.80190086364746
      ],
      "min": [
        -62.537899017333984,
        -159.59300231933594,
        -19.80190086364746
      ]
    },
    {
      "bufferView": 5,
      "byteOffset": 0,
      "componentType": 5126,
      "normalized": false,
      "count": 2365,
      "type": "VEC3",
      "max": [
        1.0,
        1.0,
        1.0
      ],
      "min": [
        -1.0,
        -1.0,
        -1.0
      ]
    },
    {
      "bufferView": 6,
      "byteOffset": 0,
      "componentType": 5126,
      "normalized": false,
      "count": 2365,
      "type": "VEC2",
      "max": [
        0.9994999766349792,
        -0.0008100271224975586
      ],
      "min": [
        0.0,
        -1.0
      ]
    },
    {
      "bufferView": 7,
      "byteOffset": 0,
      "componentType": 5123,
      "normalized": false,
      "count": 5715,
      "type": "SCALAR",
      "max": [
        2361.0
      ],
      "min": [
        3.0
      ]
    },
    {
      "bufferView": 8,
      "byteOffset": 0,
      "componentType": 5126,
      "normalized": false,
      "count": 1027,
      "type": "VEC3",
      "max": [
        62.597900390625,
        159.59300231933594,
        18.481599807739258
      ],
      "min": [
        -62.597900390625,
        -159.593994140625,
        -20.218799591064453
      ]
    },
    {
      "bufferView": 9,
      "byteOffset": 0,
      "componentType": 5126,
      "normalized": false,
      "count": 1027,
      "type": "VEC3",
      "max": [
        1.0,
        1.0,
        1.0
      ],
      "min": [
        -1.0,
        -1.0,
        -1.0
      ]
    },
    {
      "bufferView": 10,
      "byteOffset": 0,
      "componentType": 5126,
      "normalized": false,
      "count": 1027,
      "type": "VEC2",
      "max": [
        0.9980130195617676,
        -0.0009250044822692871
      ],
      "min": [
        0.0,
        -1.0
      ]
    },
    {
      "bufferView": 11,
      "byteOffset": 0,
      "componentType": 5123,
      "normalized": false,
      "count": 1977,
      "type": "SCALAR",
      "max": [
        1026.0
      ],
      "min": [
        0.0
      ]
    }
  ],
  "asset": {
    "generator": "WCSaga Godot Converter",
    "version": "2.0"
  },
  "bufferViews": [
    {
      "buffer": 0,
      "byteOffset": 0,
      "byteLength": 20196,
      "target": 34962
    },
    {
      "buffer": 0,
      "byteOffset": 20196,
      "byteLength": 20196,
      "target": 34962
    },
    {
      "buffer": 0,
      "byteOffset": 40392,
      "byteLength": 13464,
      "target": 34962
    },
    {
      "buffer": 0,
      "byteOffset": 53856,
      "byteLength": 6762,
      "target": 34963
    },
    {
      "buffer": 0,
      "byteOffset": 60620,
      "byteLength": 28380,
      "target": 34962
    },
    {
      "buffer": 0,
      "byteOffset": 89000,
      "byteLength": 28380,
      "target": 34962
    },
    {
      "buffer": 0,
      "byteOffset": 117380,
      "byteLength": 18920,
      "target": 34962
    },
    {
      "buffer": 0,
      "byteOffset": 136300,
      "byteLength": 11430,
      "target": 34963
    },
    {
      "buffer": 0,
      "byteOffset": 147732,
      "byteLength": 12324,
      "target": 34962
    },
    {
      "buffer": 0,
      "byteOffset": 160056,
      "byteLength": 12324,
      "target": 34962
    },
    {
      "buffer": 0,
      "byteOffset": 172380,
      "byteLength": 8216,
      "target": 34962
    },
    {
      "buffer": 0,
      "byteOffset": 180596,
      "byteLength": 3954,
      "target": 34963
    }
  ],
  "buffers": [
    {
      "uri": "kis_zakhari-lod2.bin",
      "byteLength": 184552
    }
  ],
  "materials": [
    {
      "pbrMetallicRoughness": {
        "baseColorFactor": [
          1.0,
          1.0,
          1.0,
          1.0
        ],
        "metallicFactor": 0.15,
        "roughnessFactor": 0.75
      },
      "emissiveFactor": [
        0.0,
        0.0,
        0.0
      ],
      "alphaMode": "OPAQUE",
      "doubleSided": false,
      "name": "standard"
    },
    {
      "pbrMetallicRoughness": {
        "baseColorFactor": [
          1.0,
          1.0,
          1.0,
          1.0
        ],
        "metallicFactor": 0.15,
        "roughnessFactor": 0.75
      },
      "emissiveFactor": [
        0.0,
        0.0,
        0.0
      ],
      "alphaMode": "OPAQUE",
      "doubleSided": false,
      "name": "standard"
    },
    {
      "pbrMetallicRoughness": {
        "baseColorFactor": [
          1.0,
          1.0,
          1.0,
          1.0
        ],
        "metallicFactor": 0.15,
        "roughnessFactor": 0.75
      },
      "emissiveFactor": [
        0.0,
        0.0,
        0.0
      ],
      "alphaMode": "OPAQUE",
      "doubleSided": false,
      "name": "standard"
    },
    {
      "pbrMetallicRoughness": {
        "baseColorFactor": [
          1.0,
          1.0,
          1.0,
          1.0
        ],
        "metallicFactor": 0.15,
        "roughnessFactor": 0.75
      },
      "emissiveFactor": [
        0.0,
        0.0,
        0.0
      ],
      "alphaMode": "OPAQUE",
      "doubleSided": false,
      "name": "standard"
    },
    {
      "pbrMetallicRoughness": {
        "baseColorFactor": [
          1.0,
          1.0,
          1.0,
          1.0
        ],
        "metallicFactor": 0.15,
        "roughnessFactor": 0.75
      },
      "emissiveFactor": [
        0.0,
        0.0,
        0.0
      ],
      "alphaMode": "OPAQUE",
      "doubleSided": false,
      "name": "standard"
    },
    {
      "pbrMetallicRoughness": {
        "baseColorFactor": [
          1.0,
          1.0,
          1.0,
          1.0
        ],
        "metallicFactor": 0.15,
        "roughnessFactor": 0.75
      },
      "emissiveFactor": [
        0.0,
        0.0,
        0.0
      ],
      "alphaMode": "OPAQUE",
      "doubleSided": false,
      "name": "standard"
    }
  ],
  "meshes": [
    {
      "primitives": [
        {
          "attributes": {
            "POSITION": 8,
            "NORMAL": 9,
            "TEXCOORD_0": 10
          },
          "indices": 11,
          "mode": 4,
          "material": 0
        }
      ],
      "name": "ExportedMesh"
    }
  ],
  "nodes": [
    {
      "mesh": 0,
      "name": "Model"
    }
  ],
  "scene": 0,
  "scenes": [
    {
      "nodes": [
        0
      ]
    }
  ]
}