{
  "accessors": [
    {
      "bufferView": 0,
      "byteOffset": 0,
      "componentType": 5126,
      "normalized": false,
      "count": 1200,
      "type": "VEC3",
      "max": [
        0.21977700293064117,
        1.3001500368118286,
        0.24981899559497833
      ],
      "min": [
        -0.21977700293064117,
        -1.3001500368118286,
        -0.1311970055103302
      ]
    },
    {
      "bufferView": 1,
      "byteOffset": 0,
      "componentType": 5126,
      "normalized": false,
      "count": 1200,
      "type": "VEC3",
      "max": [
        0.9999599648849009,
        1.0,
        1.0
      ],
      "min": [
        -0.9999706228970102,
        -1.0,
        -1.0
      ]
    },
    {
      "bufferView": 2,
      "byteOffset": 0,
      "componentType": 5126,
      "normalized": false,
      "count": 1200,
      "type": "VEC2",
      "max": [
        0.9919559955596924,
        -0.009160041809082031
      ],
      "min": [
        0.007883000187575817,
        -0.9944700002670288
      ]
    },
    {
      "bufferView": 3,
      "byteOffset": 0,
      "componentType": 5123,
      "normalized": false,
      "count": 2868,
      "type": "SCALAR",
      "max": [
        1199.0
      ],
      "min": [
        0.0
      ]
    }
  ],
  "asset": {
    "generator": "WCSaga Godot Converter",
    "version": "2.0"
  },
  "bufferViews": [
    {
      "buffer": 0,
      "byteOffset": 0,
      "byteLength": 14400,
      "target": 34962
    },
    {
      "buffer": 0,
      "byteOffset": 14400,
      "byteLength": 14400,
      "target": 34962
    },
    {
      "buffer": 0,
      "byteOffset": 28800,
      "byteLength": 9600,
      "target": 34962
    },
    {
      "buffer": 0,
      "byteOffset": 38400,
      "byteLength": 5736,
      "target": 34963
    }
  ],
  "buffers": [
    {
      "uri": "kim_paw.bin",
      "byteLength": 44136
    }
  ],
  "materials": [
    {
      "pbrMetallicRoughness": {
        "baseColorFactor": [
          1.0,
          1.0,
          1.0,
          1.0
        ],
        "metallicFactor": 0.15,
        "roughnessFactor": 0.75
      },
      "emissiveFactor": [
        0.0,
        0.0,
        0.0
      ],
      "alphaMode": "OPAQUE",
      "doubleSided": false,
      "name": "standard"
    }
  ],
  "meshes": [
    {
      "primitives": [
        {
          "attributes": {
            "POSITION": 0,
            "NORMAL": 1,
            "TEXCOORD_0": 2
          },
          "indices": 3,
          "mode": 4,
          "material": 0
        }
      ],
      "name": "ExportedMesh"
    }
  ],
  "nodes": [
    {
      "mesh": 0,
      "name": "Model"
    }
  ],
  "scene": 0,
  "scenes": [
    {
      "nodes": [
        0
      ]
    }
  ]
}