{
  "accessors": [
    {
      "bufferView": 0,
      "byteOffset": 0,
      "componentType": 5126,
      "normalized": false,
      "count": 2556,
      "type": "VEC3",
      "max": [
        41.24639892578125,
        43.077598571777344,
        9.134940147399902
      ],
      "min": [
        -41.24639892578125,
        -43.077598571777344,
        -9.134940147399902
      ]
    },
    {
      "bufferView": 1,
      "byteOffset": 0,
      "componentType": 5126,
      "normalized": false,
      "count": 2556,
      "type": "VEC3",
      "max": [
        1.0,
        1.0,
        1.0
      ],
      "min": [
        -1.0,
        -1.0,
        -1.0
      ]
    },
    {
      "bufferView": 2,
      "byteOffset": 0,
      "componentType": 5126,
      "normalized": false,
      "count": 2556,
      "type": "VEC2",
      "max": [
        0.9906529784202576,
        -0.01073300838470459
      ],
      "min": [
        0.004980999976396561,
        -0.9520469903945923
      ]
    },
    {
      "bufferView": 3,
      "byteOffset": 0,
      "componentType": 5123,
      "normalized": false,
      "count": 4836,
      "type": "SCALAR",
      "max": [
        2555.0
      ],
      "min": [
        0.0
      ]
    },
    {
      "bufferView": 4,
      "byteOffset": 0,
      "componentType": 5126,
      "normalized": false,
      "count": 10134,
      "type": "VEC3",
      "max": [
        41.24639892578125,
        45.35960006713867,
        9.134940147399902
      ],
      "min": [
        -41.24639892578125,
        -43.077598571777344,
        -11.930700302124023
      ]
    },
    {
      "bufferView": 5,
      "byteOffset": 0,
      "componentType": 5126,
      "normalized": false,
      "count": 10134,
      "type": "VEC3",
      "max": [
        1.0,
        1.0,
        1.0
      ],
      "min": [
        -1.0,
        -1.0,
        -1.0
      ]
    },
    {
      "bufferView": 6,
      "byteOffset": 0,
      "componentType": 5126,
      "normalized": false,
      "count": 10134,
      "type": "VEC2",
      "max": [
        0.9920650124549866,
        -0.01073300838470459
      ],
      "min": [
        0.0,
        -1.0
      ]
    },
    {
      "bufferView": 7,
      "byteOffset": 0,
      "componentType": 5123,
      "normalized": false,
      "count": 17718,
      "type": "SCALAR",
      "max": [
        10133.0
      ],
      "min": [
        0.0
      ]
    }
  ],
  "asset": {
    "generator": "WCSaga Godot Converter",
    "version": "2.0"
  },
  "bufferViews": [
    {
      "buffer": 0,
      "byteOffset": 0,
      "byteLength": 30672,
      "target": 34962
    },
    {
      "buffer": 0,
      "byteOffset": 30672,
      "byteLength": 30672,
      "target": 34962
    },
    {
      "buffer": 0,
      "byteOffset": 61344,
      "byteLength": 20448,
      "target": 34962
    },
    {
      "buffer": 0,
      "byteOffset": 81792,
      "byteLength": 9672,
      "target": 34963
    },
    {
      "buffer": 0,
      "byteOffset": 91464,
      "byteLength": 121608,
      "target": 34962
    },
    {
      "buffer": 0,
      "byteOffset": 213072,
      "byteLength": 121608,
      "target": 34962
    },
    {
      "buffer": 0,
      "byteOffset": 334680,
      "byteLength": 81072,
      "target": 34962
    },
    {
      "buffer": 0,
      "byteOffset": 415752,
      "byteLength": 35436,
      "target": 34963
    }
  ],
  "buffers": [
    {
      "uri": "tcs_venture-lod1.bin",
      "byteLength": 451188
    }
  ],
  "materials": [
    {
      "pbrMetallicRoughness": {
        "baseColorFactor": [
          1.0,
          1.0,
          1.0,
          1.0
        ],
        "metallicFactor": 0.15,
        "roughnessFactor": 0.75
      },
      "emissiveFactor": [
        0.0,
        0.0,
        0.0
      ],
      "alphaMode": "OPAQUE",
      "doubleSided": false,
      "name": "standard"
    },
    {
      "pbrMetallicRoughness": {
        "baseColorFactor": [
          1.0,
          1.0,
          1.0,
          1.0
        ],
        "metallicFactor": 0.15,
        "roughnessFactor": 0.75
      },
      "emissiveFactor": [
        0.0,
        0.0,
        0.0
      ],
      "alphaMode": "OPAQUE",
      "doubleSided": false,
      "name": "standard"
    },
    {
      "pbrMetallicRoughness": {
        "baseColorFactor": [
          1.0,
          1.0,
          1.0,
          1.0
        ],
        "metallicFactor": 0.15,
        "roughnessFactor": 0.75
      },
      "emissiveFactor": [
        0.0,
        0.0,
        0.0
      ],
      "alphaMode": "OPAQUE",
      "doubleSided": false,
      "name": "standard"
    },
    {
      "pbrMetallicRoughness": {
        "baseColorFactor": [
          1.0,
          1.0,
          1.0,
          1.0
        ],
        "metallicFactor": 0.15,
        "roughnessFactor": 0.75
      },
      "emissiveFactor": [
        0.0,
        0.0,
        0.0
      ],
      "alphaMode": "OPAQUE",
      "doubleSided": false,
      "name": "standard"
    }
  ],
  "meshes": [
    {
      "primitives": [
        {
          "attributes": {
            "POSITION": 4,
            "NORMAL": 5,
            "TEXCOORD_0": 6
          },
          "indices": 7,
          "mode": 4,
          "material": 0
        }
      ],
      "name": "ExportedMesh"
    }
  ],
  "nodes": [
    {
      "mesh": 0,
      "name": "Model"
    }
  ],
  "scene": 0,
  "scenes": [
    {
      "nodes": [
        0
      ]
    }
  ]
}